<svg xmlns="http://www.w3.org/2000/svg" xmlns:xlink="http://www.w3.org/1999/xlink" xmlns:inkscape="http://www.inkscape.org/namespaces/inkscape" version="1.1" width="216" height="201" viewBox="0 0 216 201">
<defs>
<path id="font_1_1" d="M.6749878 .22944641C.69299319 .22944641 .71199038 .22944641 .71199038 .25144959 .71199038 .27246095 .69200137 .27246095 .6749878 .27246095H.12298584C.10598755 .27246095 .085998538 .27246095 .085998538 .25144959 .085998538 .22944641 .10499573 .22944641 .12298584 .22944641H.6749878Z"/>
<path id="font_2_4" d="M.30499269 .35195924C.397995 .38697816 .44198609 .46006776 .44198609 .5290985 .44198609 .60606387 .35699464 .6660156 .25299073 .6660156 .14898682 .6660156 .070999149 .60705569 .070999149 .5310974 .070999149 .49809266 .09298706 .47909547 .12199402 .47909547 .15098572 .47909547 .17199707 .50009158 .17199707 .5290985 .17199707 .5640869 .147995 .57910159 .11399841 .57910159 .13999939 .6210327 .20098877 .64100649 .25 .64100649 .33299256 .64100649 .34899903 .5750885 .34899903 .52809146 .34899903 .49809266 .34298707 .45005799 .31799317 .41201783 .2869873 .36695863 .2519989 .36495973 .22299195 .36296083 .19799805 .36094667 .19599915 .36094667 .18798828 .36094667 .1789856 .35995484 .17098999 .35894776 .17098999 .34794618 .17098999 .33496095 .1789856 .33496095 .19599915 .33496095H.24299622C.32998658 .33496095 .36799623 .2646637 .36799623 .16937256 .36799623 .04145813 .2999878 .0055389406 .24899292 .0055389406 .22999573 .0055389406 .1329956 .010528564 .08799744 .0843811 .12399292 .07939148 .1519928 .10437012 .1519928 .13838196 .1519928 .17137146 .1269989 .19238281 .09799194 .19238281 .07299805 .19238281 .042999269 .17736817 .042999269 .13537598 .042999269 .046447755 .13598633-.022460938 .2519989-.022460938 .3769989-.022460938 .46998597 .06741333 .46998597 .16937256 .46998597 .25663758 .40098573 .33093263 .30499269 .35195924Z"/>
<path id="font_2_3" d="M.46199037 .17704773H.43399049C.43199159 .16404724 .42399598 .10501099 .41099549 .08900452 .40499879 .07998657 .33599855 .07998657 .31599427 .07998657H.13798523L.23699951 .17404175C.40098573 .3161316 .46199037 .36915589 .46199037 .4711914 .46199037 .5860901 .36698915 .6660156 .24398804 .6660156 .1289978 .6660156 .050994874 .575119 .050994874 .4841919 .050994874 .43418885 .09399414 .42919923 .102996829 .42919923 .125 .42919923 .15499878 .44519044 .15499878 .48120118 .15499878 .51119998 .13398743 .5332031 .102996829 .5332031 .09799194 .5332031 .09498596 .5332031 .09098816 .53219607 .114990238 .6030731 .1789856 .63500979 .23298645 .63500979 .33499146 .63500979 .36999513 .5401764 .36999513 .4711914 .36999513 .36915589 .29299928 .28611756 .24499512 .23408509L.06199646 .035995485C.050994874 .024993897 .050994874 .022994996 .050994874 0H.43399049L.46199037 .17704773Z"/>
<path id="font_2_2" d="M.3039856 .6392822C.3039856 .6642761 .30299378 .666275 .27799989 .666275 .21598816 .60227969 .12399292 .60227969 .09298706 .60227969V.57128909C.11199951 .57128909 .17298889 .57128909 .22698975 .5972748V.08001709C.22698975 .042999269 .22399903 .0309906 .1309967 .0309906H.09899902V0C.1349945 .0029907227 .22399903 .0029907227 .2649994 .0029907227 .30599977 .0029907227 .3959961 .0029907227 .43199159 0V.0309906H.3999939C.30699159 .0309906 .3039856 .042999269 .3039856 .08001709V.6392822Z"/>
<path id="font_2_5" d="M.0289917 .19602967V.16503906H.3019867V.07901001C.3019867 .041992189 .29899598 .0309906 .22399903 .0309906H.20199585V0C.2649994 .0029907227 .33499146 .0029907227 .34199525 .0029907227 .34700013 .0029907227 .4189911 .0029907227 .48199464 0V.0309906H.45999146C.3849945 .0309906 .38198854 .041992189 .38198854 .07901001V.16503906H.48399354V.19602967H.38198854V.64974978C.38198854 .669754 .38198854 .6767578 .36299134 .6767578 .35099793 .6767578 .34999085 .67575076 .34098817 .66174319L.0289917 .19602967M.06098938 .19602967 .30799867 .56581118V.19602967H.06098938Z"/>
<path id="font_2_6" d="M.10398865 .3444519C.10398865 .32641603 .10398865 .31539918 .117996219 .31539918 .12599182 .31539918 .1289978 .31941224 .1349945 .32843019 .16499329 .3704834 .21299744 .39453126 .2649994 .39453126 .37199403 .39453126 .37199403 .24029541 .37199403 .20425415 .37199403 .17324829 .37199403 .11125183 .34399415 .06637573 .31698609 .024475098 .2749939 .0055389406 .23599243 .0055389406 .1769867 .0055389406 .10998535 .042434694 .085998538 .116256717 .08699036 .116256717 .09298706 .11425781 .099990848 .11425781 .11999512 .11425781 .14898682 .12724304 .14898682 .16325379 .14898682 .19424439 .1269989 .21224976 .099990848 .21224976 .07899475 .21224976 .050994874 .20025635 .050994874 .1602478 .050994874 .069366458 .1269989-.022460938 .23799134-.022460938 .35899354-.022460938 .46199037 .0753479 .46199037 .19924927 .46199037 .3204193 .37599183 .41952516 .2669983 .41952516 .21899414 .41952516 .16999817 .40351869 .1349945 .36747743V.56477358C.16499329 .5557709 .19599915 .55078127 .22698975 .55078127 .34999085 .55078127 .42199708 .6397705 .42199708 .652771 .42199708 .6617737 .41600038 .6657715 .41099549 .6657715 .40899659 .6657715 .40699769 .6657715 .397995 .6607666 .35099793 .6417694 .30499269 .6337738 .2630005 .6337738 .21998596 .6337738 .1749878 .6417694 .1289978 .6607666 .11898804 .6657715 .116989139 .6657715 .115997318 .6657715 .10398865 .6657715 .10398865 .655777 .10398865 .6387787V.3444519Z"/>
<path id="font_2_7" d="M.13398743 .33073426C.13398743 .43276979 .14498902 .4897766 .17199707 .54177859 .19198609 .58277896 .24099732 .64100649 .31498719 .64100649 .33499146 .64100649 .3809967 .63697817 .4039917 .6007843 .36698915 .6007843 .35099793 .5817871 .35099793 .55477908 .35099793 .5287781 .36898805 .50878909 .39698792 .50878909 .4249878 .50878909 .44400025 .5267792 .44400025 .55677798 .44400025 .612854 .4039917 .6660156 .31298829 .6660156 .18399048 .6660156 .042999269 .53878787 .042999269 .3157196 .042999269 .044555665 .16499329-.022460938 .25898744-.022460938 .36999513-.022460938 .46998597 .0705719 .46998597 .20265198 .46998597 .32972718 .37799073 .42578126 .2649994 .42578126 .20498657 .42578126 .1619873 .39076234 .13398743 .33073426M.2579956 .0055389406C.20098877 .0055389406 .16799927 .05256653 .1559906 .08157349 .13699341 .12660218 .13598633 .20965576 .13598633 .22566223 .13598633 .29270936 .16699219 .4007721 .2630005 .4007721 .2789917 .4007721 .32798768 .4007721 .3600006 .33872987 .3789978 .30070497 .3789978 .25167848 .3789978 .20365906 .3789978 .15562439 .3789978 .1065979 .3600006 .06956482 .32899476 .012542725 .2849884 .0055389406 .2579956 .0055389406Z"/>
<path id="font_2_8" d="M.48999024 .60954287C.49899293 .62054446 .49899293 .62254336 .49899293 .6435547H.25C.12399292 .6435547 .12098694 .6565399 .117996219 .67555239H.08999634L.056991579 .46655274H.084991458C.08898926 .48954774 .09700012 .5455475 .10998535 .55755618 .116989139 .56355288 .19599915 .56355288 .20999146 .56355288H.41999818L.32398988 .4325409C.19400025 .25354005 .18199158 .090530399 .18199158 .03353882 .18199158 .022537232 .18199158-.022460938 .22799683-.022460938 .2749939-.022460938 .2749939 .021530152 .2749939 .03453064V.08352661C.2749939 .23054505 .29699708 .34654237 .34999085 .41854859L.48999024 .60954287Z"/>
<path id="font_2_9" d="M.17199707 .45387269C.14199829 .47288514 .11898804 .4998932 .11898804 .53692629 .11898804 .6019745 .18899536 .64100649 .25498963 .64100649 .33198548 .64100649 .3939972 .58695986 .3939972 .51690676 .3939972 .44685365 .33399964 .40083314 .2939911 .37780763L.17199707 .45387269M.31900025 .36180116C.36898805 .38581849 .44198609 .43585206 .44198609 .51690676 .44198609 .6109772 .34799195 .6660156 .2579956 .6660156 .15299988 .6660156 .070999149 .5909729 .070999149 .49890138 .070999149 .46087647 .084991458 .42485047 .10899353 .39582826 .12599182 .3768158 .13198853 .37280274 .18998719 .3357849 .101989749 .29374696 .042999269 .23269654 .042999269 .15063477 .042999269 .044555665 .147995-.022460938 .2559967-.022460938 .37199403-.022460938 .46998597 .059570314 .46998597 .16764832 .46998597 .26472474 .3959961 .3127594 .37098695 .32876588 .3600006 .33677674 .33099366 .35479737 .31900025 .36180116M.21699524 .31877137 .34298707 .2407074C.3659973 .22569275 .41600038 .19366455 .41600038 .1326294 .41600038 .05357361 .33599855 .0055389406 .25698854 .0055389406 .16999817 .0055389406 .09700012 .06758118 .09700012 .15063477 .09700012 .22268677 .14698792 .28274537 .21699524 .31877137Z"/>
<path id="font_2_10" d="M.3789978 .31478883V.2927704C.3789978 .04875183 .2679901 .0055389406 .21099854 .0055389406 .18798828 .0055389406 .13699341 .009552002 .11099243 .042755128H.114990238C.12298584 .040740968 .1619873 .04875183 .1619873 .088760379 .1619873 .11476135 .14399719 .13476563 .115997318 .13476563 .08799744 .13476563 .068984989 .116760257 .068984989 .086761478 .068984989 .020629883 .12199402-.022460938 .21199036-.022460938 .34098817-.022460938 .46998597 .10975647 .46998597 .3287964 .46998597 .5999756 .34999085 .6660156 .2599945 .6660156 .14498902 .6660156 .042999269 .5729675 .042999269 .44187928 .042999269 .31478883 .1349945 .21875 .24798584 .21875 .32099916 .21875 .36099244 .27175904 .3789978 .31478883M.25 .2437439C.23399353 .2437439 .18499756 .2437439 .15299988 .30578614 .13398743 .34381105 .13398743 .39283753 .13398743 .4408722 .13398743 .48890687 .13398743 .5389404 .15499878 .57696536 .18499756 .628006 .22399903 .64100649 .2599945 .64100649 .32798768 .64100649 .35499574 .57196047 .35899354 .5619507 .37298585 .52493289 .3769989 .4638977 .3769989 .42086793 .3769989 .34780885 .34399415 .2437439 .25 .2437439Z"/>
<path id="font_2_1" d="M.47299195 .31976319C.47299195 .38682557 .46998597 .47288514 .43499757 .5479431 .3909912 .64201357 .31498719 .6660156 .25698854 .6660156 .19699097 .6660156 .12098694 .64201357 .07699585 .5459442 .04499817 .47688294 .039993287 .39582826 .039993287 .31976319 .039993287 .25471498 .041992189 .15765381 .084991458 .07858276 .13198853-.0064697267 .20999146-.022460938 .2559967-.022460938 .32099916-.022460938 .394989 .0055389406 .43699647 .097595218 .46699525 .1646576 .47299195 .23971558 .47299195 .31976319M.25698854 .002532959C.22698975 .002532959 .15499878 .016540528 .13598633 .12962342 .12599182 .18867493 .12599182 .2747345 .12599182 .33177186 .12599182 .39982606 .12599182 .47888185 .13798523 .53393557 .1579895 .6230011 .22200012 .64100649 .2559967 .64100649 .2939911 .64100649 .35699464 .62098696 .37599183 .5279236 .3869934 .47288514 .3869934 .39482118 .3869934 .33177186 .3869934 .2697296 .3869934 .18566895 .3769989 .12661743 .35598756 .012542725 .28199769 .002532959 .25698854 .002532959Z"/>
<path id="font_3_1" d="M.33099366-.2400055C.33099366-.23701477 .33099366-.23500061 .31399537-.21800232 .18899536-.0920105 .15699768 .09700012 .15699768 .25 .15699768 .42399598 .19499207 .59799197 .31799317 .72299197 .33099366 .73498538 .33099366 .7369995 .33099366 .73999026 .33099366 .746994 .32699586 .75 .32099916 .75 .31098939 .75 .22099304 .6819916 .1619873 .5549927 .11099243 .44499208 .09899902 .33399964 .09899902 .25 .09899902 .17199707 .10998535 .050994874 .16499329-.06201172 .22499085-.18501282 .31098939-.25 .32099916-.25 .32699586-.25 .33099366-.24700928 .33099366-.2400055Z"/>
<path id="font_4_1" d="M.6589966 .23046875C.6759949 .23046875 .69400027 .23046875 .69400027 .25045777 .69400027 .27046205 .6759949 .27046205 .6589966 .27046205H.117996219C.100997928 .27046205 .08299255 .27046205 .08299255 .25045777 .08299255 .23046875 .100997928 .23046875 .117996219 .23046875H.6589966Z"/>
<path id="font_3_4" d="M.1269989 .07699585 .23298645 .18003845C.3889923 .31811524 .44898988 .3721466 .44898988 .47216798 .44898988 .5860901 .35899354 .6660156 .23699951 .6660156 .12399292 .6660156 .049987794 .57411196 .049987794 .48516847 .049987794 .4291687 .099990848 .4291687 .102996829 .4291687 .11999512 .4291687 .15499878 .44117738 .15499878 .48217774 .15499878 .5081787 .13699341 .5341797 .101989749 .5341797 .09399414 .5341797 .09199524 .5341797 .08898926 .5331726 .11199951 .59806826 .1659851 .63500979 .22399903 .63500979 .31498719 .63500979 .35798646 .5541382 .35798646 .47216798 .35798646 .39215089 .30799867 .31311036 .25299073 .25108338L.06098938 .036987306C.049987794 .025985718 .049987794 .023986817 .049987794 0H.42099L.44898988 .17404175H.42399598C.4189911 .14402771 .4119873 .1000061 .4019928 .084991458 .394989 .07699585 .32899476 .07699585 .30699159 .07699585H.1269989Z"/>
<path id="font_5_1" d="M.20298767 .0009918213C.20298767 .066986087 .17799378 .10598755 .13899231 .10598755 .10598755 .10598755 .085998538 .08099365 .085998538 .052993776 .085998538 .025985718 .10598755 0 .13899231 0 .15098572 0 .1639862 .0039978029 .17399597 .0129852299 .1769867 .01499939 .17799378 .015991211 .1789856 .015991211 .17999268 .015991211 .18099976 .01499939 .18099976 .0009918213 .18099976-.07316589 .1459961-.13328552 .11299133-.16635132 .101989749-.17736817 .101989749-.17936707 .101989749-.18237305 .101989749-.18936157 .10699463-.19335938 .11199951-.19335938 .12298584-.19335938 .20298767-.116256717 .20298767 .0009918213Z"/>
<path id="font_3_5" d="M.2899933 .35191346C.37199403 .37893678 .42999269 .4490509 .42999269 .52809146 .42999269 .6100464 .34199525 .6660156 .24598694 .6660156 .14498902 .6660156 .068984989 .60606387 .068984989 .53009036 .068984989 .49710084 .09098816 .47808839 .11999512 .47808839 .15098572 .47808839 .17098999 .50009158 .17098999 .5290985 .17098999 .57910159 .12399292 .57910159 .10899353 .57910159 .13999939 .62802127 .20599365 .64100649 .24198914 .64100649 .2829895 .64100649 .33799745 .6190338 .33799745 .5290985 .33799745 .51708987 .33599855 .45906068 .30999757 .4149933 .27999879 .36691285 .24598694 .36390687 .22099304 .36291505 .21299744 .36190797 .18899536 .35990907 .18199158 .35990907 .17399597 .35890199 .16699219 .35791017 .16699219 .3479004 .16699219 .33691407 .17399597 .33691407 .19099427 .33691407H.23498535C.31698609 .33691407 .35398866 .2686615 .35398866 .17037964 .35398866 .034469606 .2849884 .0055389406 .24099732 .0055389406 .19799805 .0055389406 .12298584 .022491456 .08799744 .08137512 .12298584 .07637024 .1539917 .09837341 .1539917 .1363678 .1539917 .17237854 .1269989 .19238281 .09799194 .19238281 .07398987 .19238281 .041992189 .17837525 .041992189 .1343689 .041992189 .043441774 .1349945-.022460938 .24398804-.022460938 .3659973-.022460938 .45700074 .06838989 .45700074 .17037964 .45700074 .252594 .3939972 .33088685 .2899933 .35191346Z"/>
<path id="font_3_2" d="M.2889862 .25C.2889862 .32798768 .27799989 .44898988 .22299195 .56199648 .16299439 .68499758 .07699585 .75 .066986087 .75 .06098938 .75 .056991579 .74598696 .056991579 .73999026 .056991579 .7369995 .056991579 .73498538 .07598877 .71699526 .17399597 .6179962 .23098755 .45899964 .23098755 .25 .23098755 .07899475 .19400025-.09700012 .069992069-.2230072 .056991579-.23500061 .056991579-.23701477 .056991579-.2400055 .056991579-.2460022 .06098938-.25 .066986087-.25 .07699585-.25 .16699219-.18200684 .22599793-.055007936 .2769928 .054992677 .2889862 .16600037 .2889862 .25Z"/>
<path id="font_3_3" d="M.2939911 .64004519C.2939911 .66400149 .2939911 .6660156 .2709961 .6660156 .20899964 .60227969 .12098694 .60227969 .08898926 .60227969V.57128909C.10899353 .57128909 .16799927 .57128909 .21998596 .5972748V.07902527C.21998596 .042999269 .21699524 .0309906 .1269989 .0309906H.09498596V0C.12998963 .0029907227 .21699524 .0029907227 .25698854 .0029907227 .29699708 .0029907227 .38398744 .0029907227 .4189911 0V.0309906H.3869934C.29699708 .0309906 .2939911 .041992189 .2939911 .07902527V.64004519Z"/>
<path id="font_3_7" d="M.47599793 .609375C.4850006 .6213684 .4850006 .62338259 .4850006 .64437869H.24198914C.11999512 .64437869 .117996219 .65737918 .11399841 .67637637H.08898926L.055999757 .4702301H.08099365C.083999637 .48625184 .09298706 .5493469 .10598755 .56137087 .11299133 .5673828 .19099427 .5673828 .20399475 .5673828H.41099549C.3999939 .5513611 .32099916 .4421997 .29899598 .40914918 .20899964 .27394105 .17599488 .1347351 .17599488 .032577516 .17599488 .022567749 .17599488-.022460938 .22200012-.022460938 .2679901-.022460938 .2679901 .022567749 .2679901 .032577516V.08366394C.2679901 .13873291 .2709961 .19381714 .2789917 .24790955 .2829895 .27093507 .29699708 .35707093 .34098817 .41915895L.47599793 .609375Z"/>
<path id="font_3_8" d="M.36698915 .31781007V.28579713C.36698915 .05178833 .2630005 .0055389406 .20498657 .0055389406 .18798828 .0055389406 .13398743 .007537842 .10699463 .041778566 .15098572 .041778566 .15899658 .07078552 .15899658 .08778381 .15899658 .118774417 .1349945 .13378906 .11299133 .13378906 .09700012 .13378906 .066986087 .12478638 .066986087 .08578491 .066986087 .018615723 .12098694-.022460938 .20599365-.022460938 .33499146-.022460938 .45700074 .11378479 .45700074 .32881166 .45700074 .5979767 .34199525 .6660156 .25299073 .6660156 .19799805 .6660156 .14898682 .64801028 .10598755 .60298159 .06498718 .5579529 .041992189 .5159302 .041992189 .44088746 .041992189 .31581117 .12998963 .21777344 .24198914 .21777344 .30299378 .21777344 .34399415 .25978089 .36698915 .31781007M.24299622 .24076844C.22698975 .24076844 .18099976 .24076844 .1499939 .3038025 .13198853 .3408203 .13198853 .39085389 .13198853 .43988038 .13198853 .49391175 .13198853 .54093936 .15299988 .5779724 .17999268 .6279907 .21798706 .64100649 .25299073 .64100649 .29899598 .64100649 .33198548 .60697939 .34899903 .5619507 .36099244 .52993777 .36499024 .4669037 .36499024 .42086793 .36499024 .3378296 .33099366 .24076844 .24299622 .24076844Z"/>
<path id="font_3_6" d="M.13198853 .327713V.35173036C.13198853 .6047821 .2559967 .64100649 .30699159 .64100649 .33099366 .64100649 .37298585 .634964 .394989 .6007538 .37998963 .6007538 .33999635 .6007538 .33999635 .5557556 .33999635 .524765 .3639984 .5097656 .38598634 .5097656 .4019928 .5097656 .43199159 .51875308 .43199159 .5577545 .43199159 .6178589 .3880005 .6660156 .30499269 .6660156 .1769867 .6660156 .041992189 .5367584 .041992189 .31570436 .041992189 .048553468 .1579895-.022460938 .25099183-.022460938 .3619995-.022460938 .45700074 .07156372 .45700074 .2036438 .45700074 .33070375 .36799623 .4267578 .25698854 .4267578 .18899536 .4267578 .1519928 .37573243 .13198853 .327713M.25099183 .0055389406C.18798828 .0055389406 .1579895 .06556702 .1519928 .080566409 .13398743 .127594 .13398743 .2076416 .13398743 .22564698 .13398743 .30369569 .1659851 .40374757 .2559967 .40374757 .27198792 .40374757 .31799317 .40374757 .34899903 .34172059 .36698915 .30470277 .36698915 .2536621 .36698915 .20463562 .36698915 .15661621 .36698915 .10658264 .34999085 .0705719 .31999208 .010528564 .27398683 .0055389406 .25099183 .0055389406Z"/>
</defs>
<path transform="matrix(1.00003,0,0,-1.00002,61.973436,135.64643)" stroke-width=".79701" stroke-linecap="butt" stroke-miterlimit="10" stroke-linejoin="miter" fill="none" stroke="#000000" d="M-48.80989 0H148.02373"/>
<path transform="matrix(-1.00003,-0,0,1.00002,12.763554,135.64643)" stroke-width=".79701" stroke-linecap="round" stroke-linejoin="round" fill="none" stroke="#000000" d="M-2.55046 3.11095C-2.0845 1.24435-1.04614 .36295 0 0-1.04614-.36295-2.0845-1.24435-2.55046-3.11095"/>
<path transform="matrix(1.00003,0,0,-1.00002,210.40012,135.64643)" stroke-width=".79701" stroke-linecap="round" stroke-linejoin="round" fill="none" stroke="#000000" d="M-2.55046 3.11095C-2.0845 1.24435-1.04614 .36295 0 0-1.04614-.36295-2.0845-1.24435-2.55046-3.11095"/>
<path transform="matrix(1.00003,0,0,-1.00002,61.973436,135.64643)" stroke-width=".3985" stroke-linecap="butt" stroke-miterlimit="10" stroke-linejoin="miter" fill="none" stroke="#000000" d="M-42.5202-1.4174V1.4174"/>
<use data-text="&#x2212;" xlink:href="#font_1_1" transform="matrix(8.966669,0,0,-8.966579,13.56398,129.8793)"/>
<use data-text="3" xlink:href="#font_2_4" transform="matrix(8.966669,0,0,-8.966579,20.732193,129.8793)"/>
<path transform="matrix(1.00003,0,0,-1.00002,61.973436,135.64643)" stroke-width=".3985" stroke-linecap="butt" stroke-miterlimit="10" stroke-linejoin="miter" fill="none" stroke="#000000" d="M-28.3468-1.4174V1.4174"/>
<use data-text="&#x2212;" xlink:href="#font_1_1" transform="matrix(8.966669,0,0,-8.966579,27.738404,129.8793)"/>
<use data-text="2" xlink:href="#font_2_3" transform="matrix(8.966669,0,0,-8.966579,34.906618,129.8793)"/>
<path transform="matrix(1.00003,0,0,-1.00002,61.973436,135.64643)" stroke-width=".3985" stroke-linecap="butt" stroke-miterlimit="10" stroke-linejoin="miter" fill="none" stroke="#000000" d="M-14.17339-1.4174V1.4174"/>
<use data-text="&#x2212;" xlink:href="#font_1_1" transform="matrix(8.966669,0,0,-8.966579,41.911836,129.8793)"/>
<use data-text="1" xlink:href="#font_2_2" transform="matrix(8.966669,0,0,-8.966579,49.080049,129.8793)"/>
<path transform="matrix(1.00003,0,0,-1.00002,61.973436,135.64643)" stroke-width=".3985" stroke-linecap="butt" stroke-miterlimit="10" stroke-linejoin="miter" fill="none" stroke="#000000" d="M14.17339-1.4174V1.4174"/>
<use data-text="1" xlink:href="#font_2_2" transform="matrix(8.966669,0,0,-8.966579,73.84379,130.70932)"/>
<path transform="matrix(1.00003,0,0,-1.00002,61.973436,135.64643)" stroke-width=".3985" stroke-linecap="butt" stroke-miterlimit="10" stroke-linejoin="miter" fill="none" stroke="#000000" d="M28.3468-1.4174V1.4174"/>
<use data-text="2" xlink:href="#font_2_3" transform="matrix(8.966669,0,0,-8.966579,88.01721,130.70932)"/>
<path transform="matrix(1.00003,0,0,-1.00002,61.973436,135.64643)" stroke-width=".3985" stroke-linecap="butt" stroke-miterlimit="10" stroke-linejoin="miter" fill="none" stroke="#000000" d="M42.5202-1.4174V1.4174"/>
<use data-text="3" xlink:href="#font_2_4" transform="matrix(8.966669,0,0,-8.966579,102.19064,130.70932)"/>
<path transform="matrix(1.00003,0,0,-1.00002,61.973436,135.64643)" stroke-width=".3985" stroke-linecap="butt" stroke-miterlimit="10" stroke-linejoin="miter" fill="none" stroke="#000000" d="M56.69362-1.4174V1.4174"/>
<use data-text="4" xlink:href="#font_2_5" transform="matrix(8.966669,0,0,-8.966579,116.36507,130.70932)"/>
<path transform="matrix(1.00003,0,0,-1.00002,61.973436,135.64643)" stroke-width=".3985" stroke-linecap="butt" stroke-miterlimit="10" stroke-linejoin="miter" fill="none" stroke="#000000" d="M70.867-1.4174V1.4174"/>
<use data-text="5" xlink:href="#font_2_6" transform="matrix(8.966669,0,0,-8.966579,130.5385,130.70932)"/>
<path transform="matrix(1.00003,0,0,-1.00002,61.973436,135.64643)" stroke-width=".3985" stroke-linecap="butt" stroke-miterlimit="10" stroke-linejoin="miter" fill="none" stroke="#000000" d="M85.04042-1.4174V1.4174"/>
<use data-text="6" xlink:href="#font_2_7" transform="matrix(8.966669,0,0,-8.966579,144.71292,130.70932)"/>
<path transform="matrix(1.00003,0,0,-1.00002,61.973436,135.64643)" stroke-width=".3985" stroke-linecap="butt" stroke-miterlimit="10" stroke-linejoin="miter" fill="none" stroke="#000000" d="M99.21382-1.4174V1.4174"/>
<use data-text="7" xlink:href="#font_2_8" transform="matrix(8.966669,0,0,-8.966579,158.88636,130.70932)"/>
<path transform="matrix(1.00003,0,0,-1.00002,61.973436,135.64643)" stroke-width=".3985" stroke-linecap="butt" stroke-miterlimit="10" stroke-linejoin="miter" fill="none" stroke="#000000" d="M113.38724-1.4174V1.4174"/>
<use data-text="8" xlink:href="#font_2_9" transform="matrix(8.966669,0,0,-8.966579,173.05977,130.70932)"/>
<path transform="matrix(1.00003,0,0,-1.00002,61.973436,135.64643)" stroke-width=".3985" stroke-linecap="butt" stroke-miterlimit="10" stroke-linejoin="miter" fill="none" stroke="#000000" d="M127.56062-1.4174V1.4174"/>
<use data-text="9" xlink:href="#font_2_10" transform="matrix(8.966669,0,0,-8.966579,187.23419,130.70932)"/>
<path transform="matrix(1.00003,0,0,-1.00002,61.973436,135.64643)" stroke-width=".3985" stroke-linecap="butt" stroke-miterlimit="10" stroke-linejoin="miter" fill="none" stroke="#000000" d="M141.73404-1.4174V1.4174"/>
<use data-text="1" xlink:href="#font_2_2" transform="matrix(8.966669,0,0,-8.966579,199.10356,130.70932)"/>
<use data-text="0" xlink:href="#font_2_1" transform="matrix(8.966669,0,0,-8.966579,203.70346,130.70932)"/>
<path transform="matrix(1.00003,0,0,-1.00002,61.973436,135.64643)" stroke-width=".79701" stroke-linecap="butt" stroke-miterlimit="10" stroke-linejoin="miter" fill="none" stroke="#000000" d="M0-62.98329V133.85033"/>
<path transform="matrix(0,1.00002,1.00003,0,61.973436,199.0295)" stroke-width=".79701" stroke-linecap="round" stroke-linejoin="round" fill="none" stroke="#000000" d="M-2.55046 3.11095C-2.0845 1.24435-1.04614 .36295 0 0-1.04614-.36295-2.0845-1.24435-2.55046-3.11095"/>
<path transform="matrix(0,-1.00002,-1.00003,-0,61.973436,1.3949127)" stroke-width=".79701" stroke-linecap="round" stroke-linejoin="round" fill="none" stroke="#000000" d="M-2.55046 3.11095C-2.0845 1.24435-1.04614 .36295 0 0-1.04614-.36295-2.0845-1.24435-2.55046-3.11095"/>
<path transform="matrix(1.00003,0,0,-1.00002,61.973436,135.64643)" stroke-width=".3985" stroke-linecap="butt" stroke-miterlimit="10" stroke-linejoin="miter" fill="none" stroke="#000000" d="M-1.4174-56.69362H1.4174"/>
<use data-text="&#x2212;" xlink:href="#font_1_1" transform="matrix(8.966669,0,0,-8.966579,66.91058,194.81562)"/>
<use data-text="4" xlink:href="#font_2_5" transform="matrix(8.966669,0,0,-8.966579,74.0788,194.81562)"/>
<path transform="matrix(1.00003,0,0,-1.00002,61.973436,135.64643)" stroke-width=".3985" stroke-linecap="butt" stroke-miterlimit="10" stroke-linejoin="miter" fill="none" stroke="#000000" d="M-1.4174-42.5202H1.4174"/>
<use data-text="&#x2212;" xlink:href="#font_1_1" transform="matrix(8.966669,0,0,-8.966579,66.91058,180.64133)"/>
<use data-text="3" xlink:href="#font_2_4" transform="matrix(8.966669,0,0,-8.966579,74.0788,180.64133)"/>
<path transform="matrix(1.00003,0,0,-1.00002,61.973436,135.64643)" stroke-width=".3985" stroke-linecap="butt" stroke-miterlimit="10" stroke-linejoin="miter" fill="none" stroke="#000000" d="M-1.4174-28.3468H1.4174"/>
<use data-text="&#x2212;" xlink:href="#font_1_1" transform="matrix(8.966669,0,0,-8.966579,66.91058,166.46805)"/>
<use data-text="2" xlink:href="#font_2_3" transform="matrix(8.966669,0,0,-8.966579,74.0788,166.46805)"/>
<path transform="matrix(1.00003,0,0,-1.00002,61.973436,135.64643)" stroke-width=".3985" stroke-linecap="butt" stroke-miterlimit="10" stroke-linejoin="miter" fill="none" stroke="#000000" d="M-1.4174-14.17339H1.4174"/>
<use data-text="&#x2212;" xlink:href="#font_1_1" transform="matrix(8.966669,0,0,-8.966579,66.91058,152.29376)"/>
<use data-text="1" xlink:href="#font_2_2" transform="matrix(8.966669,0,0,-8.966579,74.0788,152.29376)"/>
<path transform="matrix(1.00003,0,0,-1.00002,61.973436,135.64643)" stroke-width=".3985" stroke-linecap="butt" stroke-miterlimit="10" stroke-linejoin="miter" fill="none" stroke="#000000" d="M-1.4174 14.17339H1.4174"/>
<use data-text="1" xlink:href="#font_2_2" transform="matrix(8.966669,0,0,-8.966579,66.91058,124.3622)"/>
<path transform="matrix(1.00003,0,0,-1.00002,61.973436,135.64643)" stroke-width=".3985" stroke-linecap="butt" stroke-miterlimit="10" stroke-linejoin="miter" fill="none" stroke="#000000" d="M-1.4174 28.3468H1.4174"/>
<use data-text="2" xlink:href="#font_2_3" transform="matrix(8.966669,0,0,-8.966579,66.91058,110.18791)"/>
<path transform="matrix(1.00003,0,0,-1.00002,61.973436,135.64643)" stroke-width=".3985" stroke-linecap="butt" stroke-miterlimit="10" stroke-linejoin="miter" fill="none" stroke="#000000" d="M-1.4174 42.5202H1.4174"/>
<use data-text="3" xlink:href="#font_2_4" transform="matrix(8.966669,0,0,-8.966579,66.91058,96.01463)"/>
<path transform="matrix(1.00003,0,0,-1.00002,61.973436,135.64643)" stroke-width=".3985" stroke-linecap="butt" stroke-miterlimit="10" stroke-linejoin="miter" fill="none" stroke="#000000" d="M-1.4174 56.69362H1.4174"/>
<use data-text="4" xlink:href="#font_2_5" transform="matrix(8.966669,0,0,-8.966579,66.91058,81.84135)"/>
<path transform="matrix(1.00003,0,0,-1.00002,61.973436,135.64643)" stroke-width=".3985" stroke-linecap="butt" stroke-miterlimit="10" stroke-linejoin="miter" fill="none" stroke="#000000" d="M-1.4174 70.867H1.4174"/>
<use data-text="5" xlink:href="#font_2_6" transform="matrix(8.966669,0,0,-8.966579,66.91058,67.66707)"/>
<path transform="matrix(1.00003,0,0,-1.00002,61.973436,135.64643)" stroke-width=".3985" stroke-linecap="butt" stroke-miterlimit="10" stroke-linejoin="miter" fill="none" stroke="#000000" d="M-1.4174 85.04042H1.4174"/>
<use data-text="6" xlink:href="#font_2_7" transform="matrix(8.966669,0,0,-8.966579,66.91058,53.493776)"/>
<path transform="matrix(1.00003,0,0,-1.00002,61.973436,135.64643)" stroke-width=".3985" stroke-linecap="butt" stroke-miterlimit="10" stroke-linejoin="miter" fill="none" stroke="#000000" d="M-1.4174 99.21382H1.4174"/>
<use data-text="7" xlink:href="#font_2_8" transform="matrix(8.966669,0,0,-8.966579,66.91058,39.319498)"/>
<path transform="matrix(1.00003,0,0,-1.00002,61.973436,135.64643)" stroke-width=".3985" stroke-linecap="butt" stroke-miterlimit="10" stroke-linejoin="miter" fill="none" stroke="#000000" d="M-1.4174 113.38724H1.4174"/>
<use data-text="8" xlink:href="#font_2_9" transform="matrix(8.966669,0,0,-8.966579,66.91058,25.14621)"/>
<path transform="matrix(1.00003,0,0,-1.00002,61.973436,135.64643)" stroke-width=".3985" stroke-linecap="butt" stroke-miterlimit="10" stroke-linejoin="miter" fill="none" stroke="#000000" d="M-1.4174 127.56062H1.4174"/>
<use data-text="9" xlink:href="#font_2_10" transform="matrix(8.966669,0,0,-8.966579,66.91058,10.972931)"/>
<path transform="matrix(1.00003,0,0,-1.00002,61.973436,135.64643)" d="M-28.3468 42.5202 14.17339 99.21382 127.56062 14.17339 85.04042-42.5202Z" fill="#b3b3e0" fill-opacity=".5"/>
<path transform="matrix(1.00003,0,0,-1.00002,61.973436,135.64643)" stroke-width=".79701" stroke-linecap="butt" stroke-miterlimit="10" stroke-linejoin="miter" fill="none" stroke="#000000" d="M-28.3468 42.5202 14.17339 99.21382 127.56062 14.17339 85.04042-42.5202Z"/>
<path transform="matrix(1.00003,0,0,-1.00002,61.973436,135.64643)" d="M-26.85239 42.5202C-26.85239 43.34555-27.52145 44.01462-28.3468 44.01462-29.17215 44.01462-29.84122 43.34555-29.84122 42.5202-29.84122 41.69485-29.17215 41.02579-28.3468 41.02579-27.52145 41.02579-26.85239 41.69485-26.85239 42.5202ZM-28.3468 42.5202"/>
<use data-text="(" xlink:href="#font_3_1" transform="matrix(9.962899,0,0,-9.962799,.21658325,95.61562)"/>
<use data-text="&#x2212;" xlink:href="#font_4_1" transform="matrix(9.962899,0,0,-9.962799,4.0917055,95.61562)"/>
<use data-text="2" xlink:href="#font_3_4" transform="matrix(9.962899,0,0,-9.962799,11.839935,95.61562)"/>
<use data-text="," xlink:href="#font_5_1" transform="matrix(9.962899,0,0,-9.962799,16.822083,95.61562)"/>
<use data-text="3" xlink:href="#font_3_5" transform="matrix(9.962899,0,0,-9.962799,21.250214,95.61562)"/>
<use data-text=")" xlink:href="#font_3_2" transform="matrix(9.962899,0,0,-9.962799,26.231659,95.61562)"/>
<path transform="matrix(1.00003,0,0,-1.00002,61.973436,135.64643)" d="M15.6678 99.21382C15.6678 100.03917 14.99873 100.70824 14.17339 100.70824 13.34804 100.70824 12.67897 100.03917 12.67897 99.21382 12.67897 98.38847 13.34804 97.7194 14.17339 97.7194 14.99873 97.7194 15.6678 98.38847 15.6678 99.21382ZM14.17339 99.21382"/>
<use data-text="(" xlink:href="#font_3_1" transform="matrix(9.962899,0,0,-9.962799,79.66697,30.420319)"/>
<use data-text="1" xlink:href="#font_3_3" transform="matrix(9.962899,0,0,-9.962799,83.532588,30.420319)"/>
<use data-text="," xlink:href="#font_5_1" transform="matrix(9.962899,0,0,-9.962799,88.52325,30.420319)"/>
<use data-text="7" xlink:href="#font_3_7" transform="matrix(9.962899,0,0,-9.962799,92.95136,30.420319)"/>
<use data-text=")" xlink:href="#font_3_2" transform="matrix(9.962899,0,0,-9.962799,97.93281,30.420319)"/>
<path transform="matrix(1.00003,0,0,-1.00002,61.973436,135.64643)" d="M129.05504 14.17339C129.05504 14.99873 128.38597 15.6678 127.56062 15.6678 126.73529 15.6678 126.06621 14.99873 126.06621 14.17339 126.06621 13.34804 126.73529 12.67897 127.56062 12.67897 128.38597 12.67897 129.05504 13.34804 129.05504 14.17339ZM127.56062 14.17339"/>
<use data-text="(" xlink:href="#font_3_1" transform="matrix(9.962899,0,0,-9.962799,193.05738,115.46202)"/>
<use data-text="9" xlink:href="#font_3_8" transform="matrix(9.962899,0,0,-9.962799,196.92299,115.46202)"/>
<use data-text="," xlink:href="#font_5_1" transform="matrix(9.962899,0,0,-9.962799,201.91365,115.46202)"/>
<use data-text="1" xlink:href="#font_3_3" transform="matrix(9.962899,0,0,-9.962799,206.34177,115.46202)"/>
<use data-text=")" xlink:href="#font_3_2" transform="matrix(9.962899,0,0,-9.962799,211.32321,115.46202)"/>
<path transform="matrix(1.00003,0,0,-1.00002,61.973436,135.64643)" d="M86.53484-42.5202C86.53484-41.69485 85.86577-41.02579 85.04042-41.02579 84.21507-41.02579 83.546-41.69485 83.546-42.5202 83.546-43.34555 84.21507-44.01462 85.04042-44.01462 85.86577-44.01462 86.53484-43.34555 86.53484-42.5202ZM85.04042-42.5202"/>
<use data-text="(" xlink:href="#font_3_1" transform="matrix(9.962899,0,0,-9.962799,132.07154,189.1595)"/>
<use data-text="6" xlink:href="#font_3_6" transform="matrix(9.962899,0,0,-9.962799,135.93717,189.1595)"/>
<use data-text="," xlink:href="#font_5_1" transform="matrix(9.962899,0,0,-9.962799,140.92783,189.1595)"/>
<use data-text="&#x2212;" xlink:href="#font_4_1" transform="matrix(9.962899,0,0,-9.962799,145.35593,189.1595)"/>
<use data-text="3" xlink:href="#font_3_5" transform="matrix(9.962899,0,0,-9.962799,153.10517,189.1595)"/>
<use data-text=")" xlink:href="#font_3_2" transform="matrix(9.962899,0,0,-9.962799,158.08661,189.1595)"/>
</svg>
