<svg xmlns="http://www.w3.org/2000/svg" xmlns:xlink="http://www.w3.org/1999/xlink" xmlns:inkscape="http://www.inkscape.org/namespaces/inkscape" version="1.1" width="308" height="138" viewBox="0 0 308 138">
<defs>
<path id="font_1_4" d="M.5369873 .5947571C.522995 .5818329 .48999024 .55400088 .48999024 .5361023 .48999024 .5261078 .5 .516098 .5099945 .516098 .5189972 .516098 .5239868 .5231018 .5289917 .5290985 .54100039 .5440674 .56399539 .5718994 .60798647 .59376528 .61499026 .59776309 .625 .6027527 .625 .61476138 .625 .62475588 .6179962 .62976077 .61099246 .6347656 .58898928 .6497803 .5779877 .66781619 .56999209 .69184878 .56799319 .7008667 .56399539 .7138672 .5499878 .7138672 .5359955 .7138672 .5299988 .7008667 .5299988 .69285586 .5299988 .68785098 .5379944 .65579226 .55400088 .6347656H.21699524C.19999695 .6347656 .18199158 .6347656 .18199158 .61476138 .18199158 .5947571 .19999695 .5947571 .21699524 .5947571H.5369873Z"/>
<path id="font_1_3" d="M.33399964 .30233766C.33999635 .32835389 .36299134 .42037965 .43299867 .42037965 .43798829 .42037965 .46199037 .42037965 .48298646 .40734864 .45498658 .402359 .43499757 .37734986 .43499757 .35334779 .43499757 .33735658 .44599916 .31835938 .47299195 .31835938 .49499513 .31835938 .5269928 .3363495 .5269928 .37635804 .5269928 .42837525 .46798707 .4423828 .43399049 .4423828 .37599183 .4423828 .34098817 .38935853 .32899476 .36634828 .3039856 .43237306 .25 .4423828 .22099304 .4423828 .116989139 .4423828 .05999756 .3133545 .05999756 .28834535 .05999756 .27833558 .069992069 .27833558 .07199097 .27833558 .07998657 .27833558 .08299255 .28033448 .084991458 .28933717 .11898804 .39535523 .18499756 .42037965 .21899414 .42037965 .23799134 .42037965 .272995 .4113617 .272995 .35334779 .272995 .32235719 .2559967 .25532533 .21899414 .11528015 .20298767 .053268434 .16799927 .011245728 .12399292 .011245728 .117996219 .011245728 .09498596 .011245728 .07398987 .024276734 .09899902 .029266358 .12098694 .05027771 .12098694 .07827759 .12098694 .105270389 .09899902 .11328125 .083999637 .11328125 .053985597 .11328125 .0289917 .08728027 .0289917 .055267335 .0289917 .009246826 .07899475-.0107421879 .12298584-.0107421879 .18899536-.0107421879 .22499085 .059280397 .22799683 .0652771 .23999024 .028274537 .27598573-.0107421879 .33599855-.0107421879 .43899537-.0107421879 .49598695 .118270877 .49598695 .14328003 .49598695 .1532898 .4869995 .1532898 .48399354 .1532898 .47499085 .1532898 .47299195 .14929199 .47099305 .14228821 .43798829 .03527832 .36999513 .011245728 .33799745 .011245728 .29899598 .011245728 .2829895 .043273927 .2829895 .07727051 .2829895 .09927368 .2889862 .121276859 .2999878 .16529846L.33399964 .30233766Z"/>
<path id="font_2_1" d="M.33499146 .63612368C.33499146 .6630554 .33299256 .6640625 .30499269 .6640625 .24099732 .6014404 .1499939 .6004486 .10899353 .6004486V.5644531C.1329956 .5644531 .19898987 .5644531 .2539978 .592453V.08203125C.2539978 .04899597 .2539978 .035995485 .1539917 .035995485H.115997318V0C.13398743 .0009918213 .25698854 .0039978029 .2939911 .0039978029 .32499696 .0039978029 .45098878 .0009918213 .47299195 0V.035995485H.43499757C.33499146 .035995485 .33499146 .04899597 .33499146 .08203125V.63612368Z"/>
<path id="font_3_1" d="M.68699648 .32714845C.70199587 .32714845 .72099307 .32714845 .72099307 .34713746 .72099307 .36714173 .70199587 .36714173 .6879883 .36714173H.08898926C.07499695 .36714173 .055999757 .36714173 .055999757 .34713746 .055999757 .32714845 .07499695 .32714845 .08999634 .32714845H.68699648M.6879883 .13284302C.70199587 .13284302 .72099307 .13284302 .72099307 .15284729 .72099307 .17285156 .70199587 .17285156 .68699648 .17285156H.08999634C.07499695 .17285156 .055999757 .17285156 .055999757 .15284729 .055999757 .13284302 .07499695 .13284302 .08898926 .13284302H.6879883Z"/>
<path id="font_1_2" d="M.46798707 .37236024C.46798707 .42637635 .44198609 .4423828 .42399598 .4423828 .39898683 .4423828 .375 .41636659 .375 .3943634 .375 .38136292 .37998963 .3753662 .3909912 .36434938 .4119873 .3443451 .4249878 .31834413 .4249878 .28233338 .4249878 .24032593 .3639984 .011245728 .24699402 .011245728 .19599915 .011245728 .17298889 .04626465 .17298889 .09828186 .17298889 .15429688 .19999695 .22731018 .23098755 .31033326 .23799134 .3273468 .24299622 .34135438 .24299622 .36035157 .24299622 .405365 .21099854 .4423828 .16099549 .4423828 .066986087 .4423828 .0289917 .29733277 .0289917 .28833009 .0289917 .27833558 .038986207 .27833558 .040985109 .27833558 .050994874 .27833558 .051986696 .28033448 .056991579 .29634095 .085998538 .39736939 .1289978 .42037965 .1579895 .42037965 .1659851 .42037965 .18299866 .42037965 .18299866 .3883667 .18299866 .36335755 .17298889 .3363495 .1659851 .31834413 .12199402 .20230103 .10899353 .15629578 .10899353 .11328125 .10899353 .0052490236 .19699097-.0107421879 .24299622-.0107421879 .41099549-.0107421879 .46798707 .32034303 .46798707 .37236024Z"/>
<path id="font_2_2" d="M.5049896 .18203736H.47099305C.46798707 .16001892 .45799256 .100997928 .44499208 .09098816 .43699647 .084991458 .3600006 .084991458 .34599305 .084991458H.1619873C.2669983 .17803955 .3019867 .20603943 .3619995 .25306703 .43598939 .312088 .5049896 .374115 .5049896 .46914674 .5049896 .5900879 .39898683 .6640625 .2709961 .6640625 .14698792 .6640625 .06298828 .57710269 .06298828 .4851532 .06298828 .43414308 .10598755 .42915345 .115997318 .42915345 .13999939 .42915345 .16899109 .44615174 .16899109 .48214723 .16899109 .5001526 .1619873 .53515627 .10998535 .53515627 .14099121 .6060791 .20899964 .62805178 .2559967 .62805178 .35598756 .62805178 .4079895 .5501404 .4079895 .46914674 .4079895 .38212586 .34599305 .3130951 .31399537 .27708436L.07299805 .038986207C.06298828 .02999878 .06298828 .027999878 .06298828 0H.47499085L.5049896 .18203736Z"/>
<path id="font_2_3" d="M.272995 .33428956C.35099793 .33428956 .40699769 .2803192 .40699769 .1733551 .40699769 .04940796 .33499146 .012466431 .2769928 .012466431 .23699951 .012466431 .14898682 .0234375 .10699463 .082351688 .1539917 .084350589 .16499329 .11735535 .16499329 .13835144 .16499329 .17034912 .14099121 .19335938 .10998535 .19335938 .08198547 .19335938 .053985597 .17634583 .053985597 .13534546 .053985597 .041412355 .1579895-.01953125 .2789917-.01953125 .41799928-.01953125 .5139923 .07336426 .5139923 .1733551 .5139923 .2513275 .44999696 .32929994 .33999635 .35229493 .44499208 .39024354 .48298646 .4650879 .48298646 .5260773 .48298646 .60505679 .3919983 .6640625 .2809906 .6640625 .16999817 .6640625 .084991458 .61006167 .084991458 .5300751 .084991458 .49606324 .10699463 .47706605 .13699341 .47706605 .16799927 .47706605 .18798828 .5000763 .18798828 .5280762 .18798828 .5570679 .16799927 .57806399 .13699341 .5800781 .17199707 .62405398 .24099732 .63505557 .27799989 .63505557 .32299806 .63505557 .38598634 .6130676 .38598634 .5260773 .38598634 .48406983 .37199403 .43814088 .34599305 .4072113 .31298829 .36927796 .2849884 .3672943 .23498535 .36428834 .20999146 .3623047 .20799256 .3623047 .20298767 .3612976 .20098877 .3612976 .19299317 .3592987 .19299317 .34829713 .19299317 .33428956 .20199585 .33428956 .21899414 .33428956H.272995Z"/>
<path id="font_4_84" d="M.5209961 .21636963C.5209961 .34336854 .42399598 .4423828 .31199647 .4423828 .23399353 .4423828 .19198609 .39837647 .17199707 .3763733V.4423828L.027999878 .43066407V.3996582C.09899902 .3996582 .10598755 .3936615 .10598755 .34973146V-.117996219C.10598755-.16308594 .09498596-.16308594 .027999878-.16308594V-.1940918L.13999939-.19110108 .25299073-.1940918V-.16308594C.18598938-.16308594 .1749878-.16308594 .1749878-.117996219V.050186159 .059173585C.17999268 .04319763 .22200012-.0107421879 .2979889-.0107421879 .4169922-.0107421879 .5209961 .087127689 .5209961 .21594239V.21636963M.43798829 .21594239C.43798829 .09512329 .36799623 .011245728 .2939911 .011245728 .2539978 .011245728 .21598816 .031219483 .18899536 .07215881 .1749878 .09312439 .1749878 .09411621 .1749878 .114089969V.33674623C.20399475 .38838197 .25299073 .41737367 .3039856 .41737367 .3769989 .41737367 .43798829 .32937623 .43798829 .21636963V.21594239Z"/>
<path id="font_4_96" d="M.3639984 .38137818C.3639984 .41337586 .33299256 .4423828 .2899933 .4423828 .21699524 .4423828 .18099976 .37538148 .16699219 .3323822V.4423828L.027999878 .43066407V.3996582C.09799194 .3996582 .10598755 .39266969 .10598755 .34370423V.07595825C.10598755 .0309906 .09498596 .0309906 .027999878 .0309906V0L.14199829 .0029907227C.18199158 .0029907227 .22898865 .0029907227 .2689972 0V.0309906H.24798584C.17399597 .0309906 .17199707 .04197693 .17199707 .07795715V.23181153C.17199707 .33137513 .21398926 .42037965 .2899933 .42037965 .29699708 .42037965 .29899598 .42037965 .30099488 .41937257 .2979889 .41838075 .27799989 .40637208 .27799989 .3803711 .27799989 .35237123 .29899598 .33737184 .32099916 .33737184 .33898927 .33737184 .3639984 .3493805 .3639984 .38137818Z"/>
<path id="font_4_81" d="M.47099305 .21424866C.47099305 .34223939 .37098695 .4482422 .25 .4482422 .125 .4482422 .027999878 .3392334 .027999878 .21424866 .027999878 .085250858 .13198853-.0107421879 .24899292-.0107421879 .36999513-.0107421879 .47099305 .087249759 .47099305 .21424866M.3880005 .22224427C.3880005 .18624878 .3880005 .13224793 .3659973 .08824158 .34399415 .04324341 .2999878 .014251709 .25 .014251709 .20698548 .014251709 .16299439 .035247804 .13598633 .08125305 .11099243 .12524414 .11099243 .18624878 .11099243 .22224427 .11099243 .26124574 .11099243 .31523133 .1349945 .35923768 .1619873 .40522767 .20899964 .426239 .24899292 .426239 .29299928 .426239 .33599855 .40423585 .3619995 .36123658 .3880005 .3182373 .3880005 .26023866 .3880005 .22224427Z"/>
<path id="font_4_68" d="M.20999146-.049972536V.4423828L.057998659 .43138124V.40037538C.1349945 .40037538 .14399719 .39337159 .14399719 .34432984V-.051971437C.14399719-.09700012 .1349945-.18309021 .070999149-.18309021 .06599426-.18309021 .042999269-.18309021 .016998291-.17001343 .03199768-.16600037 .051986696-.1519928 .051986696-.125 .051986696-.09899902 .033996583-.07899475 .005996704-.07899475-.022003174-.07899475-.040008546-.09899902-.040008546-.125-.040008546-.17704773 .015991211-.20507813 .07299805-.20507813 .147995-.20507813 .20999146-.14100647 .20999146-.049972536M.20999146 .6042175C.20999146 .6312256 .18699646 .65722659 .15699768 .65722659 .12298584 .65722659 .102996829 .6292114 .102996829 .6042175 .102996829 .57722476 .12599182 .55122378 .1559906 .55122378 .18998719 .55122378 .20999146 .57922366 .20999146 .6042175Z"/>
<path id="font_5_1" d="M1.0359955 .5647125 1.0540009 .590683C1.074997 .61764529 1.098999 .64260867 1.147995 .64660647 1.1589966 .6476135 1.17099 .64860537 1.17099 .6686096 1.17099 .6756134 1.1649933 .6826172 1.1569977 .6826172 1.1339874 .6826172 1.1049957 .6786041 1.0809937 .6786041 1.04599 .6786041 1.0029907 .6826172 .9700012 .6826172 .96499636 .6826172 .94898989 .6826172 .94898989 .660614 .94898989 .6476135 .96299746 .64660647 .96699526 .64660647 .9889984 .6456146 1.0219879 .6396179 1.0219879 .61164858 1.0219879 .60066226 1.0110016 .5826874 1.0069885 .57569888L.72499087 .11331177 .66999819 .61764529C.66999819 .6456146 .7279968 .64660647 .73999026 .64660647 .7529907 .64660647 .7669983 .64660647 .7669983 .6686096 .7669983 .6696167 .7659912 .6826172 .75 .6826172 .73098757 .6826172 .70700076 .680603 .6879883 .6796112 .66799929 .6786041 .6419983 .6786041 .621994 .6786041 .598999 .6786041 .5399933 .6826172 .5169983 .6826172 .5119934 .6826172 .49699403 .6826172 .49699403 .660614 .49699403 .64660647 .5099945 .64660647 .522995 .64660647 .56599429 .64660647 .57099917 .6396179 .57398989 .6296234 .57499697 .62364199 .57699587 .5956726 .58099368 .5647125L.30599977 .11331177 .25299073 .60266116C.25299073 .60665896 .25099183 .6166382 .25099183 .61764529 .25099183 .64660647 .31298829 .64660647 .32099916 .64660647 .33399964 .64660647 .34799195 .64660647 .34799195 .6686096 .34799195 .6726074 .34498597 .6826172 .33198548 .6826172 .30299378 .6826172 .23199463 .6786041 .20298767 .6786041 .16999817 .6786041 .12799073 .6826172 .09799194 .6826172 .08799744 .6826172 .07798767 .6786041 .07798767 .66160586 .07798767 .64660647 .08999634 .64660647 .10598755 .64660647 .15299988 .64660647 .15299988 .64060977 .1559906 .61564639L.22299195 .007446289C.22499085-.012542725 .22599793-.01953125 .24398804-.01953125 .26098634-.01953125 .2679901-.010543823 .27398683 .00045776368L.58599856 .5137787 .6409912 .006454468C.6429901-.014541626 .647995-.01953125 .6629944-.01953125 .6799927-.01953125 .6859894-.010543823 .69299319 .0014648438L1.0359955 .5647125Z"/>
<path id="font_6_2" d="M.58898928 .19296265H.5469971C.5439911 .17396546 .5339966 .11198425 .5179901 .101989749 .5099945 .09599304 .42599488 .09599304 .41099549 .09599304H.21499634C.2809906 .14497376 .35499574 .20095825 .4149933 .24093628 .5049896 .30291749 .58898928 .36090089 .58898928 .46687318 .58898928 .59495547 .46798707 .6660156 .32499696 .6660156 .18998719 .6660156 .09098816 .58795168 .09098816 .48986817 .09098816 .4378662 .1349945 .42886354 .14898682 .42886354 .17599488 .42886354 .20799256 .4468689 .20799256 .48786927 .20799256 .52386477 .18199158 .543869 .15098572 .546875 .1789856 .59194949 .23699951 .6220093 .3039856 .6220093 .40098573 .6220093 .48199464 .5639038 .48199464 .4658661 .48199464 .3818817 .42399598 .31791688 .34700013 .2529297L.102996829 .04598999C.09298706 .036987306 .09199524 .036987306 .09098816 .02999878V0H.55599978L.58898928 .19296265Z"/>
<path id="font_6_1" d="M.397995 .63591006C.397995 .6660156 .394989 .6660156 .3619995 .6660156 .29100038 .6016083 .17999268 .6016083 .1599884 .6016083H.14299011V.5576172H.1599884C.18299866 .5576172 .24798584 .5606079 .30599977 .58561709V.08596802C.30599977 .054977418 .30599977 .04399109 .19999695 .04399109H.1499939V0C.20498657 .0039978029 .2939911 .0039978029 .35198976 .0039978029 .4099884 .0039978029 .49899293 .0039978029 .55400088 0V.04399109H.5039978C.397995 .04399109 .397995 .054977418 .397995 .08596802V.63591006Z"/>
<path id="font_1_1" d="M.9169922 .5666046C.94200137 .61061099 .96598818 .64660647 1.0289917 .6516113 1.0379944 .65260317 1.0479889 .65260317 1.0479889 .6716156 1.0479889 .6756134 1.0439911 .6826172 1.0359955 .6826172 1.0119934 .6826172 .98399356 .6796112 .95899966 .6796112 .9249878 .6796112 .8880005 .6826172 .8549957 .6826172 .848999 .6826172 .83599856 .6826172 .83599856 .66360476 .83599856 .65260317 .8450012 .6516113 .8509979 .6516113 .875 .65060427 .9099884 .64260867 .9099884 .61260989 .9099884 .6016083 .9049988 .5935974 .8969879 .5796051L.6269989 .108551029 .58999636 .604599C.58898928 .6246033 .58699038 .65060427 .6599884 .6516113 .6769867 .6516113 .68699648 .6516113 .68699648 .6716156 .68699648 .6816101 .6759949 .6826172 .6719971 .6826172 .6319885 .6826172 .58999636 .6796112 .5499878 .6796112 .5269928 .6796112 .46798707 .6826172 .44499208 .6826172 .43899537 .6826172 .42599488 .6826172 .42599488 .6626129 .42599488 .6516113 .43598939 .6516113 .44999696 .6516113 .49398805 .6516113 .5009918 .6456146 .5029907 .6266022L.5089874 .54959109 .2559967 .108551029 .21798706 .6156006C.21798706 .62760928 .21798706 .65060427 .2939911 .6516113 .3039856 .6516113 .31498719 .6516113 .31498719 .6716156 .31498719 .6826172 .30299378 .6826172 .30099488 .6826172 .26098634 .6826172 .21899414 .6796112 .17799378 .6796112 .14299011 .6796112 .10699463 .6826172 .07299805 .6826172 .067993167 .6826172 .054992677 .6826172 .054992677 .66360476 .054992677 .6516113 .06399536 .6516113 .07998657 .6516113 .12998963 .6516113 .1309967 .64260867 .1329956 .61460879L.17799378 .0035247803C.1789856-.014465332 .17999268-.022460938 .19400025-.022460938 .20599365-.022460938 .20899964-.016464234 .21798706-.0014648438L.5119934 .5085907 .548996 .0035247803C.5509949-.017471314 .5529938-.022460938 .5649872-.022460938 .5779877-.022460938 .58399966-.012466431 .58898928-.0034637452L.9169922 .5666046Z"/>
</defs>
<path transform="matrix(1.00006,0,0,-1.00002,98.76945,86.371479)" d="M-87.23532-12.93198 43.05287-50.32402 207.0427 16.51598 76.75447 53.908Z" fill="#f2f2fa"/>
<path transform="matrix(1.00006,0,0,-1.00002,98.76945,86.371479)" stroke-width=".3985" stroke-linecap="butt" stroke-miterlimit="10" stroke-linejoin="miter" fill="none" stroke="#cccceb" d="M-87.23532-12.93198 43.05287-50.32402 207.0427 16.51598 76.75447 53.908Z"/>
<path transform="matrix(1.00006,0,0,-1.00002,98.76945,86.371479)" stroke-width="1.19553" stroke-linecap="butt" stroke-miterlimit="10" stroke-linejoin="miter" fill="none" stroke="#990000" d="M0 0 62.08775-17.81891"/>
<path transform="matrix(.96122768,.2758355,.27584655,-.96118929,160.86092,104.190738)" d="M3.18808 0-1.91284 2.55046 0 0-1.91284-2.55046" fill="#990000"/>
<use data-text="&#x20d7;" xlink:href="#font_1_4" transform="matrix(9.963197,0,0,-9.962799,147.41837,116.10607)" fill="#990000"/>
<use data-text="x" xlink:href="#font_1_3" transform="matrix(9.963197,0,0,-9.962799,147.55785,116.10607)" fill="#990000"/>
<use data-text="1" xlink:href="#font_2_1" transform="matrix(6.9742186,0,0,-6.97394,153.24571,117.601108)" fill="#990000"/>
<use data-text="=" xlink:href="#font_3_1" transform="matrix(9.963197,0,0,-9.962799,160.48314,116.10607)" fill="#990000"/>
<use data-text="&#x20d7;" xlink:href="#font_1_4" transform="matrix(9.963197,0,0,-9.962799,170.61275,116.10607)" fill="#990000"/>
<use data-text="v" xlink:href="#font_1_2" transform="matrix(9.963197,0,0,-9.962799,171.00131,116.10607)" fill="#990000"/>
<use data-text="1" xlink:href="#font_2_1" transform="matrix(6.9742186,0,0,-6.97394,175.82907,117.601108)" fill="#990000"/>
<path transform="matrix(1.00006,0,0,-1.00002,98.76945,86.371479)" stroke-width="1.19553" stroke-linecap="butt" stroke-miterlimit="10" stroke-linejoin="miter" fill="none" stroke="#990000" d="M0 0 100.51477 19.02551"/>
<path transform="matrix(.98256888,-.18597372,-.18598114,-.98252967,199.29024,67.3456)" d="M3.18808 0-1.91284 2.55046 0 0-1.91284-2.55046" fill="#990000"/>
<use data-text="&#x20d7;" xlink:href="#font_1_4" transform="matrix(9.963197,0,0,-9.962799,206.20789,69.56414)" fill="#990000"/>
<use data-text="x" xlink:href="#font_1_3" transform="matrix(9.963197,0,0,-9.962799,206.34737,69.56414)" fill="#990000"/>
<use data-text="2" xlink:href="#font_2_2" transform="matrix(6.9742186,0,0,-6.97394,212.03524,71.05917)" fill="#990000"/>
<path transform="matrix(1.00006,0,0,-1.00002,98.76945,86.371479)" stroke-width="1.19553" stroke-linecap="butt" stroke-miterlimit="10" stroke-linejoin="miter" fill="none" stroke="#990000" d="M0 0 86.65668 63.42513"/>
<path transform="matrix(.8069684,-.5906018,-.5906254,-.80693617,185.43132,22.945096)" d="M3.18808 0-1.91284 2.55046 0 0-1.91284-2.55046" fill="#990000"/>
<use data-text="&#x20d7;" xlink:href="#font_1_4" transform="matrix(9.963197,0,0,-9.962799,191.79003,23.874226)" fill="#990000"/>
<use data-text="x" xlink:href="#font_1_3" transform="matrix(9.963197,0,0,-9.962799,191.9295,23.874226)" fill="#990000"/>
<use data-text="3" xlink:href="#font_2_3" transform="matrix(6.9742186,0,0,-6.97394,197.61737,25.369259)" fill="#990000"/>
<path transform="matrix(1.00006,0,0,-1.00002,98.76945,86.371479)" stroke-width="1.19553" stroke-linecap="butt" stroke-miterlimit="10" stroke-linejoin="miter" fill="none" stroke="#000099" d="M0 0 68.11021 27.76085"/>
<path transform="matrix(.92606559,-.37741757,-.3774326,-.92602857,166.88373,58.61007)" d="M3.18808 0-1.91284 2.55046 0 0-1.91284-2.55046" fill="#000099"/>
<use data-text="&#x20d7;" xlink:href="#font_1_4" transform="matrix(9.963197,0,0,-9.962799,164.8004,51.99379)" fill="#000099"/>
<use data-text="v" xlink:href="#font_1_2" transform="matrix(9.963197,0,0,-9.962799,165.18897,51.99379)" fill="#000099"/>
<use data-text="2" xlink:href="#font_2_2" transform="matrix(6.9742186,0,0,-6.97394,170.01673,53.488824)" fill="#000099"/>
<path transform="matrix(1.00006,0,0,-1.00002,98.76945,86.371479)" stroke-width="1.19553" stroke-linecap="butt" stroke-miterlimit="10" stroke-linejoin="miter" fill="none" stroke="#000099" d="M0 0V68.73306"/>
<path transform="matrix(0,-1.00002,-1.00006,-0,98.76945,17.63704)" d="M3.18808 0-1.91284 2.55046 0 0-1.91284-2.55046" fill="#000099"/>
<use data-text="&#x20d7;" xlink:href="#font_1_4" transform="matrix(9.963197,0,0,-9.962799,93.73414,9.035927)" fill="#000099"/>
<use data-text="v" xlink:href="#font_1_2" transform="matrix(9.963197,0,0,-9.962799,94.1227,9.035927)" fill="#000099"/>
<use data-text="3" xlink:href="#font_2_3" transform="matrix(6.9742186,0,0,-6.97394,98.95046,10.53096)" fill="#000099"/>
<path transform="matrix(1.00006,0,0,-1.00002,98.76945,86.371479)" stroke-width=".79701" stroke-linecap="butt" stroke-miterlimit="10" stroke-linejoin="miter" fill="none" stroke="#000000" d="M0 0 86.64616-6.43025"/>
<path transform="matrix(.9972698,.07400148,.07400444,-.99723,185.4208,92.80184)" d="M2.59026 0-1.55415 2.0722 0 0-1.55415-2.0722"/>
<use data-text="p" xlink:href="#font_4_84" transform="matrix(9.963197,0,0,-9.962799,191.72303,95.307659)"/>
<use data-text="r" xlink:href="#font_4_96" transform="matrix(9.963197,0,0,-9.962799,197.26255,95.307659)"/>
<use data-text="o" xlink:href="#font_4_81" transform="matrix(9.963197,0,0,-9.962799,201.16812,95.307659)"/>
<use data-text="j" xlink:href="#font_4_68" transform="matrix(9.963197,0,0,-9.962799,206.42867,95.307659)"/>
<use data-text="W" xlink:href="#font_5_1" transform="matrix(6.9742186,0,0,-6.97394,209.47808,96.80269)"/>
<use data-text="2" xlink:href="#font_6_2" transform="matrix(4.9815986,0,0,-4.9813997,216.97153,97.798709)"/>
<use data-text="&#x20d7;" xlink:href="#font_1_4" transform="matrix(9.963197,0,0,-9.962799,221.2248,95.30766)"/>
<use data-text="x" xlink:href="#font_1_3" transform="matrix(9.963197,0,0,-9.962799,221.36426,95.30766)"/>
<use data-text="3" xlink:href="#font_2_3" transform="matrix(6.9742186,0,0,-6.97394,227.05213,96.8027)"/>
<path transform="matrix(1.00006,0,0,-1.00002,98.76945,86.371479)" stroke-width=".79701" stroke-linecap="butt" stroke-miterlimit="10" stroke-linejoin="miter" fill="none" stroke="#000000" d="M0 0 30.0863-8.63461"/>
<path transform="matrix(.9612376,.2758555,.27586655,-.9611992,128.85755,95.006259)" d="M2.59026 0-1.55415 2.0722 0 0-1.55415-2.0722"/>
<use data-text="p" xlink:href="#font_4_84" transform="matrix(9.963197,0,0,-9.962799,87.82979,106.55788)"/>
<use data-text="r" xlink:href="#font_4_96" transform="matrix(9.963197,0,0,-9.962799,93.36931,106.55788)"/>
<use data-text="o" xlink:href="#font_4_81" transform="matrix(9.963197,0,0,-9.962799,97.27489,106.55788)"/>
<use data-text="j" xlink:href="#font_4_68" transform="matrix(9.963197,0,0,-9.962799,102.53543,106.55788)"/>
<use data-text="W" xlink:href="#font_5_1" transform="matrix(6.9742186,0,0,-6.97394,105.58484,108.05292)"/>
<use data-text="1" xlink:href="#font_6_1" transform="matrix(4.9815986,0,0,-4.9813997,113.07829,109.048938)"/>
<use data-text="&#x20d7;" xlink:href="#font_1_4" transform="matrix(9.963197,0,0,-9.962799,117.33156,106.55789)"/>
<use data-text="x" xlink:href="#font_1_3" transform="matrix(9.963197,0,0,-9.962799,117.47102,106.55789)"/>
<use data-text="2" xlink:href="#font_2_2" transform="matrix(6.9742186,0,0,-6.97394,123.15889,108.05292)"/>
<path transform="matrix(1.00006,0,0,-1.00002,98.76945,86.371479)" stroke-width=".3985" stroke-linecap="butt" stroke-dasharray="2.98883,2.98883" stroke-miterlimit="10" stroke-linejoin="miter" fill="none" stroke="#000000" d="M89.22919-6.62193V65.30797"/>
<path transform="matrix(1.00006,0,0,-1.00002,98.76945,86.371479)" stroke-width=".3985" stroke-linecap="butt" stroke-dasharray="2.98883,2.98883" stroke-miterlimit="10" stroke-linejoin="miter" fill="none" stroke="#000000" d="M32.576-9.34912 103.6471 19.61841"/>
<path transform="matrix(1.00006,0,0,-1.00002,98.76945,86.371479)" stroke-width=".3985" stroke-linecap="butt" stroke-dasharray="2.98883,2.98883" stroke-miterlimit="10" stroke-linejoin="miter" fill="none" stroke="#000000" d="M-97.71616 28.044 130.28821-37.39203"/>
<use data-text="W" xlink:href="#font_1_1" transform="matrix(9.963197,0,0,-9.962799,222.12584,134.09244)"/>
<use data-text="1" xlink:href="#font_2_1" transform="matrix(6.9742186,0,0,-6.97394,231.5364,135.58747)"/>
<path transform="matrix(1.00006,0,0,-1.00002,98.76945,86.371479)" stroke-width=".3985" stroke-linecap="butt" stroke-miterlimit="10" stroke-linejoin="miter" fill="none" stroke="#000099" d="M-32.91098-24.726"/>
<use data-text="W" xlink:href="#font_1_1" transform="matrix(9.963197,0,0,-9.962799,58.917055,106.08387)" fill="#000099"/>
<use data-text="2" xlink:href="#font_2_2" transform="matrix(6.9742186,0,0,-6.97394,68.32762,107.5789)" fill="#000099"/>
</svg>
