<svg xmlns="http://www.w3.org/2000/svg" xmlns:xlink="http://www.w3.org/1999/xlink" xmlns:inkscape="http://www.inkscape.org/namespaces/inkscape" version="1.1" width="254" height="107" viewBox="0 0 254 107">
<defs>
<path id="font_1_4" d="M.5369873 .5947571C.522995 .5818329 .48999024 .55400088 .48999024 .5361023 .48999024 .5261078 .5 .516098 .5099945 .516098 .5189972 .516098 .5239868 .5231018 .5289917 .5290985 .54100039 .5440674 .56399539 .5718994 .60798647 .59376528 .61499026 .59776309 .625 .6027527 .625 .61476138 .625 .62475588 .6179962 .62976077 .61099246 .6347656 .58898928 .6497803 .5779877 .66781619 .56999209 .69184878 .56799319 .7008667 .56399539 .7138672 .5499878 .7138672 .5359955 .7138672 .5299988 .7008667 .5299988 .69285586 .5299988 .68785098 .5379944 .65579226 .55400088 .6347656H.21699524C.19999695 .6347656 .18199158 .6347656 .18199158 .61476138 .18199158 .5947571 .19999695 .5947571 .21699524 .5947571H.5369873Z"/>
<path id="font_1_2" d="M.23899842 .68333438C.23899842 .6843262 .23899842 .69433596 .22599793 .69433596 .20298767 .69433596 .12998963 .6863251 .10398865 .6843262 .09599304 .68333438 .084991458 .6823273 .084991458 .6643219 .084991458 .6523285 .09399414 .6523285 .10899353 .6523285 .15699768 .6523285 .15899658 .6453247 .15899658 .6353302 .15899658 .6283264 .1499939 .5943451 .14498902 .573349L.06298828 .24731446C.050994874 .1973114 .04699707 .18130493 .04699707 .14628601 .04699707 .05126953 .099990848-.0107421879 .17399597-.0107421879 .2919922-.0107421879 .4149933 .1382904 .4149933 .28233338 .4149933 .37335206 .3619995 .4423828 .28199769 .4423828 .23599243 .4423828 .19499207 .41337586 .16499329 .38235475L.23899842 .68333438M.14498902 .30534364C.15098572 .3273468 .15098572 .3293457 .1599884 .3403473 .20899964 .405365 .2539978 .42037965 .27999879 .42037965 .31599427 .42037965 .34298707 .3903656 .34298707 .32633973 .34298707 .26733399 .30999757 .15229798 .2919922 .11428833 .25898744 .04725647 .21299744 .011245728 .17399597 .011245728 .13999939 .011245728 .10699463 .038253786 .10699463 .11227417 .10699463 .13128662 .10699463 .15029907 .12298584 .21331787L.14498902 .30534364Z"/>
<path id="font_1_1" d="M.1789856 .114868167C.13899231 .047973634 .099990848 .033981325 .055999757 .0309906 .04399109 .02999878 .034988405 .02999878 .034988405 .010986328 .034988405 .004989624 .039993287 0 .04798889 0 .07499695 0 .10598755 .0029907227 .13398743 .0029907227 .16699219 .0029907227 .20199585 0 .23399353 0 .23999024 0 .25299073 0 .25299073 .018997193 .25299073 .02999878 .24398804 .0309906 .23699951 .0309906 .21398926 .032989503 .18998719 .04096985 .18998719 .06593323 .18998719 .077926639 .19599915 .088897708 .20399475 .102890018L.27999879 .23068238H.5309906C.5329895 .2097168 .5469971 .07392883 .5469971 .063949588 .5469971 .033981325 .49499513 .0309906 .47499085 .0309906 .46099855 .0309906 .45098878 .0309906 .45098878 .010986328 .45098878 0 .46299745 0 .46499635 0 .5059967 0 .548996 .0029907227 .58999636 .0029907227 .61499026 .0029907227 .6779938 0 .7029877 0 .70899966 0 .72099307 0 .72099307 .019989014 .72099307 .0309906 .71099856 .0309906 .69799807 .0309906 .6359863 .0309906 .6359863 .037979127 .6329956 .06694031L.57199099 .691803C.56999209 .71180728 .56999209 .7158203 .5529938 .7158203 .5369873 .7158203 .5329895 .7088165 .5269928 .69880679L.1789856 .114868167M.29899598 .26168824 .49598695 .5917816 .5279999 .26168824H.29899598Z"/>
<path id="font_2_1" d="M.2769928 .6851349 .548996 .56199648 .5609894 .58399966 .27799989 .7441406-.005004883 .58399966 .005996704 .56199648 .2769928 .6851349Z"/>
<path id="font_1_3" d="M.33399964 .30233766C.33999635 .32835389 .36299134 .42037965 .43299867 .42037965 .43798829 .42037965 .46199037 .42037965 .48298646 .40734864 .45498658 .402359 .43499757 .37734986 .43499757 .35334779 .43499757 .33735658 .44599916 .31835938 .47299195 .31835938 .49499513 .31835938 .5269928 .3363495 .5269928 .37635804 .5269928 .42837525 .46798707 .4423828 .43399049 .4423828 .37599183 .4423828 .34098817 .38935853 .32899476 .36634828 .3039856 .43237306 .25 .4423828 .22099304 .4423828 .116989139 .4423828 .05999756 .3133545 .05999756 .28834535 .05999756 .27833558 .069992069 .27833558 .07199097 .27833558 .07998657 .27833558 .08299255 .28033448 .084991458 .28933717 .11898804 .39535523 .18499756 .42037965 .21899414 .42037965 .23799134 .42037965 .272995 .4113617 .272995 .35334779 .272995 .32235719 .2559967 .25532533 .21899414 .11528015 .20298767 .053268434 .16799927 .011245728 .12399292 .011245728 .117996219 .011245728 .09498596 .011245728 .07398987 .024276734 .09899902 .029266358 .12098694 .05027771 .12098694 .07827759 .12098694 .105270389 .09899902 .11328125 .083999637 .11328125 .053985597 .11328125 .0289917 .08728027 .0289917 .055267335 .0289917 .009246826 .07899475-.0107421879 .12298584-.0107421879 .18899536-.0107421879 .22499085 .059280397 .22799683 .0652771 .23999024 .028274537 .27598573-.0107421879 .33599855-.0107421879 .43899537-.0107421879 .49598695 .118270877 .49598695 .14328003 .49598695 .1532898 .4869995 .1532898 .48399354 .1532898 .47499085 .1532898 .47299195 .14929199 .47099305 .14228821 .43798829 .03527832 .36999513 .011245728 .33799745 .011245728 .29899598 .011245728 .2829895 .043273927 .2829895 .07727051 .2829895 .09927368 .2889862 .121276859 .2999878 .16529846L.33399964 .30233766Z"/>
<path id="font_3_42" d="M.6649933 .23271179C.6649933 .24272156 .6649933 .24972534 .6519928 .24972534 .6409912 .24972534 .6409912 .24372864 .6399994 .23371887 .6319885 .09059143 .5249939 .008529663 .41600038 .008529663 .35499574 .008529663 .15899658 .042556764 .15899658 .34080506 .15899658 .64004519 .35398866 .67407229 .4149933 .67407229 .5239868 .67407229 .61299136 .58299258 .6329956 .4368744 .6349945 .42286683 .6349945 .41986085 .6489868 .41986085 .6649933 .41986085 .6649933 .42286683 .6649933 .44387818V.68107607C.6649933 .69807437 .6649933 .7050781 .6539917 .7050781 .6499939 .7050781 .6459961 .7050781 .6380005 .69306948L.58799746 .61901858C.5509949 .6550598 .5 .7050781 .4039917 .7050781 .21699524 .7050781 .055999757 .5459595 .055999757 .34179688 .055999757 .1346283 .21798706-.022460938 .4039917-.022460938 .5669861-.022460938 .6649933 .116622928 .6649933 .23271179Z"/>
<path id="font_3_81" d="M.47099305 .21424866C.47099305 .34223939 .37098695 .4482422 .25 .4482422 .125 .4482422 .027999878 .3392334 .027999878 .21424866 .027999878 .085250858 .13198853-.0107421879 .24899292-.0107421879 .36999513-.0107421879 .47099305 .087249759 .47099305 .21424866M.3880005 .22224427C.3880005 .18624878 .3880005 .13224793 .3659973 .08824158 .34399415 .04324341 .2999878 .014251709 .25 .014251709 .20698548 .014251709 .16299439 .035247804 .13598633 .08125305 .11099243 .12524414 .11099243 .18624878 .11099243 .22224427 .11099243 .26124574 .11099243 .31523133 .1349945 .35923768 .1619873 .40522767 .20899964 .426239 .24899292 .426239 .29299928 .426239 .33599855 .40423585 .3619995 .36123658 .3880005 .3182373 .3880005 .26023866 .3880005 .22224427Z"/>
<path id="font_3_72" d="M.25498963 0V.0309906C.18798828 .0309906 .1769867 .0309906 .1769867 .07601929V.69433596L.032989503 .6826172V.6516113C.102996829 .6516113 .11099243 .64460757 .11099243 .5956421V.07595825C.11099243 .0309906 .099990848 .0309906 .032989503 .0309906V0L.14399719 .0029907227 .25498963 0Z"/>
<path id="font_4_1" d="M.33099366-.2400055C.33099366-.23701477 .33099366-.23500061 .31399537-.21800232 .18899536-.0920105 .15699768 .09700012 .15699768 .25 .15699768 .42399598 .19499207 .59799197 .31799317 .72299197 .33099366 .73498538 .33099366 .7369995 .33099366 .73999026 .33099366 .746994 .32699586 .75 .32099916 .75 .31098939 .75 .22099304 .6819916 .1619873 .5549927 .11099243 .44499208 .09899902 .33399964 .09899902 .25 .09899902 .17199707 .10998535 .050994874 .16499329-.06201172 .22499085-.18501282 .31098939-.25 .32099916-.25 .32699586-.25 .33099366-.24700928 .33099366-.2400055Z"/>
<path id="font_4_2" d="M.2889862 .25C.2889862 .32798768 .27799989 .44898988 .22299195 .56199648 .16299439 .68499758 .07699585 .75 .066986087 .75 .06098938 .75 .056991579 .74598696 .056991579 .73999026 .056991579 .7369995 .056991579 .73498538 .07598877 .71699526 .17399597 .6179962 .23098755 .45899964 .23098755 .25 .23098755 .07899475 .19400025-.09700012 .069992069-.2230072 .056991579-.23500061 .056991579-.23701477 .056991579-.2400055 .056991579-.2460022 .06098938-.25 .066986087-.25 .07699585-.25 .16699219-.18200684 .22599793-.055007936 .2769928 .054992677 .2889862 .16600037 .2889862 .25Z"/>
</defs>
<path transform="matrix(1.00008,0,0,-1,89.254428,74.571)" d="M-87.1984-11.2072 104.59055-30.44713 162.7624 13.60413-29.02652 32.84406Z" fill="#ebebf7"/>
<path transform="matrix(1.00008,0,0,-1,89.254428,74.571)" stroke-width=".3985" stroke-linecap="butt" stroke-miterlimit="10" stroke-linejoin="miter" fill="none" stroke="#9999d6" d="M-87.1984-11.2072 104.59055-30.44713 162.7624 13.60413-29.02652 32.84406Z"/>
<path transform="matrix(1.00008,0,0,-1,89.254428,74.571)" stroke-width="1.19553" stroke-linecap="butt" stroke-miterlimit="10" stroke-linejoin="miter" fill="none" stroke="#000099" d="M0 0 61.58955 56.82413"/>
<path transform="matrix(.7349788,-.67807,-.67812427,-.73492,150.84889,17.746891)" d="M3.18808 0-1.91284 2.55046 0 0-1.91284-2.55046" fill="#000099"/>
<use data-text="&#x20d7;" xlink:href="#font_1_4" transform="matrix(9.963397,0,0,-9.9626,149.93527,9.038002)" fill="#000099"/>
<use data-text="b" xlink:href="#font_1_2" transform="matrix(9.963397,0,0,-9.9626,151.05437,11.667004)" fill="#000099"/>
<path transform="matrix(1.00008,0,0,-1,89.254428,74.571)" stroke-width="1.19553" stroke-linecap="butt" stroke-miterlimit="10" stroke-linejoin="miter" fill="none" stroke="#000000" d="M0 0 60.76053-6.09547"/>
<path transform="matrix(.9950396,.09978,.09978798,-.99496,150.0198,80.66646)" d="M3.18808 0-1.91284 2.55046 0 0-1.91284-2.55046"/>
<use data-text="A" xlink:href="#font_1_1" transform="matrix(9.963397,0,0,-9.9626,146.60901,92.098)"/>
<use data-text="&#xfffd;" xlink:href="#font_2_1" transform="matrix(9.963397,0,0,-9.9626,154.43764,92.098)"/>
<use data-text="x" xlink:href="#font_1_3" transform="matrix(9.963397,0,0,-9.9626,154.0816,92.098)"/>
<path transform="matrix(1.00008,0,0,-1,89.254428,74.571)" stroke-width="1.19553" stroke-linecap="butt" stroke-miterlimit="10" stroke-linejoin="miter" fill="none" stroke="#990000" d="M0 0 103.81349 14.76265"/>
<path transform="matrix(.9900792,-.14078,-.14079127,-.99,193.07622,59.80837)" d="M3.18808 0-1.91284 2.55046 0 0-1.91284-2.55046" fill="#990000"/>
<use data-text="A" xlink:href="#font_1_1" transform="matrix(9.963397,0,0,-9.9626,189.64945,70.395999)" fill="#990000"/>
<use data-text="&#x20d7;" xlink:href="#font_1_4" transform="matrix(9.963397,0,0,-9.9626,196.99246,70.395999)" fill="#990000"/>
<use data-text="x" xlink:href="#font_1_3" transform="matrix(9.963397,0,0,-9.9626,197.12198,70.395999)" fill="#990000"/>
<path transform="matrix(1.00008,0,0,-1,89.254428,74.571)" stroke-width=".3985" stroke-linecap="butt" stroke-dasharray="2.98883,2.98883" stroke-miterlimit="10" stroke-linejoin="miter" fill="none" stroke="#000000" d="M63.93256 58.98586V-6.41356"/>
<path transform="matrix(1.00008,0,0,-1,89.254428,74.571)" stroke-width=".3985" stroke-linecap="butt" stroke-dasharray="2.98883,2.98883" stroke-miterlimit="10" stroke-linejoin="miter" fill="none" stroke="#990000" d="M63.93256 58.98586 106.96971 15.21146"/>
<path transform="matrix(1.00008,0,0,-1,89.254428,74.571)" stroke-width=".3985" stroke-linecap="butt" stroke-miterlimit="10" stroke-linejoin="miter" fill="none" stroke="#000000" d="M54.34056 4.35771 63.92963 3.39572"/>
<path transform="matrix(1.00008,0,0,-1,89.254428,74.571)" stroke-width=".3985" stroke-linecap="butt" stroke-miterlimit="10" stroke-linejoin="miter" fill="none" stroke="#000000" d="M54.34056 4.35771V-5.4513"/>
<path transform="matrix(1.00008,0,0,-1,89.254428,74.571)" stroke-width=".3985" stroke-linecap="butt" stroke-miterlimit="10" stroke-linejoin="miter" fill="none" stroke="#000000" d="M-42.44974-15.69722"/>
<use data-text="C" xlink:href="#font_3_42" transform="matrix(9.963397,0,0,-9.9626,31.71782,84.257999)"/>
<use data-text="o" xlink:href="#font_3_81" transform="matrix(9.963397,0,0,-9.9626,38.911394,84.257999)"/>
<use data-text="l" xlink:href="#font_3_72" transform="matrix(9.963397,0,0,-9.9626,43.89308,84.257999)"/>
<use data-text="(" xlink:href="#font_4_1" transform="matrix(9.963397,0,0,-9.9626,46.66301,84.257999)"/>
<use data-text="A" xlink:href="#font_1_1" transform="matrix(9.963397,0,0,-9.9626,50.537324,84.257999)"/>
<use data-text=")" xlink:href="#font_4_2" transform="matrix(9.963397,0,0,-9.9626,58.00992,84.257999)"/>
</svg>
