<svg xmlns="http://www.w3.org/2000/svg" xmlns:xlink="http://www.w3.org/1999/xlink" xmlns:inkscape="http://www.inkscape.org/namespaces/inkscape" version="1.1" width="113" height="66" viewBox="0 0 113 66">
<defs>
<path id="font_1_27" d="M.6899872 .027053833C.6899872 .032058717 .6899872 .034057619 .68499758 .047088624L.47399903 .6513214C.45899964 .69433596 .42999269 .69433596 .4099884 .69433596H.32199098C.3019867 .69433596 .272995 .69433596 .2579956 .6513214L.04699707 .047088624C.041992189 .034057619 .041992189 .032058717 .041992189 .027053833 .041992189 0 .066986087 0 .08099365 0H.116989139C.1349945 0 .1659851 0 .17999268 .04006958L.21899414 .1512909H.49598695L.5299988 .055099489C.5419922 .02003479 .548996 0 .5970001 0H.651001C.6649933 0 .6899872 0 .6899872 .027053833M.46598817 .23730469H.24899292L.32099916 .4493103C.33599855 .49331666 .34899903 .53131106 .35699464 .5673218H.35798646C.36299134 .5433197 .36299134 .5413208 .37098695 .51831057L.46598817 .23730469Z"/>
<path id="font_1_34" d="M.67099 .19406128C.67099 .3351593 .5319977 .35716249 .49499513 .36317445 .58699038 .3841858 .6399994 .43621827 .6399994 .51426699 .6399994 .69433596 .4269867 .69433596 .3849945 .69433596H.13899231C.102996829 .69433596 .09098816 .68333438 .09098816 .6463318V.04798889C.09098816 .011993408 .101989749 0 .13899231 0H.41299439C.4869995 .00018310547 .67099 .013183594 .67099 .19418335V.19406128M.5039978 .511261C.5039978 .39718629 .37298585 .39718629 .34799195 .39718629H.23199463V.60832217H.34899903C.3880005 .6081848 .5039978 .6051941 .5039978 .5111847V.511261M.5319977 .19607544C.5319977 .09300232 .4249878 .085998538 .3769989 .085998538H.23199463V.3251953H.35798646C.3929901 .32499696 .5319977 .32499696 .5319977 .19599915V.19607544Z"/>
<path id="font_2_121" d="M.47200013 .324646C.47200013 .419693 .46499635 .50772097 .41799928 .5867615 .3849945 .6417694 .32299806 .67578127 .25698854 .67578127 .20698548 .67578127 .13598633 .6567688 .09098816 .5787506 .04399109 .49972535 .040985109 .39367677 .040985109 .324646 .040985109 .2746277 .040985109 .1605835 .085998538 .07954407 .13598633-.008468628 .21199036-.022460938 .2559967-.022460938 .31399537-.022460938 .38598634 .0015258789 .42900086 .08454895 .46699525 .15757752 .47200013 .24461365 .47200013 .324646M.3889923 .33665467C.3889923 .26863099 .3889923 .19960022 .3659973 .13456726 .34298707 .0655365 .29599 .042526246 .25698854 .042526246 .12399292 .042526246 .12399292 .24261475 .12399292 .33665467 .12399292 .39968873 .12399292 .45069886 .13899231 .5027313 .1579895 .5717468 .19898987 .6107788 .2559967 .6107788 .3889923 .6107788 .3889923 .4296875 .3889923 .33665467Z"/>
<path id="font_2_88" d="M.18499756 0V.085998538H.09899902V0H.18499756Z"/>
<path id="font_2_107" d="M.46199037 0V.07499695H.27398683C.2619934 .07499695 .25 .07398987 .23799134 .07398987H.12799073L.2919922 .22293091C.39698792 .30889894 .46199037 .36286927 .46199037 .45983888 .46199037 .5747833 .3789978 .67578127 .24299622 .67578127 .13699341 .67578127 .07398987 .6147766 .042999269 .5158081L.08898926 .45783998C.114990238 .5747833 .16699219 .6077728 .22898865 .6077728 .31799317 .6077728 .37399293 .5397949 .37399293 .45783998 .37399293 .36686708 .30999757 .30889894 .23599243 .24291992L.050994874 .067993167V0H.46199037Z"/>
<path id="font_2_51" d="M.46998597 .18099976C.46998597 .24398804 .43199159 .31698609 .32998658 .35398866 .3929901 .37199403 .45599366 .42599488 .45599366 .5009918 .45599366 .59277346 .36999513 .67578127 .25698854 .67578127 .13999939 .67578127 .056991579 .59077456 .056991579 .5007782 .056991579 .425766 .11999512 .3717804 .18299866 .35377503 .07699585 .31576539 .042999269 .23977661 .042999269 .18077088 .042999269 .07055664 .13798523-.022460938 .2559967-.022460938 .37799073-.022460938 .46998597 .07255554 .46998597 .18063355V.18099976M.38198854 .49975587C.38198854 .43774415 .33898927 .3857422 .2559967 .3857422 .17799378 .3857422 .1309967 .43374635 .1309967 .49975587 .1309967 .5667572 .1789856 .61376956 .2559967 .61376956 .33799745 .61376956 .38198854 .5637665 .38198854 .49975587M.38398744 .18063355C.38398744 .087524417 .32299806 .042526246 .25698854 .042526246 .18598938 .042526246 .1289978 .090530399 .1289978 .18052674 .1289978 .287735 .20498657 .32073976 .2559967 .32073976 .31298829 .32073976 .38398744 .28373719 .38398744 .18074036V.18063355Z"/>
<path id="font_2_106" d="M.46998597 .18063355C.46998597 .25968934 .4119873 .32572938 .32998658 .35273744 .3999939 .3887329 .44198609 .4537506 .44198609 .52275088 .44198609 .60876467 .35699464 .67578127 .2539978 .67578127 .16999817 .67578127 .09899902 .6327667 .056991579 .5697632L.09599304 .51275637C.13999939 .5997772 .21598816 .61376956 .25299073 .61376956 .3039856 .61376956 .35398866 .58576968 .35398866 .52275088 .35398866 .4857483 .33299256 .3997345 .22499085 .38974 .20599365 .3877411 .18998719 .386734 .17098999 .3857422V.32073976H.24598694C.34298707 .32073976 .37399293 .24168396 .37399293 .18164063 .37399293 .10256958 .32699586 .042526246 .25099183 .042526246 .16899109 .042526246 .09298706 .08757019 .054992677 .14160156 .04699707 .10157776 .04699707 .09957886 .042999269 .077560428 .09199524 .01852417 .16799927-.022460938 .25299073-.022460938 .3789978-.022460938 .46998597 .07556152 .46998597 .18063355Z"/>
<path id="font_2_100" d="M.46998597 .58529666V.6542969H.042999269V.57928469H.23899842C.25099183 .57928469 .2630005 .58029177 .2749939 .58029177H.397995C.24198914 .41627503 .15499878 .215271 .15499878-.0107421879H.24499512C.24499512 .24726868 .35499574 .45828248 .46998597 .58529666Z"/>
</defs>
<path transform="matrix(1.00002,0,0,-1.00009,14.229912,38.241273)" d="M11.93512 0C11.93512 6.59166 6.59166 11.93512 0 11.93512-6.59166 11.93512-11.93512 6.59166-11.93512 0-11.93512-6.59166-6.59166-11.93512 0-11.93512 6.59166-11.93512 11.93512-6.59166 11.93512 0ZM0 0" fill="#ccccff"/>
<path transform="matrix(1.00002,0,0,-1.00009,14.229912,38.241273)" stroke-width=".79701" stroke-linecap="butt" stroke-miterlimit="10" stroke-linejoin="miter" fill="none" stroke="#000000" d="M11.93512 0C11.93512 6.59166 6.59166 11.93512 0 11.93512-6.59166 11.93512-11.93512 6.59166-11.93512 0-11.93512-6.59166-6.59166-11.93512 0-11.93512 6.59166-11.93512 11.93512-6.59166 11.93512 0ZM0 0"/>
<use data-text="A" xlink:href="#font_1_27" transform="matrix(14.346487,0,0,-14.347491,8.971809,43.21972)"/>
<path transform="matrix(1.00002,0,0,-1.00009,14.229912,38.241273)" d="M96.97559 0C96.97559 6.59166 91.63213 11.93512 85.04045 11.93512 78.44878 11.93512 73.10532 6.59166 73.10532 0 73.10532-6.59166 78.44878-11.93512 85.04045-11.93512 91.63213-11.93512 96.97559-6.59166 96.97559 0ZM85.04045 0" fill="#ccccff"/>
<path transform="matrix(1.00002,0,0,-1.00009,14.229912,38.241273)" stroke-width=".79701" stroke-linecap="butt" stroke-miterlimit="10" stroke-linejoin="miter" fill="none" stroke="#000000" d="M96.97559 0C96.97559 6.59166 91.63213 11.93512 85.04045 11.93512 78.44878 11.93512 73.10532 6.59166 73.10532 0 73.10532-6.59166 78.44878-11.93512 85.04045-11.93512 91.63213-11.93512 96.97559-6.59166 96.97559 0ZM85.04045 0"/>
<use data-text="B" xlink:href="#font_1_34" transform="matrix(14.346487,0,0,-14.347491,94.0145,43.21972)"/>
<path transform="matrix(1.00002,0,0,-1.00009,14.229912,38.241273)" stroke-width=".79701" stroke-linecap="butt" stroke-miterlimit="10" stroke-linejoin="miter" fill="none" stroke="#000000" d="M10.68108-6.16661C32.18686-18.58295 52.85359-18.58295 72.25421-7.38202"/>
<path transform="matrix(.86602738,-.500025,-.49999003,-.866088,86.485569,45.623968)" d="M1.0361 0C-.25902 .25902-1.55415 .77707-3.1083 1.68365-1.55415 .51805-1.55415-.51805-3.1083-1.68365-1.55415-.77707-.25902-.25902 1.0361 0Z"/>
<path transform="matrix(.86602738,-.500025,-.49999003,-.866088,86.485569,45.623968)" stroke-width=".79701" stroke-linecap="butt" stroke-linejoin="round" fill="none" stroke="#000000" d="M1.0361 0C-.25902 .25902-1.55415 .77707-3.1083 1.68365-1.55415 .51805-1.55415-.51805-3.1083-1.68365-1.55415-.77707-.25902-.25902 1.0361 0Z"/>
<use data-text="0" xlink:href="#font_2_121" transform="matrix(8.966579,0,0,-8.967207,50.859647,63.50255)"/>
<use data-text="." xlink:href="#font_2_88" transform="matrix(8.966579,0,0,-8.967207,55.468465,63.50255)"/>
<use data-text="2" xlink:href="#font_2_107" transform="matrix(8.966579,0,0,-8.967207,58.03291,63.50255)"/>
<path transform="matrix(1.00002,0,0,-1.00009,14.229912,38.241273)" stroke-width=".79701" stroke-linecap="butt" stroke-miterlimit="10" stroke-linejoin="miter" fill="none" stroke="#000000" d="M-3.1918 11.91339C-8.3461 31.14935 8.3461 31.14935 3.82088 14.26144"/>
<path transform="matrix(-.25879518,.96601697,.96594938,.2588133,18.050879,23.978549)" d="M1.0361 0C-.25902 .25902-1.55415 .77707-3.1083 1.68365-1.55415 .51805-1.55415-.51805-3.1083-1.68365-1.55415-.77707-.25902-.25902 1.0361 0Z"/>
<path transform="matrix(-.25879518,.96601697,.96594938,.2588133,18.050879,23.978549)" stroke-width=".79701" stroke-linecap="butt" stroke-linejoin="round" fill="none" stroke="#000000" d="M1.0361 0C-.25902 .25902-1.55415 .77707-3.1083 1.68365-1.55415 .51805-1.55415-.51805-3.1083-1.68365-1.55415-.77707-.25902-.25902 1.0361 0Z"/>
<use data-text="0" xlink:href="#font_2_121" transform="matrix(8.966579,0,0,-8.967207,8.338791,7.9815485)"/>
<use data-text="." xlink:href="#font_2_88" transform="matrix(8.966579,0,0,-8.967207,12.947609,7.9815485)"/>
<use data-text="8" xlink:href="#font_2_51" transform="matrix(8.966579,0,0,-8.967207,15.512054,7.9815485)"/>
<path transform="matrix(1.00002,0,0,-1.00009,14.229912,38.241273)" stroke-width=".79701" stroke-linecap="butt" stroke-miterlimit="10" stroke-linejoin="miter" fill="none" stroke="#000000" d="M72.70682 0H14.76451"/>
<path transform="matrix(-1.00002,-0,0,1.00009,28.994717,38.241273)" d="M1.0361 0C-.25902 .25902-1.55415 .77707-3.1083 1.68365-1.55415 .51805-1.55415-.51805-3.1083-1.68365-1.55415-.77707-.25902-.25902 1.0361 0Z"/>
<path transform="matrix(-1.00002,-0,0,1.00009,28.994717,38.241273)" stroke-width=".79701" stroke-linecap="butt" stroke-linejoin="round" fill="none" stroke="#000000" d="M1.0361 0C-.25902 .25902-1.55415 .77707-3.1083 1.68365-1.55415 .51805-1.55415-.51805-3.1083-1.68365-1.55415-.77707-.25902-.25902 1.0361 0Z"/>
<use data-text="0" xlink:href="#font_2_121" transform="matrix(8.966579,0,0,-8.967207,50.859647,34.32492)"/>
<use data-text="." xlink:href="#font_2_88" transform="matrix(8.966579,0,0,-8.967207,55.468465,34.32492)"/>
<use data-text="3" xlink:href="#font_2_106" transform="matrix(8.966579,0,0,-8.967207,58.03291,34.32492)"/>
<path transform="matrix(1.00002,0,0,-1.00009,14.229912,38.241273)" stroke-width=".79701" stroke-linecap="butt" stroke-miterlimit="10" stroke-linejoin="miter" fill="none" stroke="#000000" d="M81.84865 11.91339C76.69434 31.14935 93.38657 31.14935 88.86133 14.26144"/>
<path transform="matrix(-.25879518,.96601697,.96594938,.2588133,103.09303,23.978549)" d="M1.0361 0C-.25902 .25902-1.55415 .77707-3.1083 1.68365-1.55415 .51805-1.55415-.51805-3.1083-1.68365-1.55415-.77707-.25902-.25902 1.0361 0Z"/>
<path transform="matrix(-.25879518,.96601697,.96594938,.2588133,103.09303,23.978549)" stroke-width=".79701" stroke-linecap="butt" stroke-linejoin="round" fill="none" stroke="#000000" d="M1.0361 0C-.25902 .25902-1.55415 .77707-3.1083 1.68365-1.55415 .51805-1.55415-.51805-3.1083-1.68365-1.55415-.77707-.25902-.25902 1.0361 0Z"/>
<use data-text="0" xlink:href="#font_2_121" transform="matrix(8.966579,0,0,-8.967207,93.3805,7.9815485)"/>
<use data-text="." xlink:href="#font_2_88" transform="matrix(8.966579,0,0,-8.967207,97.98932,7.9815485)"/>
<use data-text="7" xlink:href="#font_2_100" transform="matrix(8.966579,0,0,-8.967207,100.553768,7.9815485)"/>
</svg>
