<svg xmlns="http://www.w3.org/2000/svg" xmlns:xlink="http://www.w3.org/1999/xlink" xmlns:inkscape="http://www.inkscape.org/namespaces/inkscape" version="1.1" width="179" height="73" viewBox="0 0 179 73">
<defs>
<path id="font_1_97" d="M.49899293 .18579102C.49899293 .2858429 .43299867 .36791993 .34899903 .38793946L.22099304 .4189453C.15899658 .43388368 .11999512 .48773194 .11999512 .5458069 .11999512 .61595156 .17399597 .677063 .2519989 .677063 .4189911 .677063 .44099427 .5127411 .44699098 .46777345 .44799806 .461792 .44799806 .45581056 .45899964 .45581056 .47200013 .45581056 .47200013 .46080018 .47200013 .47973634V.68107607C.47200013 .69807437 .47200013 .7050781 .46099855 .7050781 .45399476 .7050781 .45298768 .70407107 .44599916 .69207766L.41099549 .63497927C.3809967 .66404727 .33999635 .7050781 .25099183 .7050781 .13999939 .7050781 .055999757 .61694338 .055999757 .5107422 .055999757 .42790223 .10899353 .35490418 .18699646 .32788087 .19799805 .32388307 .24899292 .3118744 .31900025 .29486085 .34599305 .28785707 .37599183 .280838 .4039917 .24382019 .4249878 .2177887 .43499757 .18478394 .43499757 .1517334 .43499757 .0806427 .3849945 .008529663 .30099488 .008529663 .27198792 .008529663 .19599915 .013534546 .14299011 .06260681 .084991458 .11668396 .08198547 .18078614 .08099365 .21679688 .07998657 .22679138 .07199097 .22679138 .068984989 .22679138 .055999757 .22679138 .055999757 .2197876 .055999757 .20178223V.0015258789C.055999757-.015472412 .055999757-.022460938 .066986087-.022460938 .07398987-.022460938 .07499695-.020462037 .08198547-.009475708 .08198547-.009475708 .084991458-.0054626467 .117996219 .047592164 .14898682 .013534546 .21299744-.022460938 .3019867-.022460938 .4189911-.022460938 .49899293 .07562256 .49899293 .18579102Z"/>
<path id="font_1_84" d="M.5209961 .21636963C.5209961 .34336854 .42399598 .4423828 .31199647 .4423828 .23399353 .4423828 .19198609 .39837647 .17199707 .3763733V.4423828L.027999878 .43066407V.3996582C.09899902 .3996582 .10598755 .3936615 .10598755 .34973146V-.117996219C.10598755-.16308594 .09498596-.16308594 .027999878-.16308594V-.1940918L.13999939-.19110108 .25299073-.1940918V-.16308594C.18598938-.16308594 .1749878-.16308594 .1749878-.117996219V.050186159 .059173585C.17999268 .04319763 .22200012-.0107421879 .2979889-.0107421879 .4169922-.0107421879 .5209961 .087127689 .5209961 .21594239V.21636963M.43798829 .21594239C.43798829 .09512329 .36799623 .011245728 .2939911 .011245728 .2539978 .011245728 .21598816 .031219483 .18899536 .07215881 .1749878 .09312439 .1749878 .09411621 .1749878 .114089969V.33674623C.20399475 .38838197 .25299073 .41737367 .3039856 .41737367 .3769989 .41737367 .43798829 .32937623 .43798829 .21636963V.21594239Z"/>
<path id="font_1_28" d="M.48298646 .08912659V.14511109H.45799256V.08912659C.45799256 .03112793 .43299867 .025131226 .42199708 .025131226 .3889923 .025131226 .3849945 .070129398 .3849945 .07511902V.27508546C.3849945 .31707765 .3849945 .3560791 .34899903 .39312745 .30999757 .43223573 .2599945 .4482422 .21199036 .4482422 .12998963 .4482422 .06098938 .40115357 .06098938 .335083 .06098938 .30508424 .08099365 .28808595 .10699463 .28808595 .1349945 .28808595 .15299988 .30807496 .15299988 .33407594 .15299988 .3460846 .147995 .37908937 .101989749 .38008119 .1289978 .41519166 .17799378 .426239 .20999146 .426239 .25898744 .426239 .31599427 .38710023 .31599427 .29808045V.26107789C.2649994 .25808717 .19499207 .25508119 .13198853 .22509766 .056991579 .19110108 .03199768 .13911438 .03199768 .09512329 .03199768 .014251709 .1289978-.0107421879 .19198609-.0107421879 .2579956-.0107421879 .3039856 .029251099 .32299806 .07624817 .32699586 .036132814 .35398866-.005859375 .40098573-.005859375 .42199708-.005859375 .48298646 .008132935 .48298646 .08912659M.31599427 .14013672C.31599427 .04525757 .24398804 .011245728 .19898987 .011245728 .1499939 .011245728 .10899353 .04624939 .10899353 .09625244 .10899353 .15124512 .15098572 .23425293 .31599427 .24024964V.14013672Z"/>
<path id="font_1_77" d="M.5349884 0V.0309906C.48298646 .0309906 .45799256 .0309906 .45700074 .061019899V.25221253C.45700074 .3383026 .45700074 .36932374 .42599488 .405365 .4119873 .42237855 .3789978 .4423828 .32099916 .4423828 .24798584 .4423828 .20098877 .39935304 .17298889 .33729554V.4423828L.03199768 .43066407V.3996582C.101989749 .3996582 .10998535 .39266969 .10998535 .34370423V.07595825C.10998535 .0309906 .09899902 .0309906 .03199768 .0309906V0L.14498902 .0029907227 .25698854 0V.0309906C.18998719 .0309906 .1789856 .0309906 .1789856 .07595825V.25978089C.1789856 .36431886 .25 .42037965 .31399537 .42037965 .3769989 .42037965 .3880005 .36631776 .3880005 .30926515V.076034549C.3880005 .0309906 .3769989 .0309906 .30999757 .0309906V0L.4229889 .0029907227 .5349884 0Z"/>
<path id="font_2_1" d="M.2829895 .6169281C.2829895 .6569519 .30899049 .72099307 .41799928 .7279968 .4229889 .72898867 .4269867 .73298647 .4269867 .7389984 .4269867 .75 .4189911 .75 .4079895 .75 .30799867 .75 .21699524 .6989746 .21598816 .62493899V.3968048C.21598816 .3577881 .21598816 .32577516 .17599488 .29275514 .14099121 .2637329 .102996829 .261734 .08099365 .2607422 .07598877 .2597351 .07199097 .2557373 .07199097 .2497406 .07199097 .23973084 .07798767 .23973084 .08799744 .23873902 .1539917 .23474121 .20199585 .19876099 .21299744 .14978028 .21598816 .13879395 .21598816 .13679505 .21598816 .10081482V-.097076419C.21598816-.13905335 .21598816-.17103577 .2639923-.2090149 .30299378-.23901367 .36898805-.25 .4079895-.25 .4189911-.25 .4269867-.25 .4269867-.23901367 .4269867-.2290039 .42099-.2290039 .41099549-.22801209 .34799195-.22401428 .29899598-.19203186 .28599549-.14105225 .2829895-.13206482 .2829895-.13006592 .2829895-.09408569V.11579895C.2829895 .16177368 .2749939 .17877198 .24299622 .2107544 .22200012 .23173523 .19299317 .24172974 .16499329 .2497406 .24699402 .2727356 .2829895 .31877137 .2829895 .37680055V.6169281Z"/>
<path id="font_3_4" d="M.5369873 .5947571C.522995 .5818329 .48999024 .55400088 .48999024 .5361023 .48999024 .5261078 .5 .516098 .5099945 .516098 .5189972 .516098 .5239868 .5231018 .5289917 .5290985 .54100039 .5440674 .56399539 .5718994 .60798647 .59376528 .61499026 .59776309 .625 .6027527 .625 .61476138 .625 .62475588 .6179962 .62976077 .61099246 .6347656 .58898928 .6497803 .5779877 .66781619 .56999209 .69184878 .56799319 .7008667 .56399539 .7138672 .5499878 .7138672 .5359955 .7138672 .5299988 .7008667 .5299988 .69285586 .5299988 .68785098 .5379944 .65579226 .55400088 .6347656H.21699524C.19999695 .6347656 .18199158 .6347656 .18199158 .61476138 .18199158 .5947571 .19999695 .5947571 .21699524 .5947571H.5369873Z"/>
<path id="font_3_1" d="M.34999085 .056259157C.36099244 .015258789 .3959961-.0107421879 .43899537-.0107421879 .47399903-.0107421879 .49699403 .012252808 .5130005 .044265748 .5299988 .08027649 .54299929 .14129639 .54299929 .14329529 .54299929 .1532898 .5339966 .1532898 .5309906 .1532898 .5209961 .1532898 .519989 .14929199 .5169983 .13528443 .5029907 .07926941 .48399354 .011245728 .44198609 .011245728 .42099 .011245728 .41099549 .024261475 .41099549 .057266237 .41099549 .07926941 .4229889 .12628174 .43099977 .16130066L.45899964 .2693329C.46199037 .28433229 .47200013 .32234193 .47599793 .3373413 .48098756 .36035157 .4909973 .3983612 .4909973 .40437318 .4909973 .42237855 .47698976 .43138124 .46199037 .43138124 .45700074 .43138124 .43099977 .43037416 .4229889 .3963623 .4039917 .323349 .3600006 .14828491 .34799195 .09527588 .34700013 .091278079 .30699159 .011245728 .23399353 .011245728 .18199158 .011245728 .17199707 .056259157 .17199707 .09327698 .17199707 .14929199 .19999695 .22831726 .22599793 .29733277 .23799134 .3273468 .24299622 .34135438 .24299622 .36035157 .24299622 .405365 .21099854 .4423828 .16099549 .4423828 .06599426 .4423828 .0289917 .29733277 .0289917 .28833009 .0289917 .27833558 .038986207 .27833558 .040985109 .27833558 .050994874 .27833558 .051986696 .28033448 .056991579 .29634095 .08198547 .38336183 .11999512 .42037965 .1579895 .42037965 .16699219 .42037965 .18299866 .41937257 .18299866 .38735963 .18299866 .36335755 .17199707 .3343506 .1659851 .31933595 .1289978 .2203064 .10798645 .15829468 .10798645 .10928345 .10798645 .014251709 .1769867-.0107421879 .23098755-.0107421879 .29699708-.0107421879 .33299256 .03425598 .34999085 .056259157Z"/>
<path id="font_2_2" d="M.21598816-.11706543C.21598816-.15704346 .18998719-.2210083 .08099365-.22801209 .07598877-.2290039 .07199097-.23300171 .07199097-.23901367 .07199097-.25 .08299255-.25 .09199524-.25 .18899536-.25 .28199769-.20101929 .2829895-.12506104V.10282898C.2829895 .14179993 .2829895 .17378235 .32299806 .20677185 .35798646 .23576355 .3959961 .23776245 .41799928 .23875427 .4229889 .23976135 .4269867 .24375916 .4269867 .24975586 .4269867 .25976563 .42099 .25976563 .41099549 .26075746 .34498597 .26475526 .29699708 .30078126 .28599549 .34980775 .2829895 .36080934 .2829895 .36280824 .2829895 .39883424V.5969238C.2829895 .63894656 .2829895 .6709595 .23498535 .7089844 .19499207 .73999026 .12599182 .75 .09199524 .75 .08299255 .75 .07199097 .75 .07199097 .7389984 .07199097 .72898867 .07798767 .72898867 .08799744 .72798159 .15098572 .72398379 .19999695 .6919708 .21299744 .64094546 .21598816 .63194277 .21598816 .62994387 .21598816 .59391787V.38381959C.21598816 .33779908 .22399903 .32078553 .2559967 .28877259 .2769928 .26776124 .30599977 .25775147 .33399964 .24975586 .2519989 .22676087 .21598816 .18078614 .21598816 .12281799V-.11706543Z"/>
<path id="font_3_2" d="M.46798707 .37236024C.46798707 .42637635 .44198609 .4423828 .42399598 .4423828 .39898683 .4423828 .375 .41636659 .375 .3943634 .375 .38136292 .37998963 .3753662 .3909912 .36434938 .4119873 .3443451 .4249878 .31834413 .4249878 .28233338 .4249878 .24032593 .3639984 .011245728 .24699402 .011245728 .19599915 .011245728 .17298889 .04626465 .17298889 .09828186 .17298889 .15429688 .19999695 .22731018 .23098755 .31033326 .23799134 .3273468 .24299622 .34135438 .24299622 .36035157 .24299622 .405365 .21099854 .4423828 .16099549 .4423828 .066986087 .4423828 .0289917 .29733277 .0289917 .28833009 .0289917 .27833558 .038986207 .27833558 .040985109 .27833558 .050994874 .27833558 .051986696 .28033448 .056991579 .29634095 .085998538 .39736939 .1289978 .42037965 .1579895 .42037965 .1659851 .42037965 .18299866 .42037965 .18299866 .3883667 .18299866 .36335755 .17298889 .3363495 .1659851 .31834413 .12199402 .20230103 .10899353 .15629578 .10899353 .11328125 .10899353 .0052490236 .19699097-.0107421879 .24299622-.0107421879 .41099549-.0107421879 .46798707 .32034303 .46798707 .37236024Z"/>
<path id="font_1_96" d="M.3639984 .38137818C.3639984 .41337586 .33299256 .4423828 .2899933 .4423828 .21699524 .4423828 .18099976 .37538148 .16699219 .3323822V.4423828L.027999878 .43066407V.3996582C.09799194 .3996582 .10598755 .39266969 .10598755 .34370423V.07595825C.10598755 .0309906 .09498596 .0309906 .027999878 .0309906V0L.14199829 .0029907227C.18199158 .0029907227 .22898865 .0029907227 .2689972 0V.0309906H.24798584C.17399597 .0309906 .17199707 .04197693 .17199707 .07795715V.23181153C.17199707 .33137513 .21398926 .42037965 .2899933 .42037965 .29699708 .42037965 .29899598 .42037965 .30099488 .41937257 .2979889 .41838075 .27799989 .40637208 .27799989 .3803711 .27799989 .35237123 .29899598 .33737184 .32099916 .33737184 .33898927 .33737184 .3639984 .3493805 .3639984 .38137818Z"/>
<path id="font_1_81" d="M.47099305 .21424866C.47099305 .34223939 .37098695 .4482422 .25 .4482422 .125 .4482422 .027999878 .3392334 .027999878 .21424866 .027999878 .085250858 .13198853-.0107421879 .24899292-.0107421879 .36999513-.0107421879 .47099305 .087249759 .47099305 .21424866M.3880005 .22224427C.3880005 .18624878 .3880005 .13224793 .3659973 .08824158 .34399415 .04324341 .2999878 .014251709 .25 .014251709 .20698548 .014251709 .16299439 .035247804 .13598633 .08125305 .11099243 .12524414 .11099243 .18624878 .11099243 .22224427 .11099243 .26124574 .11099243 .31523133 .1349945 .35923768 .1619873 .40522767 .20899964 .426239 .24899292 .426239 .29299928 .426239 .33599855 .40423585 .3619995 .36123658 .3880005 .3182373 .3880005 .26023866 .3880005 .22224427Z"/>
<path id="font_1_68" d="M.20999146-.049972536V.4423828L.057998659 .43138124V.40037538C.1349945 .40037538 .14399719 .39337159 .14399719 .34432984V-.051971437C.14399719-.09700012 .1349945-.18309021 .070999149-.18309021 .06599426-.18309021 .042999269-.18309021 .016998291-.17001343 .03199768-.16600037 .051986696-.1519928 .051986696-.125 .051986696-.09899902 .033996583-.07899475 .005996704-.07899475-.022003174-.07899475-.040008546-.09899902-.040008546-.125-.040008546-.17704773 .015991211-.20507813 .07299805-.20507813 .147995-.20507813 .20999146-.14100647 .20999146-.049972536M.20999146 .6042175C.20999146 .6312256 .18699646 .65722659 .15699768 .65722659 .12298584 .65722659 .102996829 .6292114 .102996829 .6042175 .102996829 .57722476 .12599182 .55122378 .1559906 .55122378 .18998719 .55122378 .20999146 .57922366 .20999146 .6042175Z"/>
<path id="font_4_2" d="M.57899478 .5908203C.57099917 .5838623 .5359955 .55307009 .5359955 .5371704 .5359955 .52319338 .5479889 .5121918 .5609894 .5121918 .57199099 .5121918 .5779877 .51919558 .58399966 .52719119 .60899356 .55604556 .6399994 .5769043 .66600039 .5888214 .6799927 .5948181 .69099429 .59980776 .69099429 .6158142 .69099429 .6288147 .68099978 .6348114 .6719971 .6398163 .6389923 .6599426 .6299896 .6851196 .625 .69821169 .6230011 .7042084 .61698916 .71920779 .59999087 .71920779 .59298709 .71920779 .57598879 .71321108 .57598879 .69418337 .57598879 .6800842 .59098818 .65190127 .59999087 .6398163H.24099732C.22499085 .6398163 .20098877 .6398163 .20098877 .6158142 .20098877 .5908203 .22399903 .5908203 .24099732 .5908203H.57899478Z"/>
<path id="font_4_1" d="M.4229889 .16229248C.41799928 .14228821 .40899659 .104263309 .40699769 .103256229 .3880005 .072250369 .34799195 .018234253 .28599549 .018234253 .21699524 .018234253 .21699524 .08325195 .21699524 .101257327 .21699524 .16029358 .24499512 .23132324 .272995 .3043518 .2809906 .32435609 .2869873 .33937074 .2869873 .3553772 .2869873 .4073944 .24299622 .44140626 .19198609 .44140626 .09199524 .44140626 .04699707 .3043518 .04699707 .28834535 .04699707 .27534486 .06098938 .27534486 .06399536 .27534486 .07798767 .27534486 .07899475 .28033448 .08198547 .29135133 .10598755 .37338258 .1499939 .4133911 .18899536 .4133911 .20599365 .4133911 .21398926 .40238954 .21398926 .37838746 .21398926 .3553772 .20599365 .33436585 .19599915 .3113556 .14199829 .17329407 .14199829 .14428711 .14199829 .117263797 .14199829 .1002655 .14199829 .054244996 .1789856 .022232056 .20799256-.0017700195 .24699402-.009765625 .28199769-.009765625 .34498597-.009765625 .3789978 .024230957 .4119873 .056243898 .43399049-.0077667238 .5009918-.009765625 .5130005-.009765625 .5469971-.009765625 .57299807 .010223389 .59199526 .04324341 .6139984 .08226013 .6279907 .14027405 .6279907 .14328003 .6279907 .15628052 .6139984 .15628052 .61099246 .15628052 .5970001 .15628052 .59599307 .15228272 .58898928 .12527466 .57699587 .07824707 .55799868 .018234253 .5159912 .018234253 .48999024 .018234253 .48298646 .041229249 .48298646 .06724548 .48298646 .08425903 .4909973 .120269779 .49798585 .14628601 .5049896 .17329407 .5149994 .21430969 .519989 .23632813L.54299929 .32536317C.548996 .3503723 .55999758 .39439393 .55999758 .3993988 .55999758 .41940309 .5439911 .43139649 .5269928 .43139649 .48999024 .43139649 .48298646 .40238954 .47499085 .3703766L.4229889 .16229248Z"/>
<path id="font_3_3" d="M.46199037 .33935548C.46699525 .36135865 .47698976 .3983612 .47698976 .40437318 .47698976 .42237855 .46299745 .43138124 .44799806 .43138124 .43598939 .43138124 .41799928 .42337037 .41099549 .4033661 .4079895 .3963623 .36099244 .205307 .35398866 .17930603 .34700013 .14929199 .34498597 .13128662 .34498597 .11328125 .34498597 .10227966 .34498597 .10028076 .34599305 .09527588 .32299806 .042266847 .29299928 .011245728 .2539978 .011245728 .17399597 .011245728 .17399597 .08526611 .17399597 .10227966 .17399597 .1342926 .1789856 .17329407 .22599793 .29634095 .23699951 .32633973 .24299622 .3403473 .24299622 .36035157 .24299622 .405365 .20999146 .4423828 .16099549 .4423828 .06599426 .4423828 .0289917 .29733277 .0289917 .28833009 .0289917 .27833558 .038986207 .27833558 .040985109 .27833558 .050994874 .27833558 .051986696 .28033448 .056991579 .29634095 .083999637 .38935853 .12298584 .42037965 .1579895 .42037965 .16699219 .42037965 .18299866 .41937257 .18299866 .38735963 .18299866 .36235047 .17199707 .3343506 .16499329 .31733705 .12098694 .1993103 .10899353 .1532898 .10899353 .11528015 .10899353 .024261475 .17599488-.0107421879 .25099183-.0107421879 .2679901-.0107421879 .31498719-.0107421879 .35499574 .059265138 .3809967-.0047454836 .44999696-.0107421879 .47999574-.0107421879 .5549927-.0107421879 .598999 .052261354 .625 .11227417 .6589966 .19030762 .69099429 .32434083 .69099429 .37236024 .69099429 .42736817 .6639862 .4423828 .6469879 .4423828 .621994 .4423828 .5970001 .41636659 .5970001 .3943634 .5970001 .38136292 .6029968 .3753662 .6119995 .36735536 .6230011 .35635377 .647995 .33035279 .647995 .28233338 .647995 .24832154 .61898806 .15029907 .59298709 .09927368 .5669861 .04626465 .5319977 .011245728 .48298646 .011245728 .43598939 .011245728 .40899659 .041259767 .40899659 .09828186 .40899659 .12628174 .41600038 .1572876 .41999818 .17129517L.46199037 .33935548Z"/>
</defs>
<path transform="matrix(1.00008,0,0,-1.00009,23.775467,58.11706)" stroke-width=".3985" stroke-linecap="butt" stroke-dasharray="2.98883,2.98883" stroke-miterlimit="10" stroke-linejoin="miter" fill="none" stroke="#7f807f" d="M-22.67752 0H113.38766"/>
<use data-text="S" xlink:href="#font_1_97" transform="matrix(9.963397,0,0,-9.963496,140.69182,69.11005)" fill="#7f807f"/>
<use data-text="p" xlink:href="#font_1_84" transform="matrix(9.963397,0,0,-9.963496,146.23148,69.11005)" fill="#7f807f"/>
<use data-text="a" xlink:href="#font_1_28" transform="matrix(9.963397,0,0,-9.963496,151.77112,69.11005)" fill="#7f807f"/>
<use data-text="n" xlink:href="#font_1_77" transform="matrix(9.963397,0,0,-9.963496,156.7528,69.11005)" fill="#7f807f"/>
<use data-text="{" xlink:href="#font_2_1" transform="matrix(9.963397,0,0,-9.963496,162.29254,69.11005)" fill="#7f807f"/>
<use data-text="&#x20d7;" xlink:href="#font_3_4" transform="matrix(9.963397,0,0,-9.963496,167.14594,69.11005)" fill="#7f807f"/>
<use data-text="u" xlink:href="#font_3_1" transform="matrix(9.963397,0,0,-9.963496,167.27545,69.11005)" fill="#7f807f"/>
<use data-text="}" xlink:href="#font_2_2" transform="matrix(9.963397,0,0,-9.963496,172.97841,69.11005)" fill="#7f807f"/>
<path transform="matrix(1.00008,0,0,-1.00009,23.775467,58.11706)" stroke-width=".79701" stroke-linecap="butt" stroke-miterlimit="10" stroke-linejoin="miter" fill="none" stroke="#000099" d="M0 0H89.91312"/>
<path transform="matrix(1.00008,0,0,-1.00009,114.0943,58.11706)" stroke-width=".79701" stroke-linecap="round" stroke-linejoin="round" fill="none" stroke="#000099" d="M-2.55046 3.11095C-2.0845 1.24435-1.04614 .36295 0 0-1.04614-.36295-2.0845-1.24435-2.55046-3.11095"/>
<use data-text="&#x20d7;" xlink:href="#font_3_4" transform="matrix(9.963397,0,0,-9.963496,111.51248,68.95503)" fill="#000099"/>
<use data-text="u" xlink:href="#font_3_1" transform="matrix(9.963397,0,0,-9.963496,111.642009,68.95503)" fill="#000099"/>
<path transform="matrix(1.00008,0,0,-1.00009,23.775467,58.11706)" stroke-width=".79701" stroke-linecap="butt" stroke-miterlimit="10" stroke-linejoin="miter" fill="none" stroke="#990000" d="M0 0 44.79149 44.79149"/>
<path transform="matrix(.70715656,-.70716366,-.70715656,-.70716366,68.85233,13.039745)" stroke-width=".79701" stroke-linecap="round" stroke-linejoin="round" fill="none" stroke="#990000" d="M-2.55046 3.11095C-2.0845 1.24435-1.04614 .36295 0 0-1.04614-.36295-2.0845-1.24435-2.55046-3.11095"/>
<use data-text="&#x20d7;" xlink:href="#font_3_4" transform="matrix(9.963397,0,0,-9.963496,66.153858,9.038643)" fill="#990000"/>
<use data-text="v" xlink:href="#font_3_2" transform="matrix(9.963397,0,0,-9.963496,66.542438,9.038643)" fill="#990000"/>
<path transform="matrix(1.00008,0,0,-1.00009,23.775467,58.11706)" stroke-width="1.19553" stroke-linecap="butt" stroke-miterlimit="10" stroke-linejoin="miter" fill="none" stroke="#000000" d="M0 0H44.15953"/>
<path transform="matrix(1.00008,0,0,-1.00009,68.53635,58.11706)" stroke-width="1.19553" stroke-linecap="round" stroke-linejoin="round" fill="none" stroke="#000000" d="M-3.02867 3.83081C-2.47534 1.53229-1.24231 .44691 0 0-1.24231-.44691-2.47534-1.53229-3.02867-3.83081"/>
<use data-text="p" xlink:href="#font_1_84" transform="matrix(9.963397,0,0,-9.963496,32.379159,69.15405)"/>
<use data-text="r" xlink:href="#font_1_96" transform="matrix(9.963397,0,0,-9.963496,37.918809,69.15405)"/>
<use data-text="o" xlink:href="#font_1_81" transform="matrix(9.963397,0,0,-9.963496,41.824464,69.15405)"/>
<use data-text="j" xlink:href="#font_1_68" transform="matrix(9.963397,0,0,-9.963496,47.085138,69.15405)"/>
<use data-text="&#x20d7;" xlink:href="#font_4_2" transform="matrix(6.974358,0,0,-6.9744279,50.12658,70.7342)"/>
<use data-text="u" xlink:href="#font_4_1" transform="matrix(6.974358,0,0,-6.9744279,50.133554,70.7342)"/>
<use data-text="&#x20d7;" xlink:href="#font_3_4" transform="matrix(9.963397,0,0,-9.963496,54.95597,69.15405)"/>
<use data-text="v" xlink:href="#font_3_2" transform="matrix(9.963397,0,0,-9.963496,55.344537,69.15405)"/>
<path transform="matrix(1.00008,0,0,-1.00009,23.775467,58.11706)" stroke-width=".79701" stroke-linecap="butt" stroke-miterlimit="10" stroke-linejoin="miter" fill="none" stroke="#7f807f" d="M45.35506 0V44.55804"/>
<path transform="matrix(0,-1.00009,-1.00008,-0,69.134159,13.156475)" stroke-width=".79701" stroke-linecap="round" stroke-linejoin="round" fill="none" stroke="#7f807f" d="M-2.55046 3.11095C-2.0845 1.24435-1.04614 .36295 0 0-1.04614-.36295-2.0845-1.24435-2.55046-3.11095"/>
<use data-text="&#x20d7;" xlink:href="#font_3_4" transform="matrix(9.963397,0,0,-9.963496,74.12749,38.99634)" fill="#7f807f"/>
<use data-text="w" xlink:href="#font_3_3" transform="matrix(9.963397,0,0,-9.963496,72.86214,38.99634)" fill="#7f807f"/>
</svg>
