<svg xmlns="http://www.w3.org/2000/svg" xmlns:xlink="http://www.w3.org/1999/xlink" xmlns:inkscape="http://www.inkscape.org/namespaces/inkscape" version="1.1" width="212" height="84" viewBox="0 0 212 84">
<defs>
<path id="font_1_1" d="M.6589966 .23046875C.6759949 .23046875 .69400027 .23046875 .69400027 .25045777 .69400027 .27046205 .6759949 .27046205 .6589966 .27046205H.117996219C.100997928 .27046205 .08299255 .27046205 .08299255 .25045777 .08299255 .23046875 .100997928 .23046875 .117996219 .23046875H.6589966Z"/>
<path id="font_2_1" d="M.2649994 .37265016H.37799073C.34498597 .22489929 .33599855 .18196106 .33599855 .11508179 .33599855 .100097659 .33599855 .073150638 .34399415 .03919983 .35398866-.0047454836 .36499024-.0107421879 .37998963-.0107421879 .3999939-.0107421879 .42099 .007247925 .42099 .02722168 .42099 .033218385 .42099 .035202028 .4149933 .049179079 .38598634 .12106323 .38598634 .18595886 .38598634 .21391297 .38598634 .26683045 .3929901 .32073976 .4039917 .37265016H.5179901C.5309906 .37265016 .5669861 .37265016 .5669861 .406662 .5669861 .43066407 .54599 .43066407 .5269928 .43066407H.19198609C.16999817 .43066407 .13198853 .43066407 .08799744 .38365174 .052993776 .34469605 .026992798 .29878236 .026992798 .29379273 .026992798 .29278565 .026992798 .28379823 .038986207 .28379823 .04699707 .28379823 .04899597 .28779603 .054992677 .29577638 .10398865 .37265016 .1619873 .37265016 .18199158 .37265016H.23899842C.20698548 .25186158 .15299988 .13105774 .11099243 .04020691 .102996829 .025222779 .102996829 .023223877 .102996829 .016235352 .102996829-.002746582 .11898804-.0107421879 .13198853-.0107421879 .1619873-.0107421879 .16999817 .017242432 .18199158 .05418396 .19599915 .100097659 .19599915 .10209656 .20899964 .15202332L.2649994 .37265016Z"/>
<path id="font_3_3" d="M.45999146 .31976319C.45999146 .39982606 .45498658 .47988893 .41999818 .5539398 .37399293 .65000918 .2919922 .6660156 .25 .6660156 .18998719 .6660156 .116989139 .64001467 .07598877 .54693606 .04399109 .47789 .038986207 .39982606 .038986207 .31976319 .038986207 .24472046 .042999269 .15464783 .083999637 .07859802 .1269989-.0024719239 .19999695-.022460938 .24899292-.022460938 .30299378-.022460938 .3789978-.0014648438 .4229889 .09359741 .45498658 .16265869 .45999146 .2407074 .45999146 .31976319M.24899292-.00047302247C.20999146-.00047302247 .15098572 .024551392 .1329956 .12062073 .12199402 .18066406 .12199402 .2727356 .12199402 .3317871 .12199402 .39582826 .12199402 .46188355 .12998963 .5159149 .14898682 .63500979 .22399903 .64401248 .24899292 .64401248 .28199769 .64401248 .34799195 .6259918 .36698915 .52693179 .3769989 .47088624 .3769989 .39482118 .3769989 .3317871 .3769989 .25672914 .3769989 .18867493 .3659973 .12461853 .35099793 .029556275 .2939911-.00047302247 .24899292-.00047302247Z"/>
<path id="font_3_4" d="M.1269989 .07699585 .23298645 .18003845C.3889923 .31811524 .44898988 .3721466 .44898988 .47216798 .44898988 .5860901 .35899354 .6660156 .23699951 .6660156 .12399292 .6660156 .049987794 .57411196 .049987794 .48516847 .049987794 .4291687 .099990848 .4291687 .102996829 .4291687 .11999512 .4291687 .15499878 .44117738 .15499878 .48217774 .15499878 .5081787 .13699341 .5341797 .101989749 .5341797 .09399414 .5341797 .09199524 .5341797 .08898926 .5331726 .11199951 .59806826 .1659851 .63500979 .22399903 .63500979 .31498719 .63500979 .35798646 .5541382 .35798646 .47216798 .35798646 .39215089 .30799867 .31311036 .25299073 .25108338L.06098938 .036987306C.049987794 .025985718 .049987794 .023986817 .049987794 0H.42099L.44898988 .17404175H.42399598C.4189911 .14402771 .4119873 .1000061 .4019928 .084991458 .394989 .07699585 .32899476 .07699585 .30699159 .07699585H.1269989Z"/>
<path id="font_4_82" d="M.4189911 0V.0309906H.3869934C.29699708 .0309906 .2939911 .041992189 .2939911 .07902527V.64012148C.2939911 .6640167 .2939911 .6660156 .2709961 .6660156 .20899964 .60227969 .12098694 .60227969 .08898926 .60227969V.57128909C.10899353 .57128909 .16799927 .57128909 .21998596 .5972748V.07902527C.21998596 .042999269 .21699524 .0309906 .1269989 .0309906H.09498596V0C.12998963 .0029907227 .21699524 .0029907227 .25698854 .0029907227 .29699708 .0029907227 .38398744 .0029907227 .4189911 0Z"/>
<path id="font_3_7" d="M.20799256 .19424439C.22999573 .19024658 .31199647 .17424011 .31199647 .102249149 .31199647 .051254274 .2769928 .011245728 .19898987 .011245728 .114990238 .011245728 .07899475 .06825256 .05999756 .15324402 .056991579 .1662445 .055999757 .17024231 .04598999 .17024231 .032989503 .17024231 .032989503 .16323853 .032989503 .14524842V.013244629C.032989503-.003753662 .032989503-.0107421879 .04399109-.0107421879 .04899597-.0107421879 .049987794-.009750366 .068984989 .009246826 .070999149 .011245728 .070999149 .013244629 .08898926 .03224182 .1329956-.009750366 .17799378-.0107421879 .19898987-.0107421879 .31399537-.0107421879 .3600006 .056243898 .3600006 .12825012 .3600006 .1812439 .32998658 .21124268 .31799317 .22323609 .2849884 .25523377 .24598694 .26324464 .20399475 .27124024 .147995 .28224183 .08099365 .2952423 .08099365 .35324098 .08099365 .38822938 .10699463 .42922975 .19299317 .42922975 .30299378 .42922975 .30799867 .3392334 .30999757 .3082428 .31098939 .2992401 .31999208 .2992401 .32199098 .2992401 .33499146 .2992401 .33499146 .304245 .33499146 .3232422V.4242401C.33499146 .4412384 .33499146 .4482422 .32398988 .4482422 .31900025 .4482422 .31698609 .4482422 .3039856 .43623353 .30099488 .43223573 .29100038 .42323304 .2869873 .42022706 .24899292 .4482422 .20799256 .4482422 .19299317 .4482422 .070999149 .4482422 .032989503 .38124085 .032989503 .3252411 .032989503 .29023744 .04899597 .26223756 .07598877 .24023438 .10798645 .21424866 .13598633 .2082367 .20799256 .19424439Z"/>
<path id="font_3_5" d="M.1769867 .4423828 .036987306 .43138124V.40037538C.101989749 .40037538 .11099243 .3943634 .11099243 .34532167V.076034549C.11099243 .0309906 .099990848 .0309906 .032989503 .0309906V0C.06498718 .0009918213 .11898804 .0029907227 .14299011 .0029907227 .17799378 .0029907227 .21299744 .0009918213 .24699402 0V.0309906C.18099976 .0309906 .1769867 .035995485 .1769867 .075042728V.4423828M.18099976 .6159363C.18099976 .64793398 .1559906 .6689453 .12799073 .6689453 .09700012 .6689453 .07499695 .64193728 .07499695 .6159363 .07499695 .5889435 .09700012 .5629425 .12799073 .5629425 .1559906 .5629425 .18099976 .5839386 .18099976 .6159363Z"/>
<path id="font_3_6" d="M.10998535 .34429933V.076034549C.10998535 .0309906 .09899902 .0309906 .03199768 .0309906V0C.066986087 .0009918213 .117996219 .0029907227 .14498902 .0029907227 .17098999 .0029907227 .22299195 .0009918213 .25698854 0V.0309906C.18998719 .0309906 .1789856 .0309906 .1789856 .076034549V.2602234C.1789856 .36431886 .25 .42037965 .31399537 .42037965 .3769989 .42037965 .3880005 .36631776 .3880005 .30926515V.076034549C.3880005 .0309906 .3769989 .0309906 .30999757 .0309906V0C.34498597 .0009918213 .3959961 .0029907227 .4229889 .0029907227 .44898988 .0029907227 .5009918 .0009918213 .5349884 0V.0309906C.48298646 .0309906 .45799256 .0309906 .45700074 .061019899V.25221253C.45700074 .3383026 .45700074 .36932374 .42599488 .405365 .4119873 .42237855 .3789978 .4423828 .32099916 .4423828 .24798584 .4423828 .20098877 .39935304 .17298889 .33729554V.4423828L.03199768 .43138124V.40037538C.101989749 .4003601 .10998535 .39335633 .10998535 .34429933Z"/>
<path id="font_3_1" d="M.33099366-.2400055C.33099366-.23701477 .33099366-.23500061 .31399537-.21800232 .18899536-.0920105 .15699768 .09700012 .15699768 .25 .15699768 .42399598 .19499207 .59799197 .31799317 .72299197 .33099366 .73498538 .33099366 .7369995 .33099366 .73999026 .33099366 .746994 .32699586 .75 .32099916 .75 .31098939 .75 .22099304 .6819916 .1619873 .5549927 .11099243 .44499208 .09899902 .33399964 .09899902 .25 .09899902 .17199707 .10998535 .050994874 .16499329-.06201172 .22499085-.18501282 .31098939-.25 .32099916-.25 .32699586-.25 .33099366-.24700928 .33099366-.2400055Z"/>
<path id="font_2_2" d="M.33399964 .30233766C.33999635 .32835389 .36299134 .42037965 .43299867 .42037965 .43798829 .42037965 .46199037 .42037965 .48298646 .40734864 .45498658 .402359 .43499757 .37734986 .43499757 .35334779 .43499757 .33735658 .44599916 .31835938 .47299195 .31835938 .49499513 .31835938 .5269928 .3363495 .5269928 .37635804 .5269928 .42837525 .46798707 .4423828 .43399049 .4423828 .37599183 .4423828 .34098817 .38935853 .32899476 .36634828 .3039856 .43237306 .25 .4423828 .22099304 .4423828 .116989139 .4423828 .05999756 .3133545 .05999756 .28834535 .05999756 .27833558 .069992069 .27833558 .07199097 .27833558 .07998657 .27833558 .08299255 .28033448 .084991458 .28933717 .11898804 .39535523 .18499756 .42037965 .21899414 .42037965 .23799134 .42037965 .272995 .4113617 .272995 .35334779 .272995 .32235719 .2559967 .25532533 .21899414 .11528015 .20298767 .053268434 .16799927 .011245728 .12399292 .011245728 .117996219 .011245728 .09498596 .011245728 .07398987 .024276734 .09899902 .029266358 .12098694 .05027771 .12098694 .07827759 .12098694 .105270389 .09899902 .11328125 .083999637 .11328125 .053985597 .11328125 .0289917 .08728027 .0289917 .055267335 .0289917 .009246826 .07899475-.0107421879 .12298584-.0107421879 .18899536-.0107421879 .22499085 .059280397 .22799683 .0652771 .23999024 .028274537 .27598573-.0107421879 .33599855-.0107421879 .43899537-.0107421879 .49598695 .118270877 .49598695 .14328003 .49598695 .1532898 .4869995 .1532898 .48399354 .1532898 .47499085 .1532898 .47299195 .14929199 .47099305 .14228821 .43798829 .03527832 .36999513 .011245728 .33799745 .011245728 .29899598 .011245728 .2829895 .043273927 .2829895 .07727051 .2829895 .09927368 .2889862 .121276859 .2999878 .16529846L.33399964 .30233766Z"/>
<path id="font_3_2" d="M.2889862 .25C.2889862 .32798768 .27799989 .44898988 .22299195 .56199648 .16299439 .68499758 .07699585 .75 .066986087 .75 .06098938 .75 .056991579 .74598696 .056991579 .73999026 .056991579 .7369995 .056991579 .73498538 .07598877 .71699526 .17399597 .6179962 .23098755 .45899964 .23098755 .25 .23098755 .07899475 .19400025-.09700012 .069992069-.2230072 .056991579-.23500061 .056991579-.23701477 .056991579-.2400055 .056991579-.2460022 .06098938-.25 .066986087-.25 .07699585-.25 .16699219-.18200684 .22599793-.055007936 .2769928 .054992677 .2889862 .16600037 .2889862 .25Z"/>
<path id="font_2_3" d="M.48599244 .38136292C.48999024 .39537049 .48999024 .39736939 .48999024 .40437318 .48999024 .42237855 .47599793 .43138124 .46099855 .43138124 .45098878 .43138124 .43499757 .42536927 .42599488 .41036988 .42399598 .405365 .41600038 .37435914 .4119873 .35635377 .40499879 .33035279 .397995 .30334474 .3919983 .27633668L.34700013 .09628296C.34298707 .08126831 .2999878 .011245728 .23399353 .011245728 .18299866 .011245728 .17199707 .055267335 .17199707 .0922699 .17199707 .1382904 .18899536 .20030213 .22299195 .28833009 .23899842 .3293457 .24299622 .3403473 .24299622 .36035157 .24299622 .405365 .21099854 .4423828 .16099549 .4423828 .06599426 .4423828 .0289917 .29733277 .0289917 .28833009 .0289917 .27833558 .038986207 .27833558 .040985109 .27833558 .050994874 .27833558 .051986696 .28033448 .056991579 .29634095 .083999637 .3903656 .12399292 .42037965 .1579895 .42037965 .1659851 .42037965 .18299866 .42037965 .18299866 .3883667 .18299866 .36335755 .17298889 .3373413 .1659851 .31834413 .12599182 .21231079 .10798645 .1552887 .10798645 .10827637 .10798645 .019256592 .17098999-.0107421879 .22999573-.0107421879 .2689972-.0107421879 .30299378 .0062561037 .33099366 .03425598 .31799317-.017745972 .30599977-.06674194 .2659912-.11973572 .23999024-.15385437 .20199585-.18309021 .1559906-.18309021 .14199829-.18309021 .09700012-.18005371 .07998657-.14074707 .09599304-.14074707 .10899353-.14074707 .12298584-.1287384 .1329956-.11973572 .14299011-.10673523 .14299011-.08773804 .14299011-.056747438 .115997318-.052734376 .10598755-.052734376 .08299255-.052734376 .049987794-.068740848 .049987794-.11773682 .049987794-.16796875 .09399414-.20507813 .1559906-.20507813 .25898744-.20507813 .3619995-.11373901 .3899994-.00074768069L.48599244 .38136292Z"/>
</defs>
<path transform="matrix(1,0,0,-1,1.2949982,74.832)" stroke-width=".19925" stroke-linecap="butt" stroke-miterlimit="10" stroke-linejoin="miter" fill="none" stroke="#d9d9d9" d="M20.73227 0V63.16634M58.58072 0V63.16634M134.27764 0V63.16634M172.1261 0V63.16634"/>
<path transform="matrix(1,0,0,-1,1.2949982,74.832)" stroke-width=".19925" stroke-linecap="butt" stroke-miterlimit="10" stroke-linejoin="miter" fill="none" stroke="#d9d9d9" d="M10.84828 2.87119H182.01009M10.84828 17.22717H182.01009M10.84828 45.93915H182.01009M10.84828 60.29515H182.01009"/>
<path transform="matrix(1,0,0,-1,1.2949982,74.832)" stroke-width=".19925" stroke-linecap="butt" stroke-miterlimit="10" stroke-linejoin="miter" fill="none" stroke="#7f807f" d="M20.73227 29.45723V33.70909M58.58072 29.45723V33.70909M134.27764 29.45723V33.70909M172.1261 29.45723V33.70909"/>
<path transform="matrix(1,0,0,-1,1.2949982,74.832)" stroke-width=".19925" stroke-linecap="butt" stroke-miterlimit="10" stroke-linejoin="miter" fill="none" stroke="#7f807f" d="M94.30331 2.87119H98.55504M94.30331 17.22717H98.55504M94.30331 45.93915H98.55504M94.30331 60.29515H98.55504"/>
<path transform="matrix(1,0,0,-1,1.2949982,74.832)" stroke-width=".3985" stroke-linecap="butt" stroke-miterlimit="10" stroke-linejoin="miter" fill="none" stroke="#000000" d="M3.3762 31.58316H187.48964"/>
<path transform="matrix(1,0,0,-1,188.78464,43.24884)" d="M1.99252 0-1.19551 1.59401 0 0-1.19551-1.59401"/>
<path transform="matrix(1,0,0,-1,1.2949982,74.832)" stroke-width=".3985" stroke-linecap="butt" stroke-miterlimit="10" stroke-linejoin="miter" fill="none" stroke="#000000" d="M96.42918-7.47208V68.64589"/>
<path transform="matrix(0,-1,-1,-0,97.724178,6.1861116)" d="M1.99252 0-1.19551 1.59401 0 0-1.19551-1.59401"/>
<path transform="matrix(1,0,0,-1,1.2949982,74.832)" stroke-width=".19925" stroke-linecap="butt" stroke-miterlimit="10" stroke-linejoin="miter" fill="none" stroke="#d9d9d9" d="M58.58072 0V63.16634M96.42918 0V63.16634M134.27764 0V63.16634M172.1261 0V63.16634"/>
<path transform="matrix(1,0,0,-1,1.2949982,74.832)" stroke-width=".19925" stroke-linecap="butt" stroke-miterlimit="10" stroke-linejoin="miter" fill="none" stroke="#7f807f" d="M58.58072 29.45723V33.70909M96.42918 29.45723V33.70909M134.27764 29.45723V33.70909M172.1261 29.45723V33.70909"/>
<path transform="matrix(1,0,0,-1,1.2949982,74.832)" d="M68.2521 19.58661C68.2521 24.92801 63.92213 29.25798 58.58072 29.25798 53.23932 29.25798 48.90935 24.92801 48.90935 19.58661 48.90935 14.2452 53.23932 9.91522 58.58072 9.91522 63.92213 9.91522 68.2521 14.2452 68.2521 19.58661ZM58.58072 19.58661" fill="#ffffff"/>
<use data-text="&#x2212;" xlink:href="#font_1_1" transform="matrix(9.9626,0,0,-9.9626,52.982999,57.736)"/>
<use data-text="&#x03c0;" xlink:href="#font_2_1" transform="matrix(9.9626,0,0,-9.9626,60.732,57.736)"/>
<path transform="matrix(1,0,0,-1,1.2949982,74.832)" d="M102.57394 23.11322C102.57394 26.50691 99.82288 29.25798 96.42918 29.25798 93.03549 29.25798 90.28442 26.50691 90.28442 23.11322 90.28442 19.71953 93.03549 16.96846 96.42918 16.96846 99.82288 16.96846 102.57394 19.71953 102.57394 23.11322ZM96.42918 23.11322" fill="#ffffff"/>
<use data-text="0" xlink:href="#font_3_3" transform="matrix(9.9626,0,0,-9.9626,95.233,54.929)"/>
<path transform="matrix(1,0,0,-1,1.2949982,74.832)" d="M140.05367 23.48195C140.05367 26.672 137.46768 29.25798 134.27764 29.25798 131.0876 29.25798 128.50162 26.672 128.50162 23.48195 128.50162 20.29192 131.0876 17.70593 134.27764 17.70593 137.46768 17.70593 140.05367 20.29192 140.05367 23.48195ZM134.27764 23.48195" fill="#ffffff"/>
<use data-text="&#x03c0;" xlink:href="#font_2_1" transform="matrix(9.9626,0,0,-9.9626,132.554,53.495004)"/>
<path transform="matrix(1,0,0,-1,1.2949982,74.832)" d="M180.54312 20.84094C180.54312 25.4896 176.77474 29.25798 172.1261 29.25798 167.47745 29.25798 163.70906 25.4896 163.70906 20.84094 163.70906 16.1923 167.47745 12.42392 172.1261 12.42392 176.77474 12.42392 180.54312 16.1923 180.54312 20.84094ZM172.1261 20.84094" fill="#ffffff"/>
<use data-text="2" xlink:href="#font_3_4" transform="matrix(9.9626,0,0,-9.9626,167.912,57.201)"/>
<use data-text="&#x03c0;" xlink:href="#font_2_1" transform="matrix(9.9626,0,0,-9.9626,172.893,57.201)"/>
<path transform="matrix(1,0,0,-1,1.2949982,74.832)" stroke-width=".19925" stroke-linecap="butt" stroke-miterlimit="10" stroke-linejoin="miter" fill="none" stroke="#d9d9d9" d="M10.84828 60.29515H182.01009"/>
<path transform="matrix(1,0,0,-1,1.2949982,74.832)" stroke-width=".19925" stroke-linecap="butt" stroke-miterlimit="10" stroke-linejoin="miter" fill="none" stroke="#7f807f" d="M94.30331 60.29515H98.55504"/>
<use data-text="1" xlink:href="#font_4_82" transform="matrix(9.9626,0,0,-9.9626,87.097,17.854)"/>
<path transform="matrix(1,0,0,-1,1.2949982,74.832)" stroke-width=".79701" stroke-linecap="butt" stroke-miterlimit="10" stroke-linejoin="miter" fill="none" stroke="#000000" d="M0 3.1784C0 3.1784 1.31938 2.8665 1.82611 2.87291 2.33284 2.8793 3.14551 3.03668 3.65224 3.22462 4.15897 3.41257 4.97162 3.86232 5.47836 4.22754 5.9851 4.59277 6.79776 5.32317 7.3045 5.85693 7.81123 6.3907 8.62389 7.38445 9.13062 8.07466 9.63734 8.76488 10.45 10.00058 10.95674 10.83159 11.46349 11.66258 12.27614 13.11137 12.78288 14.06396 13.28963 15.01656 14.10228 16.64471 14.60901 17.69717 15.11572 18.74963 15.92838 20.52116 16.43512 21.64938 16.94186 22.77762 17.75452 24.65071 18.26126 25.8287 18.768 27.00668 19.58066 28.93883 20.08739 30.13953 20.59412 31.34023 21.40678 33.28635 21.91351 34.4825 22.42024 35.67865 23.23288 37.59627 23.73962 38.76059 24.24637 39.9249 25.05902 41.76859 25.56577 42.87415 26.07251 43.9797 26.88516 45.70726 27.39189 46.72873 27.89862 47.7502 28.71127 49.32208 29.21802 50.23618 29.72476 51.15027 30.53741 52.53123 31.04414 53.31699 31.55089 54.10272 32.36354 55.26012 32.87027 55.89934 33.377 56.53857 34.18965 57.44582 34.6964 57.9241 35.20314 58.40239 36.0158 59.04004 36.52254 59.3465 37.02928 59.65295 37.84193 60.00558 38.34865 60.1329 38.85538 60.26022 39.66805 60.31874 40.17477 60.26413 40.6815 60.20952 41.49416 59.97433 42.0009 59.73927 42.50764 59.5042 43.3203 58.9803 43.82704 58.56982 44.33379 58.15936 45.14644 57.35727 45.65315 56.78079 46.15988 56.20432 46.97253 55.1439 47.47928 54.41493 47.98602 53.68594 48.79868 52.39172 49.30542 51.52678 49.81216 50.66183 50.62482 49.1622 51.13155 48.18097 51.63828 47.19975 52.45093 45.52951 52.95767 44.45474 53.4644 43.37997 54.27705 41.57857 54.7838 40.43478 55.29054 39.29099 56.1032 37.39766 56.60992 36.21095 57.11665 35.02425 57.92932 33.08401 58.43605 31.88176 58.94278 30.67952 59.75543 28.73637 60.26218 27.54596 60.7689 26.35556 61.58156 24.45335 62.0883 23.30206 62.59505 22.15077 63.4077 20.33395 63.91443 19.2482 64.42116 18.16245 65.23381 16.47203 65.74055 15.4766 66.2473 14.48116 67.05995 12.95576 67.5667 12.07367 68.07344 11.19156 68.88608 9.86761 69.3928 9.11891 69.89954 8.37022 70.71219 7.27585 71.21893 6.67754 71.72568 6.07924 72.53833 5.24055 73.04507 4.80666 73.55182 4.37277 74.36447 3.80986 74.8712 3.55022 75.37793 3.29057 76.1906 3.01476 76.69731 2.93521 77.20404 2.85565 78.0167 2.87444 78.52344 2.97684 79.03018 3.07925 79.84283 3.39136 80.34958 3.6734 80.85632 3.95544 81.66898 4.55435 82.1757 5.00966 82.68243 5.46495 83.49509 6.33682 84.00182 6.95488 84.50856 7.57295 85.32121 8.69772 85.82796 9.46432 86.3347 10.23091 87.14735 11.58249 87.65408 12.47993 88.16081 13.37738 88.97346 14.92455 89.48021 15.93254 89.98695 16.94055 90.7996 18.64937 91.30634 19.74493 91.81308 20.84048 92.62573 22.67088 93.13246 23.82863 93.63919 24.98636 94.45184 26.89583 94.95859 28.08919 95.46533 29.28255 96.27798 31.22772 96.78473 32.42958 97.29147 33.63144 98.10413 35.56851 98.61086 36.75133 99.11757 37.93413 99.93022 39.81795 100.43697 40.95445 100.94371 42.09097 101.75636 43.87827 102.2631 44.94257 102.76985 46.00685 103.5825 47.65747 104.08923 48.62515 104.59596 49.59283 105.40862 51.06808 105.91536 51.91698 106.42209 52.76588 107.23474 54.03276 107.74149 54.74338 108.24823 55.454 109.06087 56.4825 109.56761 57.03862 110.07436 57.59474 110.88701 58.3627 111.39375 58.75159 111.9005 59.14046 112.71315 59.62892 113.21988 59.84149 113.72661 60.05406 114.53926 60.25203 115.04599 60.28365 115.55272 60.31528 116.36537 60.21951 116.87212 60.06946 117.37886 59.9194 118.19151 59.53061 118.69826 59.20207 119.205 58.87355 120.01765 58.20085 120.52438 57.70158 121.03111 57.2023 121.84377 56.26222 122.3505 55.6036 122.85724 54.94498 123.66989 53.75764 124.17664 52.95464 124.68338 52.15164 125.49603 50.74489 126.00276 49.81613 126.50949 48.88736 127.32214 47.29407 127.82889 46.26073 128.33563 45.22739 129.14829 43.48297 129.65502 42.36853 130.16176 41.25409 130.97441 39.39832 131.48114 38.22855 131.98787 37.05876 132.80054 35.1358 133.30727 33.93755 133.814 32.73927 134.62665 30.79172 135.13339 29.59227 135.64014 28.39282 136.45279 26.46577 136.95952 25.29265 137.46627 24.11952 138.27892 22.25726 138.78565 21.13718 139.29238 20.01707 140.10503 18.26083 140.61177 17.2197 141.11852 16.17856 141.93117 14.57162 142.43791 13.6333 142.94466 12.69496 143.75731 11.27124 144.26404 10.45688 144.77075 9.64253 145.5834 8.43536 146.09015 7.76399 146.5969 7.09262 147.40955 6.13107 147.91629 5.61806 148.42304 5.10503 149.23569 4.40965 149.74242 4.06647 150.24915 3.72328 151.06182 3.30988 151.56855 3.14452 152.07526 2.97917 152.88791 2.85822 153.39466 2.87462 153.9014 2.89102 154.71405 3.06519 155.2208 3.2628 155.72754 3.46043 156.54019 3.92465 157.04692 4.29904 157.55365 4.67342 158.3663 5.41858 158.87305 5.96117 159.37979 6.50374 160.19243 7.51143 160.69918 8.20961 161.20592 8.90779 162.01857 10.15529 162.5253 10.99323 163.03203 11.83116 163.84468 13.2903 164.35143 14.24889 164.85817 15.20747 165.67082 16.845 166.17757 17.90219 166.68431 18.95938 167.49697 20.73701 168.00368 21.86847 168.5104 22.99992 169.32308 24.87704 169.8298 26.05698 170.33654 27.23691 171.14919 29.17142 171.65593 30.37267 172.16268 31.57391 172.97533 33.51965 173.48207 34.71477 173.98882 35.9099 174.80147 37.8245 175.30818 38.98625 175.81491 40.14803 176.62757 41.98633 177.13431 43.08806 177.64105 44.18979 178.4537 45.91043 178.96045 46.92685 179.4672 47.94325 180.78658 50.41364 180.78658 50.41364"/>
<use data-text="s" xlink:href="#font_3_7" transform="matrix(9.9626,0,0,-9.9626,185.601,26.909)"/>
<use data-text="i" xlink:href="#font_3_5" transform="matrix(9.9626,0,0,-9.9626,189.52626,26.909)"/>
<use data-text="n" xlink:href="#font_3_6" transform="matrix(9.9626,0,0,-9.9626,192.2859,26.909)"/>
<use data-text="(" xlink:href="#font_3_1" transform="matrix(9.9626,0,0,-9.9626,197.81516,26.909)"/>
<use data-text="x" xlink:href="#font_2_2" transform="matrix(9.9626,0,0,-9.9626,201.707,26.909)"/>
<use data-text=")" xlink:href="#font_3_2" transform="matrix(9.9626,0,0,-9.9626,207.401,26.909)"/>
<use data-text="x" xlink:href="#font_2_2" transform="matrix(9.9626,0,0,-9.9626,186.825,51.058)"/>
<use data-text="y" xlink:href="#font_2_3" transform="matrix(9.9626,0,0,-9.9626,88.962,6.2089998)"/>
</svg>
