<svg xmlns="http://www.w3.org/2000/svg" xmlns:xlink="http://www.w3.org/1999/xlink" xmlns:inkscape="http://www.inkscape.org/namespaces/inkscape" version="1.1" width="148" height="136" viewBox="0 0 148 136">
<defs>
<path id="font_1_27" d="M.6899872 .027053833C.6899872 .032058717 .6899872 .034057619 .68499758 .047088624L.47399903 .6513214C.45899964 .69433596 .42999269 .69433596 .4099884 .69433596H.32199098C.3019867 .69433596 .272995 .69433596 .2579956 .6513214L.04699707 .047088624C.041992189 .034057619 .041992189 .032058717 .041992189 .027053833 .041992189 0 .066986087 0 .08099365 0H.116989139C.1349945 0 .1659851 0 .17999268 .04006958L.21899414 .1512909H.49598695L.5299988 .055099489C.5419922 .02003479 .548996 0 .5970001 0H.651001C.6649933 0 .6899872 0 .6899872 .027053833M.46598817 .23730469H.24899292L.32099916 .4493103C.33599855 .49331666 .34899903 .53131106 .35699464 .5673218H.35798646C.36299134 .5433197 .36299134 .5413208 .37098695 .51831057L.46598817 .23730469Z"/>
<path id="font_1_34" d="M.67099 .19406128C.67099 .3351593 .5319977 .35716249 .49499513 .36317445 .58699038 .3841858 .6399994 .43621827 .6399994 .51426699 .6399994 .69433596 .4269867 .69433596 .3849945 .69433596H.13899231C.102996829 .69433596 .09098816 .68333438 .09098816 .6463318V.04798889C.09098816 .011993408 .101989749 0 .13899231 0H.41299439C.4869995 .00018310547 .67099 .013183594 .67099 .19418335V.19406128M.5039978 .511261C.5039978 .39718629 .37298585 .39718629 .34799195 .39718629H.23199463V.60832217H.34899903C.3880005 .6081848 .5039978 .6051941 .5039978 .5111847V.511261M.5319977 .19607544C.5319977 .09300232 .4249878 .085998538 .3769989 .085998538H.23199463V.3251953H.35798646C.3929901 .32499696 .5319977 .32499696 .5319977 .19599915V.19607544Z"/>
<path id="font_1_42" d="M.6459961 .058242799 .6380005 .14422608C.6380005 .15022278 .6319885 .15522766 .6259918 .15522766 .6230011 .15522766 .62098696 .15422058 .6179962 .15322876 .59098818 .13223267 .56199648 .11224365 .5289917 .101242069 .49598695 .09025574 .46099855 .08924866 .4269867 .08924866 .36499024 .08924866 .30299378 .10624695 .2630005 .15222168 .21798706 .2052002 .20799256 .2771759 .20799256 .3471527 .20799256 .41711427 .21798706 .48908998 .2630005 .5420685 .30299378 .5890503 .36499024 .6060486 .4269867 .6060486 .45700074 .6060486 .48799134 .6020508 .5169983 .5910492 .54599 .5800476 .57099917 .5630646 .59399417 .5420685 .59599307 .5400696 .598999 .53907778 .60198977 .53907778 .60899356 .53907778 .6139984 .5440674 .61499026 .54907229L.6339874 .65605166C.6339874 .66404727 .6299896 .66804507 .6259918 .67004397 .59399417 .6820526 .5609894 .6920471 .5279999 .6980438 .49398805 .7040405 .45999146 .7060547 .4269867 .7060547 .32699586 .7060547 .22399903 .68504336 .15299988 .6160431 .08299255 .54707339 .06098938 .44610597 .06098938 .3471527 .06098938 .24919129 .08299255 .14822388 .15299988 .07925415 .22399903 .009246826 .32699586-.0107421879 .4269867-.0107421879 .46398927-.0107421879 .5019989-.009750366 .5379944 .00024414063 .57398989 .010253906 .6069946 .027252198 .6399994 .04624939 .6429901 .04824829 .6459961 .052246095 .6459961 .058242799Z"/>
<path id="font_2_121" d="M.47200013 .324646C.47200013 .419693 .46499635 .50772097 .41799928 .5867615 .3849945 .6417694 .32299806 .67578127 .25698854 .67578127 .20698548 .67578127 .13598633 .6567688 .09098816 .5787506 .04399109 .49972535 .040985109 .39367677 .040985109 .324646 .040985109 .2746277 .040985109 .1605835 .085998538 .07954407 .13598633-.008468628 .21199036-.022460938 .2559967-.022460938 .31399537-.022460938 .38598634 .0015258789 .42900086 .08454895 .46699525 .15757752 .47200013 .24461365 .47200013 .324646M.3889923 .33665467C.3889923 .26863099 .3889923 .19960022 .3659973 .13456726 .34298707 .0655365 .29599 .042526246 .25698854 .042526246 .12399292 .042526246 .12399292 .24261475 .12399292 .33665467 .12399292 .39968873 .12399292 .45069886 .13899231 .5027313 .1579895 .5717468 .19898987 .6107788 .2559967 .6107788 .3889923 .6107788 .3889923 .4296875 .3889923 .33665467Z"/>
<path id="font_2_88" d="M.18499756 0V.085998538H.09899902V0H.18499756Z"/>
<path id="font_2_107" d="M.46199037 0V.07499695H.27398683C.2619934 .07499695 .25 .07398987 .23799134 .07398987H.12799073L.2919922 .22293091C.39698792 .30889894 .46199037 .36286927 .46199037 .45983888 .46199037 .5747833 .3789978 .67578127 .24299622 .67578127 .13699341 .67578127 .07398987 .6147766 .042999269 .5158081L.08898926 .45783998C.114990238 .5747833 .16699219 .6077728 .22898865 .6077728 .31799317 .6077728 .37399293 .5397949 .37399293 .45783998 .37399293 .36686708 .30999757 .30889894 .23599243 .24291992L.050994874 .067993167V0H.46199037Z"/>
<path id="font_2_51" d="M.46998597 .18099976C.46998597 .24398804 .43199159 .31698609 .32998658 .35398866 .3929901 .37199403 .45599366 .42599488 .45599366 .5009918 .45599366 .59277346 .36999513 .67578127 .25698854 .67578127 .13999939 .67578127 .056991579 .59077456 .056991579 .5007782 .056991579 .425766 .11999512 .3717804 .18299866 .35377503 .07699585 .31576539 .042999269 .23977661 .042999269 .18077088 .042999269 .07055664 .13798523-.022460938 .2559967-.022460938 .37799073-.022460938 .46998597 .07255554 .46998597 .18063355V.18099976M.38198854 .49975587C.38198854 .43774415 .33898927 .3857422 .2559967 .3857422 .17799378 .3857422 .1309967 .43374635 .1309967 .49975587 .1309967 .5667572 .1789856 .61376956 .2559967 .61376956 .33799745 .61376956 .38198854 .5637665 .38198854 .49975587M.38398744 .18063355C.38398744 .087524417 .32299806 .042526246 .25698854 .042526246 .18598938 .042526246 .1289978 .090530399 .1289978 .18052674 .1289978 .287735 .20498657 .32073976 .2559967 .32073976 .31298829 .32073976 .38398744 .28373719 .38398744 .18074036V.18063355Z"/>
<path id="font_2_82" d="M.43699647 0V.06199646H.30899049V.67578127H.28799439C.22099304 .6108246 .125 .6108246 .08999634 .6108246V.5488281C.117996219 .5488281 .16899109 .5488281 .22399903 .5718231V.06199646H.09599304V0H.43699647Z"/>
<path id="font_2_101" d="M.46998597 .22270203C.46998597 .27876283 .46199037 .32881166 .42799378 .3828125 .3880005 .44587709 .35299684 .46289063 .30599977 .46289063 .2679901 .46289063 .19400025 .45188905 .13198853 .38079835 .14299011 .5148468 .21099854 .61376956 .31799317 .61376956 .33799745 .61376956 .375 .6127777 .42599488 .5927887V.655777C.37799073 .6737671 .33898927 .67578127 .31698609 .67578127 .17298889 .67578127 .042999269 .53582766 .042999269 .32080079 .042999269 .046539308 .1639862-.022460938 .2579956-.022460938 .31900025-.022460938 .36299134-.00047302247 .40299989 .044540407 .45098878 .097579959 .46998597 .14363098 .46998597 .22270203M.3829956 .22270203C.3829956 .18367005 .3829956 .1426239 .35699464 .099594119 .33799745 .06956482 .30999757 .042526246 .2579956 .042526246 .15098572 .042526246 .13598633 .18566895 .1329956 .21870423 .1329956 .23271179 .1329956 .23472595 .13398743 .24572754 .13398743 .32180787 .18199158 .39788819 .2630005 .39788819 .30099488 .39788819 .33499146 .38380433 .36099244 .33680726 .3809967 .30078126 .3829956 .26875306 .3829956 .22270203Z"/>
<path id="font_2_106" d="M.46998597 .18063355C.46998597 .25968934 .4119873 .32572938 .32998658 .35273744 .3999939 .3887329 .44198609 .4537506 .44198609 .52275088 .44198609 .60876467 .35699464 .67578127 .2539978 .67578127 .16999817 .67578127 .09899902 .6327667 .056991579 .5697632L.09599304 .51275637C.13999939 .5997772 .21598816 .61376956 .25299073 .61376956 .3039856 .61376956 .35398866 .58576968 .35398866 .52275088 .35398866 .4857483 .33299256 .3997345 .22499085 .38974 .20599365 .3877411 .18998719 .386734 .17098999 .3857422V.32073976H.24598694C.34298707 .32073976 .37399293 .24168396 .37399293 .18164063 .37399293 .10256958 .32699586 .042526246 .25099183 .042526246 .16899109 .042526246 .09298706 .08757019 .054992677 .14160156 .04699707 .10157776 .04699707 .09957886 .042999269 .077560428 .09199524 .01852417 .16799927-.022460938 .25299073-.022460938 .3789978-.022460938 .46998597 .07556152 .46998597 .18063355Z"/>
<path id="font_2_56" d="M.46199037 .20275879C.46199037 .32676698 .37298585 .42578126 .2669983 .42578126 .2539978 .42578126 .20498657 .42578126 .1579895 .3857727V.58628848H.4269867V.6542969H.08099365V.2817688H.15299988C.18499756 .35577394 .24598694 .3607788 .2649994 .3607788 .30599977 .3607788 .3659973 .32977296 .3659973 .20375061 .3659973 .08163452 .2939911 .042526246 .23399353 .042526246 .18199158 .042526246 .11399841 .067596439 .07499695 .13476563L.038986207 .0756073C.054992677 .05355835 .12199402-.022460938 .23498535-.022460938 .3600006-.022460938 .46199037 .07762146 .46199037 .20275879Z"/>
</defs>
<path transform="matrix(1.00005,0,0,-1.00006,14.230759,98.376117)" d="M11.93512 0C11.93512 6.59166 6.59166 11.93512 0 11.93512-6.59166 11.93512-11.93512 6.59166-11.93512 0-11.93512-6.59166-6.59166-11.93512 0-11.93512 6.59166-11.93512 11.93512-6.59166 11.93512 0ZM0 0" fill="#ccccff"/>
<path transform="matrix(1.00005,0,0,-1.00006,14.230759,98.376117)" stroke-width=".79701" stroke-linecap="butt" stroke-miterlimit="10" stroke-linejoin="miter" fill="none" stroke="#000000" d="M11.93512 0C11.93512 6.59166 6.59166 11.93512 0 11.93512-6.59166 11.93512-11.93512 6.59166-11.93512 0-11.93512-6.59166-6.59166-11.93512 0-11.93512 6.59166-11.93512 11.93512-6.59166 11.93512 0ZM0 0"/>
<use data-text="A" xlink:href="#font_1_27" transform="matrix(14.346916,0,0,-14.34706,8.972496,103.354419)"/>
<path transform="matrix(1.00005,0,0,-1.00006,14.230759,98.376117)" d="M72.06787 60.13274C72.06787 66.72441 66.72441 72.06787 60.13274 72.06787 53.54108 72.06787 48.1976 66.72441 48.1976 60.13274 48.1976 53.54108 53.54108 48.1976 60.13274 48.1976 66.72441 48.1976 72.06787 53.54108 72.06787 60.13274ZM60.13274 60.13274" fill="#ccccff"/>
<path transform="matrix(1.00005,0,0,-1.00006,14.230759,98.376117)" stroke-width=".79701" stroke-linecap="butt" stroke-miterlimit="10" stroke-linejoin="miter" fill="none" stroke="#000000" d="M72.06787 60.13274C72.06787 66.72441 66.72441 72.06787 60.13274 72.06787 53.54108 72.06787 48.1976 66.72441 48.1976 60.13274 48.1976 53.54108 53.54108 48.1976 60.13274 48.1976 66.72441 48.1976 72.06787 53.54108 72.06787 60.13274ZM60.13274 60.13274"/>
<use data-text="B" xlink:href="#font_1_34" transform="matrix(14.346916,0,0,-14.34706,69.108509,43.217809)"/>
<path transform="matrix(1.00005,0,0,-1.00006,14.230759,98.376117)" d="M132.17046 0C132.17046 6.575 126.8405 11.90497 120.26549 11.90497 113.69048 11.90497 108.36052 6.575 108.36052 0 108.36052-6.575 113.69048-11.90497 120.26549-11.90497 126.8405-11.90497 132.17046-6.575 132.17046 0ZM120.26549 0" fill="#ccccff"/>
<path transform="matrix(1.00005,0,0,-1.00006,14.230759,98.376117)" stroke-width=".79701" stroke-linecap="butt" stroke-miterlimit="10" stroke-linejoin="miter" fill="none" stroke="#000000" d="M132.17046 0C132.17046 6.575 126.8405 11.90497 120.26549 11.90497 113.69048 11.90497 108.36052 6.575 108.36052 0 108.36052-6.575 113.69048-11.90497 120.26549-11.90497 126.8405-11.90497 132.17046-6.575 132.17046 0ZM120.26549 0"/>
<use data-text="C" xlink:href="#font_1_42" transform="matrix(14.346916,0,0,-14.34706,129.4595,103.36141)"/>
<path transform="matrix(1.00005,0,0,-1.00006,14.230759,98.376117)" stroke-width=".79701" stroke-linecap="butt" stroke-miterlimit="10" stroke-linejoin="miter" fill="none" stroke="#000000" d="M3.19217 11.9132C9.64517 35.99606 24.13667 50.48755 45.87152 56.31142"/>
<path transform="matrix(.96595826,-.25883553,-.25883294,-.96596798,60.104574,42.061319)" d="M1.0361 0C-.25902 .25902-1.55415 .77707-3.1083 1.68365-1.55415 .51805-1.55415-.51805-3.1083-1.68365-1.55415-.77707-.25902-.25902 1.0361 0Z"/>
<path transform="matrix(.96595826,-.25883553,-.25883294,-.96596798,60.104574,42.061319)" stroke-width=".79701" stroke-linecap="butt" stroke-linejoin="round" fill="none" stroke="#000000" d="M1.0361 0C-.25902 .25902-1.55415 .77707-3.1083 1.68365-1.55415 .51805-1.55415-.51805-3.1083-1.68365-1.55415-.77707-.25902-.25902 1.0361 0Z"/>
<use data-text="0" xlink:href="#font_2_121" transform="matrix(8.966848,0,0,-8.966938,17.824936,53.41942)"/>
<use data-text="." xlink:href="#font_2_88" transform="matrix(8.966848,0,0,-8.966938,22.433899,53.41942)"/>
<use data-text="2" xlink:href="#font_2_107" transform="matrix(8.966848,0,0,-8.966938,24.998414,53.41942)"/>
<path transform="matrix(1.00005,0,0,-1.00006,14.230759,98.376117)" stroke-width=".79701" stroke-linecap="butt" stroke-miterlimit="10" stroke-linejoin="miter" fill="none" stroke="#000000" d="M3.1918-11.91339C8.3461-31.14935-8.3461-31.14935-3.82088-14.26144"/>
<path transform="matrix(.25880293,-.9659879,-.9659782,-.2588055,10.4096779,112.63841)" d="M1.0361 0C-.25902 .25902-1.55415 .77707-3.1083 1.68365-1.55415 .51805-1.55415-.51805-3.1083-1.68365-1.55415-.77707-.25902-.25902 1.0361 0Z"/>
<path transform="matrix(.25880293,-.9659879,-.9659782,-.2588055,10.4096779,112.63841)" stroke-width=".79701" stroke-linecap="butt" stroke-linejoin="round" fill="none" stroke="#000000" d="M1.0361 0C-.25902 .25902-1.55415 .77707-3.1083 1.68365-1.55415 .51805-1.55415-.51805-3.1083-1.68365-1.55415-.77707-.25902-.25902 1.0361 0Z"/>
<use data-text="0" xlink:href="#font_2_121" transform="matrix(8.966848,0,0,-8.966938,8.339462,134.49929)"/>
<use data-text="." xlink:href="#font_2_88" transform="matrix(8.966848,0,0,-8.966938,12.948425,134.49929)"/>
<use data-text="8" xlink:href="#font_2_51" transform="matrix(8.966848,0,0,-8.966938,15.512939,134.49929)"/>
<path transform="matrix(1.00005,0,0,-1.00006,14.230759,98.376117)" stroke-width=".79701" stroke-linecap="butt" stroke-miterlimit="10" stroke-linejoin="miter" fill="none" stroke="#000000" d="M56.94057 48.21954C50.48755 24.13667 35.99606 9.64517 14.26122 3.82132"/>
<path transform="matrix(-.96595826,.25883553,.25883294,.96596798,28.492691,94.554569)" d="M1.0361 0C-.25902 .25902-1.55415 .77707-3.1083 1.68365-1.55415 .51805-1.55415-.51805-3.1083-1.68365-1.55415-.77707-.25902-.25902 1.0361 0Z"/>
<path transform="matrix(-.96595826,.25883553,.25883294,.96596798,28.492691,94.554569)" stroke-width=".79701" stroke-linecap="butt" stroke-linejoin="round" fill="none" stroke="#000000" d="M1.0361 0C-.25902 .25902-1.55415 .77707-3.1083 1.68365-1.55415 .51805-1.55415-.51805-3.1083-1.68365-1.55415-.77707-.25902-.25902 1.0361 0Z"/>
<use data-text="0" xlink:href="#font_2_121" transform="matrix(8.966848,0,0,-8.966938,39.769037,75.36374)"/>
<use data-text="." xlink:href="#font_2_88" transform="matrix(8.966848,0,0,-8.966938,44.378,75.36374)"/>
<use data-text="1" xlink:href="#font_2_82" transform="matrix(8.966848,0,0,-8.966938,46.942514,75.36374)"/>
<path transform="matrix(1.00005,0,0,-1.00006,14.230759,98.376117)" stroke-width=".79701" stroke-linecap="butt" stroke-miterlimit="10" stroke-linejoin="miter" fill="none" stroke="#000000" d="M56.94093 72.04614C51.78662 91.28209 68.47885 91.28209 63.95361 74.39418"/>
<path transform="matrix(-.25880293,.9659879,.9659782,.2588055,78.18758,23.97747)" d="M1.0361 0C-.25902 .25902-1.55415 .77707-3.1083 1.68365-1.55415 .51805-1.55415-.51805-3.1083-1.68365-1.55415-.77707-.25902-.25902 1.0361 0Z"/>
<path transform="matrix(-.25880293,.9659879,.9659782,.2588055,78.18758,23.97747)" stroke-width=".79701" stroke-linecap="butt" stroke-linejoin="round" fill="none" stroke="#000000" d="M1.0361 0C-.25902 .25902-1.55415 .77707-3.1083 1.68365-1.55415 .51805-1.55415-.51805-3.1083-1.68365-1.55415-.77707-.25902-.25902 1.0361 0Z"/>
<use data-text="0" xlink:href="#font_2_121" transform="matrix(8.966848,0,0,-8.966938,68.475467,7.981697)"/>
<use data-text="." xlink:href="#font_2_88" transform="matrix(8.966848,0,0,-8.966938,73.08443,7.981697)"/>
<use data-text="6" xlink:href="#font_2_101" transform="matrix(8.966848,0,0,-8.966938,75.64894,7.981697)"/>
<path transform="matrix(1.00005,0,0,-1.00006,14.230759,98.376117)" stroke-width=".79701" stroke-linecap="butt" stroke-miterlimit="10" stroke-linejoin="miter" fill="none" stroke="#000000" d="M72.04594 56.94057C96.1421 50.47813 110.62961 35.98317 116.45256 14.23222"/>
<path transform="matrix(.2585929,.9660279,.9660182,-.2585955,130.68912,84.14302)" d="M1.0361 0C-.25902 .25902-1.55415 .77707-3.1083 1.68365-1.55415 .51805-1.55415-.51805-3.1083-1.68365-1.55415-.77707-.25902-.25902 1.0361 0Z"/>
<path transform="matrix(.2585929,.9660279,.9660182,-.2585955,130.68912,84.14302)" stroke-width=".79701" stroke-linecap="butt" stroke-linejoin="round" fill="none" stroke="#000000" d="M1.0361 0C-.25902 .25902-1.55415 .77707-3.1083 1.68365-1.55415 .51805-1.55415-.51805-3.1083-1.68365-1.55415-.77707-.25902-.25902 1.0361 0Z"/>
<use data-text="0" xlink:href="#font_2_121" transform="matrix(8.966848,0,0,-8.966938,119.135,53.43142)"/>
<use data-text="." xlink:href="#font_2_88" transform="matrix(8.966848,0,0,-8.966938,123.743968,53.43142)"/>
<use data-text="3" xlink:href="#font_2_106" transform="matrix(8.966848,0,0,-8.966938,126.30848,53.43142)"/>
<path transform="matrix(1.00005,0,0,-1.00006,14.230759,98.376117)" stroke-width=".79701" stroke-linecap="butt" stroke-miterlimit="10" stroke-linejoin="miter" fill="none" stroke="#000000" d="M107.962 0H14.76451"/>
<path transform="matrix(-1.00005,-0,0,1.00006,28.996006,98.376117)" d="M1.0361 0C-.25902 .25902-1.55415 .77707-3.1083 1.68365-1.55415 .51805-1.55415-.51805-3.1083-1.68365-1.55415-.77707-.25902-.25902 1.0361 0Z"/>
<path transform="matrix(-1.00005,-0,0,1.00006,28.996006,98.376117)" stroke-width=".79701" stroke-linecap="butt" stroke-linejoin="round" fill="none" stroke="#000000" d="M1.0361 0C-.25902 .25902-1.55415 .77707-3.1083 1.68365-1.55415 .51805-1.55415-.51805-3.1083-1.68365-1.55415-.77707-.25902-.25902 1.0361 0Z"/>
<use data-text="0" xlink:href="#font_2_121" transform="matrix(8.966848,0,0,-8.966938,68.49046,94.45988)"/>
<use data-text="." xlink:href="#font_2_88" transform="matrix(8.966848,0,0,-8.966938,73.09943,94.45988)"/>
<use data-text="2" xlink:href="#font_2_107" transform="matrix(8.966848,0,0,-8.966938,75.66394,94.45988)"/>
<path transform="matrix(1.00005,0,0,-1.00006,14.230759,98.376117)" stroke-width=".79701" stroke-linecap="butt" stroke-miterlimit="10" stroke-linejoin="miter" fill="none" stroke="#000000" d="M108.38142 3.18437C84.28232 9.63588 69.78735 24.12337 63.95454 45.87167"/>
<path transform="matrix(-.25903294,-.96590796,-.9658982,.25903554,78.18851,52.501695)" d="M1.0361 0C-.25902 .25902-1.55415 .77707-3.1083 1.68365-1.55415 .51805-1.55415-.51805-3.1083-1.68365-1.55415-.77707-.25902-.25902 1.0361 0Z"/>
<path transform="matrix(-.25903294,-.96590796,-.9658982,.25903554,78.18851,52.501695)" stroke-width=".79701" stroke-linecap="butt" stroke-linejoin="round" fill="none" stroke="#000000" d="M1.0361 0C-.25902 .25902-1.55415 .77707-3.1083 1.68365-1.55415 .51805-1.55415-.51805-3.1083-1.68365-1.55415-.77707-.25902-.25902 1.0361 0Z"/>
<use data-text="0" xlink:href="#font_2_121" transform="matrix(8.966848,0,0,-8.966938,97.1929,75.372737)"/>
<use data-text="." xlink:href="#font_2_88" transform="matrix(8.966848,0,0,-8.966938,101.801868,75.372737)"/>
<use data-text="3" xlink:href="#font_2_106" transform="matrix(8.966848,0,0,-8.966938,104.36638,75.372737)"/>
<path transform="matrix(1.00005,0,0,-1.00006,14.230759,98.376117)" stroke-width=".79701" stroke-linecap="butt" stroke-miterlimit="10" stroke-linejoin="miter" fill="none" stroke="#000000" d="M123.44948-11.88425C128.59117-31.0731 111.9398-31.0731 116.45242-14.2323"/>
<path transform="matrix(.25880293,-.9659879,-.9659782,-.2588055,130.68898,112.60927)" d="M1.0361 0C-.25902 .25902-1.55415 .77707-3.1083 1.68365-1.55415 .51805-1.55415-.51805-3.1083-1.68365-1.55415-.77707-.25902-.25902 1.0361 0Z"/>
<path transform="matrix(.25880293,-.9659879,-.9659782,-.2588055,130.68898,112.60927)" stroke-width=".79701" stroke-linecap="butt" stroke-linejoin="round" fill="none" stroke="#000000" d="M1.0361 0C-.25902 .25902-1.55415 .77707-3.1083 1.68365-1.55415 .51805-1.55415-.51805-3.1083-1.68365-1.55415-.77707-.25902-.25902 1.0361 0Z"/>
<use data-text="0" xlink:href="#font_2_121" transform="matrix(8.966848,0,0,-8.966938,128.61048,134.43428)"/>
<use data-text="." xlink:href="#font_2_88" transform="matrix(8.966848,0,0,-8.966938,133.21944,134.43428)"/>
<use data-text="5" xlink:href="#font_2_56" transform="matrix(8.966848,0,0,-8.966938,135.78395,134.43428)"/>
</svg>
