<svg xmlns="http://www.w3.org/2000/svg" xmlns:xlink="http://www.w3.org/1999/xlink" xmlns:inkscape="http://www.inkscape.org/namespaces/inkscape" version="1.1" width="78" height="57" viewBox="0 0 78 57">
<defs>
<path id="font_1_3" d="M.33399964 .30233766C.33999635 .32835389 .36299134 .42037965 .43299867 .42037965 .43798829 .42037965 .46199037 .42037965 .48298646 .40734864 .45498658 .402359 .43499757 .37734986 .43499757 .35334779 .43499757 .33735658 .44599916 .31835938 .47299195 .31835938 .49499513 .31835938 .5269928 .3363495 .5269928 .37635804 .5269928 .42837525 .46798707 .4423828 .43399049 .4423828 .37599183 .4423828 .34098817 .38935853 .32899476 .36634828 .3039856 .43237306 .25 .4423828 .22099304 .4423828 .116989139 .4423828 .05999756 .3133545 .05999756 .28834535 .05999756 .27833558 .069992069 .27833558 .07199097 .27833558 .07998657 .27833558 .08299255 .28033448 .084991458 .28933717 .11898804 .39535523 .18499756 .42037965 .21899414 .42037965 .23799134 .42037965 .272995 .4113617 .272995 .35334779 .272995 .32235719 .2559967 .25532533 .21899414 .11528015 .20298767 .053268434 .16799927 .011245728 .12399292 .011245728 .117996219 .011245728 .09498596 .011245728 .07398987 .024276734 .09899902 .029266358 .12098694 .05027771 .12098694 .07827759 .12098694 .105270389 .09899902 .11328125 .083999637 .11328125 .053985597 .11328125 .0289917 .08728027 .0289917 .055267335 .0289917 .009246826 .07899475-.0107421879 .12298584-.0107421879 .18899536-.0107421879 .22499085 .059280397 .22799683 .0652771 .23999024 .028274537 .27598573-.0107421879 .33599855-.0107421879 .43899537-.0107421879 .49598695 .118270877 .49598695 .14328003 .49598695 .1532898 .4869995 .1532898 .48399354 .1532898 .47499085 .1532898 .47299195 .14929199 .47099305 .14228821 .43798829 .03527832 .36999513 .011245728 .33799745 .011245728 .29899598 .011245728 .2829895 .043273927 .2829895 .07727051 .2829895 .09927368 .2889862 .121276859 .2999878 .16529846L.33399964 .30233766Z"/>
<path id="font_2_1" d="M.33499146 .63612368C.33499146 .6630554 .33299256 .6640625 .30499269 .6640625 .24099732 .6014404 .1499939 .6004486 .10899353 .6004486V.5644531C.1329956 .5644531 .19898987 .5644531 .2539978 .592453V.08203125C.2539978 .04899597 .2539978 .035995485 .1539917 .035995485H.115997318V0C.13398743 .0009918213 .25698854 .0039978029 .2939911 .0039978029 .32499696 .0039978029 .45098878 .0009918213 .47299195 0V.035995485H.43499757C.33499146 .035995485 .33499146 .04899597 .33499146 .08203125V.63612368Z"/>
<path id="font_1_2" d="M.2869873 .68333438C.2869873 .6843262 .2869873 .69433596 .27398683 .69433596 .25099183 .69433596 .17799378 .6863251 .1519928 .6843262 .14399719 .68333438 .1329956 .6823273 .1329956 .6643219 .1329956 .6523285 .14199829 .6523285 .15699768 .6523285 .20498657 .6523285 .20698548 .6453247 .20698548 .6353302L.20399475 .6153412 .05899048 .039260866C.054992677 .025253296 .054992677 .023254395 .054992677 .01725769 .054992677-.0057525637 .07499695-.0107421879 .083999637-.0107421879 .09700012-.0107421879 .11199951-.0017547608 .117996219 .010253906 .12298584 .019256592 .16799927 .20431519 .17399597 .22932434 .20799256 .22631836 .2899933 .21031189 .2899933 .14428711 .2899933 .13729859 .2899933 .13328552 .2869873 .123291019 .2849884 .11128235 .2829895 .09927368 .2829895 .088272098 .2829895 .029251099 .32299806-.0107421879 .375-.0107421879 .40499879-.0107421879 .43199159 .0052490236 .45399476 .042266847 .47898866 .08627319 .48999024 .14129639 .48999024 .14329529 .48999024 .1532898 .48098756 .1532898 .47799684 .1532898 .46798707 .1532898 .46699525 .14929199 .46398927 .13528443 .44400025 .06227112 .42099 .011245728 .3769989 .011245728 .35798646 .011245728 .34498597 .022247315 .34498597 .058273317 .34498597 .07527161 .34899903 .09828186 .35299684 .11428833 .35699464 .13128662 .35699464 .13528443 .35699464 .14529419 .35699464 .21031189 .2939911 .23931885 .20899964 .2503357 .23999024 .26834107 .27198792 .30033876 .29499818 .32435609 .34298707 .37734986 .3889923 .42037965 .43798829 .42037965 .44400025 .42037965 .44499208 .42037965 .44699098 .41937257 .45899964 .41737367 .45999146 .41737367 .46798707 .4113617 .46998597 .4103546 .46998597 .40934754 .47200013 .40734864 .42399598 .4043579 .4149933 .36535646 .4149933 .35334779 .4149933 .33735658 .42599488 .31835938 .45298768 .31835938 .47898866 .31835938 .5079956 .3403473 .5079956 .37934876 .5079956 .40934754 .4850006 .4423828 .43998719 .4423828 .4119873 .4423828 .3659973 .43437196 .2939911 .35435487 .2599945 .3163452 .22099304 .27633668 .18299866 .26133729L.2869873 .68333438Z"/>
<path id="font_1_1" d="M.6749878 .49804688C.68699648 .5040436 .69400027 .50904849 .69400027 .52005007 .69400027 .53105166 .68499758 .5400543 .673996 .5400543 .67099 .5400543 .6689911 .5400543 .6559906 .53305056L.101989749 .27198792C.09098816 .2669983 .08299255 .2619934 .08299255 .24998474 .08299255 .23799134 .09098816 .23298645 .101989749 .22798157L.6559906-.033065797C.6689911-.04006958 .67099-.04006958 .673996-.04006958 .68499758-.04006958 .69400027-.031066895 .69400027-.020065308 .69400027-.009063721 .68699648-.0040740969 .6749878 .0019378662L.1499939 .24998474 .6749878 .49804688Z"/>
<path id="font_3_1" d="M.45999146 .31976319C.45999146 .39982606 .45498658 .47988893 .41999818 .5539398 .37399293 .65000918 .2919922 .6660156 .25 .6660156 .18998719 .6660156 .116989139 .64001467 .07598877 .54693606 .04399109 .47789 .038986207 .39982606 .038986207 .31976319 .038986207 .24472046 .042999269 .15464783 .083999637 .07859802 .1269989-.0024719239 .19999695-.022460938 .24899292-.022460938 .30299378-.022460938 .3789978-.0014648438 .4229889 .09359741 .45498658 .16265869 .45999146 .2407074 .45999146 .31976319M.24899292-.00047302247C.20999146-.00047302247 .15098572 .024551392 .1329956 .12062073 .12199402 .18066406 .12199402 .2727356 .12199402 .3317871 .12199402 .39582826 .12199402 .46188355 .12998963 .5159149 .14898682 .63500979 .22399903 .64401248 .24899292 .64401248 .28199769 .64401248 .34799195 .6259918 .36698915 .52693179 .3769989 .47088624 .3769989 .39482118 .3769989 .3317871 .3769989 .25672914 .3769989 .18867493 .3659973 .12461853 .35099793 .029556275 .2939911-.00047302247 .24899292-.00047302247Z"/>
<path id="font_2_2" d="M.5049896 .18203736H.47099305C.46798707 .16001892 .45799256 .100997928 .44499208 .09098816 .43699647 .084991458 .3600006 .084991458 .34599305 .084991458H.1619873C.2669983 .17803955 .3019867 .20603943 .3619995 .25306703 .43598939 .312088 .5049896 .374115 .5049896 .46914674 .5049896 .5900879 .39898683 .6640625 .2709961 .6640625 .14698792 .6640625 .06298828 .57710269 .06298828 .4851532 .06298828 .43414308 .10598755 .42915345 .115997318 .42915345 .13999939 .42915345 .16899109 .44615174 .16899109 .48214723 .16899109 .5001526 .1619873 .53515627 .10998535 .53515627 .14099121 .6060791 .20899964 .62805178 .2559967 .62805178 .35598756 .62805178 .4079895 .5501404 .4079895 .46914674 .4079895 .38212586 .34599305 .3130951 .31399537 .27708436L.07299805 .038986207C.06298828 .02999878 .06298828 .027999878 .06298828 0H.47499085L.5049896 .18203736Z"/>
</defs>
<path transform="matrix(1.00006,0,0,-1.00002,29.443688,44.49863)" d="M0 22.67752H22.67752V0H0Z" fill="#e5e6e5"/>
<path transform="matrix(1.00006,0,0,-1.00002,29.443688,44.49863)" stroke-width=".3985" stroke-linecap="butt" stroke-miterlimit="10" stroke-linejoin="miter" fill="none" stroke="#b2b3b2" d="M0 22.67752H22.67752V0H0Z"/>
<path transform="matrix(1.00006,0,0,-1.00002,29.443688,44.49863)" d="M-11.33876 22.67752H11.33876L22.67752 0H0Z" fill="#e6e6f5"/>
<path transform="matrix(1.00006,0,0,-1.00002,29.443688,44.49863)" stroke-width=".3985" stroke-linecap="butt" stroke-miterlimit="10" stroke-linejoin="miter" fill="none" stroke="#b3b3e0" d="M-11.33876 22.67752H11.33876L22.67752 0H0Z"/>
<path transform="matrix(1.00006,0,0,-1.00002,29.443688,44.49863)" stroke-width=".3985" stroke-linecap="butt" stroke-miterlimit="10" stroke-linejoin="miter" fill="none" stroke="#000000" d="M-28.3469 0H34.01628"/>
<use data-text="x" xlink:href="#font_1_3" transform="matrix(9.963197,0,0,-9.962799,66.98193,45.89666)"/>
<use data-text="1" xlink:href="#font_2_1" transform="matrix(6.9742186,0,0,-6.97394,72.676288,47.390687)"/>
<path transform="matrix(1.00006,0,0,-1.00002,29.443688,44.49863)" stroke-width=".3985" stroke-linecap="butt" stroke-miterlimit="10" stroke-linejoin="miter" fill="none" stroke="#000000" d="M22.67752 0"/>
<use data-text="k" xlink:href="#font_1_2" transform="matrix(9.963197,0,0,-9.962799,40.239336,54.936838)"/>
<use data-text="&#x003c;" xlink:href="#font_1_1" transform="matrix(9.963197,0,0,-9.962799,48.498826,54.936838)"/>
<use data-text="0" xlink:href="#font_3_1" transform="matrix(9.963197,0,0,-9.962799,59.02446,54.935838)"/>
<path transform="matrix(1.00006,0,0,-1.00002,29.443688,44.49863)" stroke-width=".3985" stroke-linecap="butt" stroke-miterlimit="10" stroke-linejoin="miter" fill="none" stroke="#000000" d="M0-11.33876V39.68567"/>
<use data-text="x" xlink:href="#font_1_3" transform="matrix(9.963197,0,0,-9.962799,15.759865,6.2098658)"/>
<use data-text="2" xlink:href="#font_2_2" transform="matrix(6.9742186,0,0,-6.97394,21.454209,7.7038938)"/>
</svg>
