<svg xmlns="http://www.w3.org/2000/svg" xmlns:xlink="http://www.w3.org/1999/xlink" xmlns:inkscape="http://www.inkscape.org/namespaces/inkscape" version="1.1" width="175" height="120" viewBox="0 0 175 120">
<defs>
<path id="font_1_1" d="M.33399964 .30233766C.33999635 .32835389 .36299134 .42037965 .43299867 .42037965 .43798829 .42037965 .46199037 .42037965 .48298646 .40734864 .45498658 .402359 .43499757 .37734986 .43499757 .35334779 .43499757 .33735658 .44599916 .31835938 .47299195 .31835938 .49499513 .31835938 .5269928 .3363495 .5269928 .37635804 .5269928 .42837525 .46798707 .4423828 .43399049 .4423828 .37599183 .4423828 .34098817 .38935853 .32899476 .36634828 .3039856 .43237306 .25 .4423828 .22099304 .4423828 .116989139 .4423828 .05999756 .3133545 .05999756 .28834535 .05999756 .27833558 .069992069 .27833558 .07199097 .27833558 .07998657 .27833558 .08299255 .28033448 .084991458 .28933717 .11898804 .39535523 .18499756 .42037965 .21899414 .42037965 .23799134 .42037965 .272995 .4113617 .272995 .35334779 .272995 .32235719 .2559967 .25532533 .21899414 .11528015 .20298767 .053268434 .16799927 .011245728 .12399292 .011245728 .117996219 .011245728 .09498596 .011245728 .07398987 .024276734 .09899902 .029266358 .12098694 .05027771 .12098694 .07827759 .12098694 .105270389 .09899902 .11328125 .083999637 .11328125 .053985597 .11328125 .0289917 .08728027 .0289917 .055267335 .0289917 .009246826 .07899475-.0107421879 .12298584-.0107421879 .18899536-.0107421879 .22499085 .059280397 .22799683 .0652771 .23999024 .028274537 .27598573-.0107421879 .33599855-.0107421879 .43899537-.0107421879 .49598695 .118270877 .49598695 .14328003 .49598695 .1532898 .4869995 .1532898 .48399354 .1532898 .47499085 .1532898 .47299195 .14929199 .47099305 .14228821 .43798829 .03527832 .36999513 .011245728 .33799745 .011245728 .29899598 .011245728 .2829895 .043273927 .2829895 .07727051 .2829895 .09927368 .2889862 .121276859 .2999878 .16529846L.33399964 .30233766Z"/>
<path id="font_1_2" d="M.48599244 .38136292C.48999024 .39537049 .48999024 .39736939 .48999024 .40437318 .48999024 .42237855 .47599793 .43138124 .46099855 .43138124 .45098878 .43138124 .43499757 .42536927 .42599488 .41036988 .42399598 .405365 .41600038 .37435914 .4119873 .35635377 .40499879 .33035279 .397995 .30334474 .3919983 .27633668L.34700013 .09628296C.34298707 .08126831 .2999878 .011245728 .23399353 .011245728 .18299866 .011245728 .17199707 .055267335 .17199707 .0922699 .17199707 .1382904 .18899536 .20030213 .22299195 .28833009 .23899842 .3293457 .24299622 .3403473 .24299622 .36035157 .24299622 .405365 .21099854 .4423828 .16099549 .4423828 .06599426 .4423828 .0289917 .29733277 .0289917 .28833009 .0289917 .27833558 .038986207 .27833558 .040985109 .27833558 .050994874 .27833558 .051986696 .28033448 .056991579 .29634095 .083999637 .3903656 .12399292 .42037965 .1579895 .42037965 .1659851 .42037965 .18299866 .42037965 .18299866 .3883667 .18299866 .36335755 .17298889 .3373413 .1659851 .31834413 .12599182 .21231079 .10798645 .1552887 .10798645 .10827637 .10798645 .019256592 .17098999-.0107421879 .22999573-.0107421879 .2689972-.0107421879 .30299378 .0062561037 .33099366 .03425598 .31799317-.017745972 .30599977-.06674194 .2659912-.11973572 .23999024-.15385437 .20199585-.18309021 .1559906-.18309021 .14199829-.18309021 .09700012-.18005371 .07998657-.14074707 .09599304-.14074707 .10899353-.14074707 .12298584-.1287384 .1329956-.11973572 .14299011-.10673523 .14299011-.08773804 .14299011-.056747438 .115997318-.052734376 .10598755-.052734376 .08299255-.052734376 .049987794-.068740848 .049987794-.11773682 .049987794-.16796875 .09399414-.20507813 .1559906-.20507813 .25898744-.20507813 .3619995-.11373901 .3899994-.00074768069L.48599244 .38136292Z"/>
<path id="font_2_1" d="M.6749878 .22944641C.69299319 .22944641 .71199038 .22944641 .71199038 .25144959 .71199038 .27246095 .69200137 .27246095 .6749878 .27246095H.12298584C.10598755 .27246095 .085998538 .27246095 .085998538 .25144959 .085998538 .22944641 .10499573 .22944641 .12298584 .22944641H.6749878Z"/>
<path id="font_3_2" d="M.46199037 .17704773H.43399049C.43199159 .16404724 .42399598 .10501099 .41099549 .08900452 .40499879 .07998657 .33599855 .07998657 .31599427 .07998657H.13798523L.23699951 .17404175C.40098573 .3161316 .46199037 .36915589 .46199037 .4711914 .46199037 .5860901 .36698915 .6660156 .24398804 .6660156 .1289978 .6660156 .050994874 .575119 .050994874 .4841919 .050994874 .43418885 .09399414 .42919923 .102996829 .42919923 .125 .42919923 .15499878 .44519044 .15499878 .48120118 .15499878 .51119998 .13398743 .5332031 .102996829 .5332031 .09799194 .5332031 .09498596 .5332031 .09098816 .53219607 .114990238 .6030731 .1789856 .63500979 .23298645 .63500979 .33499146 .63500979 .36999513 .5401764 .36999513 .4711914 .36999513 .36915589 .29299928 .28611756 .24499512 .23408509L.06199646 .035995485C.050994874 .024993897 .050994874 .022994996 .050994874 0H.43399049L.46199037 .17704773Z"/>
<path id="font_3_1" d="M.3039856 .6392822C.3039856 .6642761 .30299378 .666275 .27799989 .666275 .21598816 .60227969 .12399292 .60227969 .09298706 .60227969V.57128909C.11199951 .57128909 .17298889 .57128909 .22698975 .5972748V.08001709C.22698975 .042999269 .22399903 .0309906 .1309967 .0309906H.09899902V0C.1349945 .0029907227 .22399903 .0029907227 .2649994 .0029907227 .30599977 .0029907227 .3959961 .0029907227 .43199159 0V.0309906H.3999939C.30699159 .0309906 .3039856 .042999269 .3039856 .08001709V.6392822Z"/>
<path id="font_3_3" d="M.30499269 .35195924C.397995 .38697816 .44198609 .46006776 .44198609 .5290985 .44198609 .60606387 .35699464 .6660156 .25299073 .6660156 .14898682 .6660156 .070999149 .60705569 .070999149 .5310974 .070999149 .49809266 .09298706 .47909547 .12199402 .47909547 .15098572 .47909547 .17199707 .50009158 .17199707 .5290985 .17199707 .5640869 .147995 .57910159 .11399841 .57910159 .13999939 .6210327 .20098877 .64100649 .25 .64100649 .33299256 .64100649 .34899903 .5750885 .34899903 .52809146 .34899903 .49809266 .34298707 .45005799 .31799317 .41201783 .2869873 .36695863 .2519989 .36495973 .22299195 .36296083 .19799805 .36094667 .19599915 .36094667 .18798828 .36094667 .1789856 .35995484 .17098999 .35894776 .17098999 .34794618 .17098999 .33496095 .1789856 .33496095 .19599915 .33496095H.24299622C.32998658 .33496095 .36799623 .2646637 .36799623 .16937256 .36799623 .04145813 .2999878 .0055389406 .24899292 .0055389406 .22999573 .0055389406 .1329956 .010528564 .08799744 .0843811 .12399292 .07939148 .1519928 .10437012 .1519928 .13838196 .1519928 .17137146 .1269989 .19238281 .09799194 .19238281 .07299805 .19238281 .042999269 .17736817 .042999269 .13537598 .042999269 .046447755 .13598633-.022460938 .2519989-.022460938 .3769989-.022460938 .46998597 .06741333 .46998597 .16937256 .46998597 .25663758 .40098573 .33093263 .30499269 .35195924Z"/>
</defs>
<path transform="matrix(1.00008,0,0,-1.00003,71.96832,104.24974)" stroke-width=".3985" stroke-linecap="butt" stroke-miterlimit="10" stroke-linejoin="miter" fill="none" stroke="#7f807f" d="M-56.69362 0H85.04042M-56.69362 28.3468H85.04042M-56.69362 56.69362H85.04042M-56.69362 85.03047H85.04042M-56.69362 0V85.04042M-28.3468 0V85.04042M0 0V85.04042M28.3468 0V85.04042M56.69362 0V85.04042M85.03047 0V85.04042M85.04042 85.04042"/>
<path transform="matrix(1.00008,0,0,-1.00003,71.96832,104.24974)" stroke-width=".3985" stroke-linecap="butt" stroke-miterlimit="10" stroke-linejoin="miter" fill="none" stroke="#000000" d="M-70.867 0H98.8153"/>
<path transform="matrix(1.00008,0,0,-1.00003,170.99082,104.24974)" stroke-width=".3985" stroke-linecap="round" stroke-linejoin="round" fill="none" stroke="#000000" d="M-2.07224 2.39104C-1.69365 .95639-.84999 .27895 0 0-.84999-.27895-1.69365-.95639-2.07224-2.39104"/>
<use data-text="x" xlink:href="#font_1_1" transform="matrix(9.963397,0,0,-9.962899,168.34302,112.058979)"/>
<path transform="matrix(1.00008,0,0,-1.00003,71.96832,104.24974)" stroke-width=".3985" stroke-linecap="butt" stroke-miterlimit="10" stroke-linejoin="miter" fill="none" stroke="#000000" d="M0-14.17339V98.8153"/>
<path transform="matrix(0,-1.00003,-1.00008,-0,71.96832,5.232193)" stroke-width=".3985" stroke-linecap="round" stroke-linejoin="round" fill="none" stroke="#000000" d="M-2.07224 2.39104C-1.69365 .95639-.84999 .27895 0 0-.84999-.27895-1.69365-.95639-2.07224-2.39104"/>
<use data-text="y" xlink:href="#font_1_2" transform="matrix(9.963397,0,0,-9.962899,63.20562,6.2087938)"/>
<path transform="matrix(1.00008,0,0,-1.00003,71.96832,104.24974)" d="M-54.7011 0C-54.7011 1.10043-55.59317 1.99252-56.69362 1.99252-57.79405 1.99252-58.68614 1.10043-58.68614 0-58.68614-1.10043-57.79405-1.99252-56.69362-1.99252-55.59317-1.99252-54.7011-1.10043-54.7011 0ZM-56.69362 0"/>
<path transform="matrix(1.00008,0,0,-1.00003,71.96832,104.24974)" stroke-width=".3985" stroke-linecap="butt" stroke-miterlimit="10" stroke-linejoin="miter" fill="none" stroke="#000000" d="M-54.7011 0C-54.7011 1.10043-55.59317 1.99252-56.69362 1.99252-57.79405 1.99252-58.68614 1.10043-58.68614 0-58.68614-1.10043-57.79405-1.99252-56.69362-1.99252-55.59317-1.99252-54.7011-1.10043-54.7011 0ZM-56.69362 0"/>
<path transform="matrix(1.00008,0,0,-1.00003,71.96832,104.24974)" d="M-26.35428 56.69362C-26.35428 57.79405-27.24637 58.68614-28.3468 58.68614-29.44725 58.68614-30.33932 57.79405-30.33932 56.69362-30.33932 55.59317-29.44725 54.7011-28.3468 54.7011-27.24637 54.7011-26.35428 55.59317-26.35428 56.69362ZM-28.3468 56.69362"/>
<path transform="matrix(1.00008,0,0,-1.00003,71.96832,104.24974)" stroke-width=".3985" stroke-linecap="butt" stroke-miterlimit="10" stroke-linejoin="miter" fill="none" stroke="#000000" d="M-26.35428 56.69362C-26.35428 57.79405-27.24637 58.68614-28.3468 58.68614-29.44725 58.68614-30.33932 57.79405-30.33932 56.69362-30.33932 55.59317-29.44725 54.7011-28.3468 54.7011-27.24637 54.7011-26.35428 55.59317-26.35428 56.69362ZM-28.3468 56.69362"/>
<path transform="matrix(1.00008,0,0,-1.00003,71.96832,104.24974)" d="M87.03294 85.04042C87.03294 86.14087 86.14087 87.03294 85.04042 87.03294 83.93999 87.03294 83.0479 86.14087 83.0479 85.04042 83.0479 83.93999 83.93999 83.0479 85.04042 83.0479 86.14087 83.0479 87.03294 83.93999 87.03294 85.04042ZM85.04042 85.04042"/>
<path transform="matrix(1.00008,0,0,-1.00003,71.96832,104.24974)" stroke-width=".3985" stroke-linecap="butt" stroke-miterlimit="10" stroke-linejoin="miter" fill="none" stroke="#000000" d="M87.03294 85.04042C87.03294 86.14087 86.14087 87.03294 85.04042 87.03294 83.93999 87.03294 83.0479 86.14087 83.0479 85.04042 83.0479 83.93999 83.93999 83.0479 85.04042 83.0479 86.14087 83.0479 87.03294 83.93999 87.03294 85.04042ZM85.04042 85.04042"/>
<path transform="matrix(1.00008,0,0,-1.00003,71.96832,104.24974)" stroke-width=".3985" stroke-linecap="butt" stroke-miterlimit="10" stroke-linejoin="miter" fill="none" stroke="#000000" d="M-56.69362 2.83484V-2.83484"/>
<use data-text="&#x2212;" xlink:href="#font_2_1" transform="matrix(8.967117,0,0,-8.966669,9.382309,116.3831)"/>
<use data-text="2" xlink:href="#font_3_2" transform="matrix(8.967117,0,0,-8.966669,16.550889,116.3831)"/>
<path transform="matrix(1.00008,0,0,-1.00003,71.96832,104.24974)" stroke-width=".3985" stroke-linecap="butt" stroke-miterlimit="10" stroke-linejoin="miter" fill="none" stroke="#000000" d="M-28.3468 2.83484V-2.83484"/>
<use data-text="&#x2212;" xlink:href="#font_2_1" transform="matrix(8.967117,0,0,-8.966669,37.731584,116.3831)"/>
<use data-text="1" xlink:href="#font_3_1" transform="matrix(8.967117,0,0,-8.966669,44.90016,116.3831)"/>
<path transform="matrix(1.00008,0,0,-1.00003,71.96832,104.24974)" stroke-width=".3985" stroke-linecap="butt" stroke-miterlimit="10" stroke-linejoin="miter" fill="none" stroke="#000000" d="M28.3468 2.83484V-2.83484"/>
<use data-text="1" xlink:href="#font_3_1" transform="matrix(8.967117,0,0,-8.966669,98.013408,116.3831)"/>
<path transform="matrix(1.00008,0,0,-1.00003,71.96832,104.24974)" stroke-width=".3985" stroke-linecap="butt" stroke-miterlimit="10" stroke-linejoin="miter" fill="none" stroke="#000000" d="M56.69362 2.83484V-2.83484"/>
<use data-text="2" xlink:href="#font_3_2" transform="matrix(8.967117,0,0,-8.966669,126.36267,116.3831)"/>
<path transform="matrix(1.00008,0,0,-1.00003,71.96832,104.24974)" stroke-width=".3985" stroke-linecap="butt" stroke-miterlimit="10" stroke-linejoin="miter" fill="none" stroke="#000000" d="M85.04042 2.83484V-2.83484"/>
<use data-text="3" xlink:href="#font_3_3" transform="matrix(8.967117,0,0,-8.966669,154.71195,116.3831)"/>
<path transform="matrix(1.00008,0,0,-1.00003,71.96832,104.24974)" stroke-width=".3985" stroke-linecap="butt" stroke-miterlimit="10" stroke-linejoin="miter" fill="none" stroke="#000000" d="M-2.83484 28.3468H2.83484"/>
<use data-text="1" xlink:href="#font_3_1" transform="matrix(8.967117,0,0,-8.966669,78.32383,78.79098)"/>
<path transform="matrix(1.00008,0,0,-1.00003,71.96832,104.24974)" stroke-width=".3985" stroke-linecap="butt" stroke-miterlimit="10" stroke-linejoin="miter" fill="none" stroke="#000000" d="M-2.83484 56.69362H2.83484"/>
<use data-text="2" xlink:href="#font_3_2" transform="matrix(8.967117,0,0,-8.966669,78.32383,50.444124)"/>
<path transform="matrix(1.00008,0,0,-1.00003,71.96832,104.24974)" stroke-width=".3985" stroke-linecap="butt" stroke-miterlimit="10" stroke-linejoin="miter" fill="none" stroke="#000000" d="M-2.83484 85.04042H2.83484"/>
<use data-text="3" xlink:href="#font_3_3" transform="matrix(8.967117,0,0,-8.966669,78.32383,22.096276)"/>
</svg>
