<svg xmlns="http://www.w3.org/2000/svg" xmlns:xlink="http://www.w3.org/1999/xlink" xmlns:inkscape="http://www.inkscape.org/namespaces/inkscape" version="1.1" width="137" height="80" viewBox="0 0 137 80">
<defs>
<path id="font_1_27" d="M.71699526 0V.0309906H.69898989C.6389923 .0309906 .625 .037979127 .6139984 .07095337L.397995 .6958008C.3929901 .7088165 .3909912 .7158203 .375 .7158203 .35899354 .7158203 .35598756 .70980837 .35099793 .6958008L.14399719 .09791565C.12599182 .04698181 .085998538 .03199768 .03199768 .0309906V0L.13398743 .0029907227 .24899292 0V.0309906C.19898987 .0309906 .17399597 .05596924 .17399597 .0819397 .17399597 .08493042 .1749878 .09492493 .17599488 .09692383L.22200012 .2277832H.46899415L.5219879 .07495117C.522995 .07095337 .5249939 .064956668 .5249939 .060958864 .5249939 .0309906 .46899415 .0309906 .44198609 .0309906V0C.47799684 .0029907227 .5479889 .0029907227 .58599856 .0029907227L.71699526 0M.45799256 .25878907H.23298645L.34498597 .58380129 .45799256 .25878907Z"/>
<path id="font_1_34" d="M.651001 .18289185C.651001 .26983644 .56900027 .34480287 .45799256 .35679627 .5549927 .3757782 .6239929 .43974305 .6239929 .51368716 .6239929 .6006317 .5319977 .6826172 .4019928 .6826172H.035995485V.6516113H.05999756C.13699341 .6516113 .13899231 .64060977 .13899231 .6046295V.07795715C.13899231 .041992189 .13699341 .0309906 .05999756 .0309906H.035995485V0H.42799378C.5609894-.0002593994 .651001 .08874512 .651001 .18273926V.18289185M.5269928 .5136719C.5269928 .44970704 .47799684 .36573792 .36698915 .36573792H.22200012V.6116333C.22200012 .64460757 .22399903 .6516113 .2709961 .6516113H.394989C.49198915 .65174868 .5269928 .56674197 .5269928 .51374819V.5136719M.5509949 .18386841C.5509949 .1129303 .49899293 .0309906 .3959961 .0309906H.2709961C.22399903 .0309906 .22200012 .037994386 .22200012 .07095337V.34375H.4099884C.5089874 .34399415 .5509949 .25099183 .5509949 .18399048V.18386841Z"/>
<path id="font_1_42" d="M.6649933 .23271179C.6649933 .24272156 .6649933 .24972534 .6519928 .24972534 .6409912 .24972534 .6409912 .24372864 .6399994 .23371887 .6319885 .09059143 .5249939 .008529663 .41600038 .008529663 .35499574 .008529663 .15899658 .042556764 .15899658 .34080506 .15899658 .64004519 .35398866 .67407229 .4149933 .67407229 .5239868 .67407229 .61299136 .58299258 .6329956 .4368744 .6349945 .42286683 .6349945 .41986085 .6489868 .41986085 .6649933 .41986085 .6649933 .42286683 .6649933 .44387818V.68107607C.6649933 .69807437 .6649933 .7050781 .6539917 .7050781 .6499939 .7050781 .6459961 .7050781 .6380005 .69306948L.58799746 .61901858C.5509949 .6550598 .5 .7050781 .4039917 .7050781 .21699524 .7050781 .055999757 .5459595 .055999757 .34179688 .055999757 .1346283 .21798706-.022460938 .4039917-.022460938 .5669861-.022460938 .6649933 .116622928 .6649933 .23271179Z"/>
<path id="font_1_46" d="M.70700076 .33580018C.70700076 .52568057 .57199099 .6826172 .40098573 .6826172H.034988405V.6516113H.05899048C.13598633 .6516113 .13798523 .64060977 .13798523 .6046295V.07795715C.13798523 .041992189 .13598633 .0309906 .05899048 .0309906H.034988405V0H.40098573C.56900027 0 .70700076 .1479187 .70700076 .33580018M.6069946 .33580018C.6069946 .22486878 .58799746 .16490174 .5519867 .11593628 .5319977 .08895874 .47499085 .0309906 .37399293 .0309906H.272995C.22599793 .0309906 .22399903 .037994386 .22399903 .07096863V.6116333C.22399903 .64460757 .22599793 .6516113 .272995 .6516113H.37298585C.43499757 .6516113 .5039978 .6296234 .5549927 .55867007 .59799197 .49969483 .6069946 .41375733 .6069946 .33580018Z"/>
<path id="font_1_49" d="M.6519928 .2579193H.6269989C.60198977 .10397339 .57899478 .0309906 .40699769 .0309906H.27398683C.22698975 .0309906 .22499085 .037994386 .22499085 .07098389V.33789063H.31498719C.4119873 .33789063 .4229889 .30589295 .4229889 .220932H.44799806V.48606874H.4229889C.4229889 .39994813 .4119873 .36888124 .31498719 .36888124H.22499085V.6087799C.22499085 .6416931 .22698975 .64868167 .27398683 .64868167H.40299989C.55599978 .64868167 .58299258 .59381106 .598999 .45507813H.6239929L.59599307 .6796875H.032989503V.64868167H.056991579C.13398743 .64868167 .13598633 .6377106 .13598633 .6017914V.07797241C.13598633 .041992189 .13398743 .0309906 .056991579 .0309906H.032989503V0H.6100006L.6519928 .2579193Z"/>
</defs>
<path transform="matrix(1.00002,0,0,-1.00006,12.165871,11.869753)" d="M9.8713 0C9.8713 5.45183 5.45183 9.8713 0 9.8713-5.45183 9.8713-9.8713 5.45183-9.8713 0-9.8713-5.45183-5.45183-9.8713 0-9.8713 5.45183-9.8713 9.8713-5.45183 9.8713 0ZM0 0" fill="#f2f2f2"/>
<path transform="matrix(1.00002,0,0,-1.00006,12.165871,11.869753)" stroke-width=".79701" stroke-linecap="butt" stroke-miterlimit="10" stroke-linejoin="miter" fill="none" stroke="#000000" d="M9.8713 0C9.8713 5.45183 5.45183 9.8713 0 9.8713-5.45183 9.8713-9.8713 5.45183-9.8713 0-9.8713-5.45183-5.45183-9.8713 0-9.8713 5.45183-9.8713 9.8713-5.45183 9.8713 0ZM0 0"/>
<use data-text="A" xlink:href="#font_1_27" transform="matrix(9.962799,0,0,-9.963197,8.429794,15.436966)"/>
<path transform="matrix(1.00002,0,0,-1.00006,12.165871,11.869753)" d="M66.27234 0C66.27234 5.29022 61.98386 9.5787 56.69363 9.5787 51.4034 9.5787 47.11491 5.29022 47.11491 0 47.11491-5.29022 51.4034-9.5787 56.69363-9.5787 61.98386-9.5787 66.27234-5.29022 66.27234 0ZM56.69363 0" fill="#f2f2f2"/>
<path transform="matrix(1.00002,0,0,-1.00006,12.165871,11.869753)" stroke-width=".79701" stroke-linecap="butt" stroke-miterlimit="10" stroke-linejoin="miter" fill="none" stroke="#000000" d="M66.27234 0C66.27234 5.29022 61.98386 9.5787 56.69363 9.5787 51.4034 9.5787 47.11491 5.29022 47.11491 0 47.11491-5.29022 51.4034-9.5787 56.69363-9.5787 61.98386-9.5787 66.27234-5.29022 66.27234 0ZM56.69363 0"/>
<use data-text="B" xlink:href="#font_1_34" transform="matrix(9.962799,0,0,-9.963197,65.33394,15.271957)"/>
<path transform="matrix(1.00002,0,0,-1.00006,12.165871,11.869753)" d="M9.76453-56.69363C9.76453-51.30075 5.39287-46.9291 0-46.9291-5.39287-46.9291-9.76453-51.30075-9.76453-56.69363-9.76453-62.0865-5.39287-66.45816 0-66.45816 5.39287-66.45816 9.76453-62.0865 9.76453-56.69363ZM0-56.69363" fill="#f2f2f2"/>
<path transform="matrix(1.00002,0,0,-1.00006,12.165871,11.869753)" stroke-width=".79701" stroke-linecap="butt" stroke-miterlimit="10" stroke-linejoin="miter" fill="none" stroke="#000000" d="M9.76453-56.69363C9.76453-51.30075 5.39287-46.9291 0-46.9291-5.39287-46.9291-9.76453-51.30075-9.76453-56.69363-9.76453-62.0865-5.39287-66.45816 0-66.45816 5.39287-66.45816 9.76453-62.0865 9.76453-56.69363ZM0-56.69363"/>
<use data-text="C" xlink:href="#font_1_42" transform="matrix(9.962799,0,0,-9.963197,8.568802,71.96936)"/>
<path transform="matrix(1.00002,0,0,-1.00006,12.165871,11.869753)" d="M66.5017-56.69363C66.5017-51.27672 62.11053-46.88556 56.69363-46.88556 51.27672-46.88556 46.88556-51.27672 46.88556-56.69363 46.88556-62.11053 51.27672-66.5017 56.69363-66.5017 62.11053-66.5017 66.5017-62.11053 66.5017-56.69363ZM56.69363-56.69363" fill="#f2f2f2"/>
<path transform="matrix(1.00002,0,0,-1.00006,12.165871,11.869753)" stroke-width=".79701" stroke-linecap="butt" stroke-miterlimit="10" stroke-linejoin="miter" fill="none" stroke="#000000" d="M66.5017-56.69363C66.5017-51.27672 62.11053-46.88556 56.69363-46.88556 51.27672-46.88556 46.88556-51.27672 46.88556-56.69363 46.88556-62.11053 51.27672-66.5017 56.69363-66.5017 62.11053-66.5017 66.5017-62.11053 66.5017-56.69363ZM56.69363-56.69363"/>
<use data-text="D" xlink:href="#font_1_46" transform="matrix(9.962799,0,0,-9.963197,65.05493,71.96936)"/>
<path transform="matrix(1.00002,0,0,-1.00006,12.165871,11.869753)" d="M122.88156-56.69363C122.88156-51.45001 118.63087-47.19933 113.38727-47.19933 108.14365-47.19933 103.89296-51.45001 103.89296-56.69363 103.89296-61.93724 108.14365-66.18793 113.38727-66.18793 118.63087-66.18793 122.88156-61.93724 122.88156-56.69363ZM113.38727-56.69363" fill="#f2f2f2"/>
<path transform="matrix(1.00002,0,0,-1.00006,12.165871,11.869753)" stroke-width=".79701" stroke-linecap="butt" stroke-miterlimit="10" stroke-linejoin="miter" fill="none" stroke="#000000" d="M122.88156-56.69363C122.88156-51.45001 118.63087-47.19933 113.38727-47.19933 108.14365-47.19933 103.89296-51.45001 103.89296-56.69363 103.89296-61.93724 108.14365-66.18793 113.38727-66.18793 118.63087-66.18793 122.88156-61.93724 122.88156-56.69363ZM113.38727-56.69363"/>
<use data-text="E" xlink:href="#font_1_49" transform="matrix(9.962799,0,0,-9.963197,122.16308,71.95436)"/>
<path transform="matrix(1.00002,0,0,-1.00006,12.165871,11.869753)" stroke-width=".79701" stroke-linecap="butt" stroke-miterlimit="10" stroke-linejoin="miter" fill="none" stroke="#000000" d="M10.2698 0H44.28552"/>
<path transform="matrix(1.00002,0,0,-1.00006,56.452276,11.869753)" d="M1.0361 0C-.25902 .25902-1.55415 .77707-3.1083 1.68365-1.55415 .51805-1.55415-.51805-3.1083-1.68365-1.55415-.77707-.25902-.25902 1.0361 0Z"/>
<path transform="matrix(1.00002,0,0,-1.00006,56.452276,11.869753)" stroke-width=".79701" stroke-linecap="butt" stroke-linejoin="round" fill="none" stroke="#000000" d="M1.0361 0C-.25902 .25902-1.55415 .77707-3.1083 1.68365-1.55415 .51805-1.55415-.51805-3.1083-1.68365-1.55415-.77707-.25902-.25902 1.0361 0Z"/>
<path transform="matrix(1.00002,0,0,-1.00006,12.165871,11.869753)" stroke-width=".79701" stroke-linecap="butt" stroke-miterlimit="10" stroke-linejoin="miter" fill="none" stroke="#000000" d="M7.26186-7.26186 47.7576-47.7576"/>
<path transform="matrix(.70711418,.70714238,.70711418,-.70714238,59.924409,59.630197)" d="M1.0361 0C-.25902 .25902-1.55415 .77707-3.1083 1.68365-1.55415 .51805-1.55415-.51805-3.1083-1.68365-1.55415-.77707-.25902-.25902 1.0361 0Z"/>
<path transform="matrix(.70711418,.70714238,.70711418,-.70714238,59.924409,59.630197)" stroke-width=".79701" stroke-linecap="butt" stroke-linejoin="round" fill="none" stroke="#000000" d="M1.0361 0C-.25902 .25902-1.55415 .77707-3.1083 1.68365-1.55415 .51805-1.55415-.51805-3.1083-1.68365-1.55415-.77707-.25902-.25902 1.0361 0Z"/>
<path transform="matrix(1.00002,0,0,-1.00006,12.165871,11.869753)" stroke-width=".79701" stroke-linecap="butt" stroke-miterlimit="10" stroke-linejoin="miter" fill="none" stroke="#000000" d="M46.71642 0H12.7007"/>
<path transform="matrix(-1.00002,-0,0,1.00006,24.866826,11.869753)" d="M1.0361 0C-.25902 .25902-1.55415 .77707-3.1083 1.68365-1.55415 .51805-1.55415-.51805-3.1083-1.68365-1.55415-.77707-.25902-.25902 1.0361 0Z"/>
<path transform="matrix(-1.00002,-0,0,1.00006,24.866826,11.869753)" stroke-width=".79701" stroke-linecap="butt" stroke-linejoin="round" fill="none" stroke="#000000" d="M1.0361 0C-.25902 .25902-1.55415 .77707-3.1083 1.68365-1.55415 .51805-1.55415-.51805-3.1083-1.68365-1.55415-.77707-.25902-.25902 1.0361 0Z"/>
<path transform="matrix(1.00002,0,0,-1.00006,12.165871,11.869753)" stroke-width=".79701" stroke-linecap="butt" stroke-miterlimit="10" stroke-linejoin="miter" fill="none" stroke="#000000" d="M49.63867-7.05495 8.90524-47.78839"/>
<path transform="matrix(-.70711418,.70714238,.70711418,.70714238,21.07129,59.660997)" d="M1.0361 0C-.25902 .25902-1.55415 .77707-3.1083 1.68365-1.55415 .51805-1.55415-.51805-3.1083-1.68365-1.55415-.77707-.25902-.25902 1.0361 0Z"/>
<path transform="matrix(-.70711418,.70714238,.70711418,.70714238,21.07129,59.660997)" stroke-width=".79701" stroke-linecap="butt" stroke-linejoin="round" fill="none" stroke="#000000" d="M1.0361 0C-.25902 .25902-1.55415 .77707-3.1083 1.68365-1.55415 .51805-1.55415-.51805-3.1083-1.68365-1.55415-.77707-.25902-.25902 1.0361 0Z"/>
<path transform="matrix(1.00002,0,0,-1.00006,12.165871,11.869753)" stroke-width=".79701" stroke-linecap="butt" stroke-miterlimit="10" stroke-linejoin="miter" fill="none" stroke="#000000" d="M56.69363-9.9772V-44.05617"/>
<path transform="matrix(0,1.00006,1.00002,0,68.86064,55.928567)" d="M1.0361 0C-.25902 .25902-1.55415 .77707-3.1083 1.68365-1.55415 .51805-1.55415-.51805-3.1083-1.68365-1.55415-.77707-.25902-.25902 1.0361 0Z"/>
<path transform="matrix(0,1.00006,1.00002,0,68.86064,55.928567)" stroke-width=".79701" stroke-linecap="butt" stroke-linejoin="round" fill="none" stroke="#000000" d="M1.0361 0C-.25902 .25902-1.55415 .77707-3.1083 1.68365-1.55415 .51805-1.55415-.51805-3.1083-1.68365-1.55415-.77707-.25902-.25902 1.0361 0Z"/>
<path transform="matrix(1.00002,0,0,-1.00006,12.165871,11.869753)" stroke-width=".79701" stroke-linecap="butt" stroke-miterlimit="10" stroke-linejoin="miter" fill="none" stroke="#000000" d="M0-46.5306V-12.7007"/>
<path transform="matrix(0,-1.00006,-1.00002,-0,12.165871,24.571215)" d="M1.0361 0C-.25902 .25902-1.55415 .77707-3.1083 1.68365-1.55415 .51805-1.55415-.51805-3.1083-1.68365-1.55415-.77707-.25902-.25902 1.0361 0Z"/>
<path transform="matrix(0,-1.00006,-1.00002,-0,12.165871,24.571215)" stroke-width=".79701" stroke-linecap="butt" stroke-linejoin="round" fill="none" stroke="#000000" d="M1.0361 0C-.25902 .25902-1.55415 .77707-3.1083 1.68365-1.55415 .51805-1.55415-.51805-3.1083-1.68365-1.55415-.77707-.25902-.25902 1.0361 0Z"/>
<path transform="matrix(1.00002,0,0,-1.00006,12.165871,11.869753)" stroke-width=".79701" stroke-linecap="butt" stroke-miterlimit="10" stroke-linejoin="miter" fill="none" stroke="#000000" d="M7.18634-49.50728 47.91978-8.77383"/>
<path transform="matrix(.70711418,-.70714238,-.70711418,-.70714238,60.0866,20.64413)" d="M1.0361 0C-.25902 .25902-1.55415 .77707-3.1083 1.68365-1.55415 .51805-1.55415-.51805-3.1083-1.68365-1.55415-.77707-.25902-.25902 1.0361 0Z"/>
<path transform="matrix(.70711418,-.70714238,-.70711418,-.70714238,60.0866,20.64413)" stroke-width=".79701" stroke-linecap="butt" stroke-linejoin="round" fill="none" stroke="#000000" d="M1.0361 0C-.25902 .25902-1.55415 .77707-3.1083 1.68365-1.55415 .51805-1.55415-.51805-3.1083-1.68365-1.55415-.77707-.25902-.25902 1.0361 0Z"/>
<path transform="matrix(1.00002,0,0,-1.00006,12.165871,11.869753)" stroke-width=".79701" stroke-linecap="butt" stroke-miterlimit="10" stroke-linejoin="miter" fill="none" stroke="#000000" d="M66.9002-56.69363H101.06357"/>
<path transform="matrix(1.00002,0,0,-1.00006,113.23146,68.56678)" d="M1.0361 0C-.25902 .25902-1.55415 .77707-3.1083 1.68365-1.55415 .51805-1.55415-.51805-3.1083-1.68365-1.55415-.77707-.25902-.25902 1.0361 0Z"/>
<path transform="matrix(1.00002,0,0,-1.00006,113.23146,68.56678)" stroke-width=".79701" stroke-linecap="butt" stroke-linejoin="round" fill="none" stroke="#000000" d="M1.0361 0C-.25902 .25902-1.55415 .77707-3.1083 1.68365-1.55415 .51805-1.55415-.51805-3.1083-1.68365-1.55415-.77707-.25902-.25902 1.0361 0Z"/>
</svg>
