<svg xmlns="http://www.w3.org/2000/svg" xmlns:xlink="http://www.w3.org/1999/xlink" xmlns:inkscape="http://www.inkscape.org/namespaces/inkscape" version="1.1" width="113" height="66" viewBox="0 0 113 66">
<defs>
<path id="font_1_27" d="M.6899872 .027053833C.6899872 .032058717 .6899872 .034057619 .68499758 .047088624L.47399903 .6513214C.45899964 .69433596 .42999269 .69433596 .4099884 .69433596H.32199098C.3019867 .69433596 .272995 .69433596 .2579956 .6513214L.04699707 .047088624C.041992189 .034057619 .041992189 .032058717 .041992189 .027053833 .041992189 0 .066986087 0 .08099365 0H.116989139C.1349945 0 .1659851 0 .17999268 .04006958L.21899414 .1512909H.49598695L.5299988 .055099489C.5419922 .02003479 .548996 0 .5970001 0H.651001C.6649933 0 .6899872 0 .6899872 .027053833M.46598817 .23730469H.24899292L.32099916 .4493103C.33599855 .49331666 .34899903 .53131106 .35699464 .5673218H.35798646C.36299134 .5433197 .36299134 .5413208 .37098695 .51831057L.46598817 .23730469Z"/>
<path id="font_1_34" d="M.67099 .19406128C.67099 .3351593 .5319977 .35716249 .49499513 .36317445 .58699038 .3841858 .6399994 .43621827 .6399994 .51426699 .6399994 .69433596 .4269867 .69433596 .3849945 .69433596H.13899231C.102996829 .69433596 .09098816 .68333438 .09098816 .6463318V.04798889C.09098816 .011993408 .101989749 0 .13899231 0H.41299439C.4869995 .00018310547 .67099 .013183594 .67099 .19418335V.19406128M.5039978 .511261C.5039978 .39718629 .37298585 .39718629 .34799195 .39718629H.23199463V.60832217H.34899903C.3880005 .6081848 .5039978 .6051941 .5039978 .5111847V.511261M.5319977 .19607544C.5319977 .09300232 .4249878 .085998538 .3769989 .085998538H.23199463V.3251953H.35798646C.3929901 .32499696 .5319977 .32499696 .5319977 .19599915V.19607544Z"/>
<path id="font_2_121" d="M.47200013 .324646C.47200013 .419693 .46499635 .50772097 .41799928 .5867615 .3849945 .6417694 .32299806 .67578127 .25698854 .67578127 .20698548 .67578127 .13598633 .6567688 .09098816 .5787506 .04399109 .49972535 .040985109 .39367677 .040985109 .324646 .040985109 .2746277 .040985109 .1605835 .085998538 .07954407 .13598633-.008468628 .21199036-.022460938 .2559967-.022460938 .31399537-.022460938 .38598634 .0015258789 .42900086 .08454895 .46699525 .15757752 .47200013 .24461365 .47200013 .324646M.3889923 .33665467C.3889923 .26863099 .3889923 .19960022 .3659973 .13456726 .34298707 .0655365 .29599 .042526246 .25698854 .042526246 .12399292 .042526246 .12399292 .24261475 .12399292 .33665467 .12399292 .39968873 .12399292 .45069886 .13899231 .5027313 .1579895 .5717468 .19898987 .6107788 .2559967 .6107788 .3889923 .6107788 .3889923 .4296875 .3889923 .33665467Z"/>
<path id="font_2_88" d="M.18499756 0V.085998538H.09899902V0H.18499756Z"/>
<path id="font_2_57" d="M.48399354 .16699219V.23197937H.38398744V.6542969H.2869873L.0289917 .23197937V.16699219H.2999878V0H.38398744V.16699219H.48399354M.30599977 .23197937H.11199951L.17298889 .33206178C.20298767 .38308717 .30499269 .55722048 .30599977 .6082611V.23197937Z"/>
<path id="font_2_101" d="M.46998597 .22270203C.46998597 .27876283 .46199037 .32881166 .42799378 .3828125 .3880005 .44587709 .35299684 .46289063 .30599977 .46289063 .2679901 .46289063 .19400025 .45188905 .13198853 .38079835 .14299011 .5148468 .21099854 .61376956 .31799317 .61376956 .33799745 .61376956 .375 .6127777 .42599488 .5927887V.655777C.37799073 .6737671 .33898927 .67578127 .31698609 .67578127 .17298889 .67578127 .042999269 .53582766 .042999269 .32080079 .042999269 .046539308 .1639862-.022460938 .2579956-.022460938 .31900025-.022460938 .36299134-.00047302247 .40299989 .044540407 .45098878 .097579959 .46998597 .14363098 .46998597 .22270203M.3829956 .22270203C.3829956 .18367005 .3829956 .1426239 .35699464 .099594119 .33799745 .06956482 .30999757 .042526246 .2579956 .042526246 .15098572 .042526246 .13598633 .18566895 .1329956 .21870423 .1329956 .23271179 .1329956 .23472595 .13398743 .24572754 .13398743 .32180787 .18199158 .39788819 .2630005 .39788819 .30099488 .39788819 .33499146 .38380433 .36099244 .33680726 .3809967 .30078126 .3829956 .26875306 .3829956 .22270203Z"/>
</defs>
<path transform="matrix(1.00002,0,0,-1.00009,14.229912,38.241273)" d="M11.93512 0C11.93512 6.59166 6.59166 11.93512 0 11.93512-6.59166 11.93512-11.93512 6.59166-11.93512 0-11.93512-6.59166-6.59166-11.93512 0-11.93512 6.59166-11.93512 11.93512-6.59166 11.93512 0ZM0 0" fill="#e6e6f5"/>
<path transform="matrix(1.00002,0,0,-1.00009,14.229912,38.241273)" stroke-width=".79701" stroke-linecap="butt" stroke-miterlimit="10" stroke-linejoin="miter" fill="none" stroke="#000000" d="M11.93512 0C11.93512 6.59166 6.59166 11.93512 0 11.93512-6.59166 11.93512-11.93512 6.59166-11.93512 0-11.93512-6.59166-6.59166-11.93512 0-11.93512 6.59166-11.93512 11.93512-6.59166 11.93512 0ZM0 0"/>
<use data-text="A" xlink:href="#font_1_27" transform="matrix(14.346487,0,0,-14.347491,8.971809,43.21972)"/>
<path transform="matrix(1.00002,0,0,-1.00009,14.229912,38.241273)" d="M96.97559 0C96.97559 6.59166 91.63213 11.93512 85.04045 11.93512 78.44878 11.93512 73.10532 6.59166 73.10532 0 73.10532-6.59166 78.44878-11.93512 85.04045-11.93512 91.63213-11.93512 96.97559-6.59166 96.97559 0ZM85.04045 0" fill="#e6e6f5"/>
<path transform="matrix(1.00002,0,0,-1.00009,14.229912,38.241273)" stroke-width=".79701" stroke-linecap="butt" stroke-miterlimit="10" stroke-linejoin="miter" fill="none" stroke="#000000" d="M96.97559 0C96.97559 6.59166 91.63213 11.93512 85.04045 11.93512 78.44878 11.93512 73.10532 6.59166 73.10532 0 73.10532-6.59166 78.44878-11.93512 85.04045-11.93512 91.63213-11.93512 96.97559-6.59166 96.97559 0ZM85.04045 0"/>
<use data-text="B" xlink:href="#font_1_34" transform="matrix(14.346487,0,0,-14.347491,94.0145,43.21972)"/>
<path transform="matrix(1.00002,0,0,-1.00009,14.229912,38.241273)" stroke-width=".79701" stroke-linecap="butt" stroke-miterlimit="10" stroke-linejoin="miter" fill="none" stroke="#000000" d="M10.68108-6.16661C32.18686-18.58295 52.85359-18.58295 72.25421-7.38202"/>
<path transform="matrix(.86602738,-.500025,-.49999003,-.866088,86.485569,45.623968)" d="M1.0361 0C-.25902 .25902-1.55415 .77707-3.1083 1.68365-1.55415 .51805-1.55415-.51805-3.1083-1.68365-1.55415-.77707-.25902-.25902 1.0361 0Z"/>
<path transform="matrix(.86602738,-.500025,-.49999003,-.866088,86.485569,45.623968)" stroke-width=".79701" stroke-linecap="butt" stroke-linejoin="round" fill="none" stroke="#000000" d="M1.0361 0C-.25902 .25902-1.55415 .77707-3.1083 1.68365-1.55415 .51805-1.55415-.51805-3.1083-1.68365-1.55415-.77707-.25902-.25902 1.0361 0Z"/>
<use data-text="0" xlink:href="#font_2_121" transform="matrix(8.966579,0,0,-8.967207,50.859647,63.50255)"/>
<use data-text="." xlink:href="#font_2_88" transform="matrix(8.966579,0,0,-8.967207,55.468465,63.50255)"/>
<use data-text="4" xlink:href="#font_2_57" transform="matrix(8.966579,0,0,-8.967207,58.03291,63.50255)"/>
<path transform="matrix(1.00002,0,0,-1.00009,14.229912,38.241273)" stroke-width=".79701" stroke-linecap="butt" stroke-miterlimit="10" stroke-linejoin="miter" fill="none" stroke="#000000" d="M-3.1918 11.91339C-8.3461 31.14935 8.3461 31.14935 3.82088 14.26144"/>
<path transform="matrix(-.25879518,.96601697,.96594938,.2588133,18.050879,23.978549)" d="M1.0361 0C-.25902 .25902-1.55415 .77707-3.1083 1.68365-1.55415 .51805-1.55415-.51805-3.1083-1.68365-1.55415-.77707-.25902-.25902 1.0361 0Z"/>
<path transform="matrix(-.25879518,.96601697,.96594938,.2588133,18.050879,23.978549)" stroke-width=".79701" stroke-linecap="butt" stroke-linejoin="round" fill="none" stroke="#000000" d="M1.0361 0C-.25902 .25902-1.55415 .77707-3.1083 1.68365-1.55415 .51805-1.55415-.51805-3.1083-1.68365-1.55415-.77707-.25902-.25902 1.0361 0Z"/>
<use data-text="0" xlink:href="#font_2_121" transform="matrix(8.966579,0,0,-8.967207,8.338791,7.9815485)"/>
<use data-text="." xlink:href="#font_2_88" transform="matrix(8.966579,0,0,-8.967207,12.947609,7.9815485)"/>
<use data-text="6" xlink:href="#font_2_101" transform="matrix(8.966579,0,0,-8.967207,15.512054,7.9815485)"/>
<path transform="matrix(1.00002,0,0,-1.00009,14.229912,38.241273)" stroke-width=".79701" stroke-linecap="butt" stroke-miterlimit="10" stroke-linejoin="miter" fill="none" stroke="#000000" d="M72.70682 0H14.76451"/>
<path transform="matrix(-1.00002,-0,0,1.00009,28.994717,38.241273)" d="M1.0361 0C-.25902 .25902-1.55415 .77707-3.1083 1.68365-1.55415 .51805-1.55415-.51805-3.1083-1.68365-1.55415-.77707-.25902-.25902 1.0361 0Z"/>
<path transform="matrix(-1.00002,-0,0,1.00009,28.994717,38.241273)" stroke-width=".79701" stroke-linecap="butt" stroke-linejoin="round" fill="none" stroke="#000000" d="M1.0361 0C-.25902 .25902-1.55415 .77707-3.1083 1.68365-1.55415 .51805-1.55415-.51805-3.1083-1.68365-1.55415-.77707-.25902-.25902 1.0361 0Z"/>
<use data-text="0" xlink:href="#font_2_121" transform="matrix(8.966579,0,0,-8.967207,50.859647,34.32492)"/>
<use data-text="." xlink:href="#font_2_88" transform="matrix(8.966579,0,0,-8.967207,55.468465,34.32492)"/>
<use data-text="4" xlink:href="#font_2_57" transform="matrix(8.966579,0,0,-8.967207,58.03291,34.32492)"/>
<path transform="matrix(1.00002,0,0,-1.00009,14.229912,38.241273)" stroke-width=".79701" stroke-linecap="butt" stroke-miterlimit="10" stroke-linejoin="miter" fill="none" stroke="#000000" d="M81.84865 11.91339C76.69434 31.14935 93.38657 31.14935 88.86133 14.26144"/>
<path transform="matrix(-.25879518,.96601697,.96594938,.2588133,103.09303,23.978549)" d="M1.0361 0C-.25902 .25902-1.55415 .77707-3.1083 1.68365-1.55415 .51805-1.55415-.51805-3.1083-1.68365-1.55415-.77707-.25902-.25902 1.0361 0Z"/>
<path transform="matrix(-.25879518,.96601697,.96594938,.2588133,103.09303,23.978549)" stroke-width=".79701" stroke-linecap="butt" stroke-linejoin="round" fill="none" stroke="#000000" d="M1.0361 0C-.25902 .25902-1.55415 .77707-3.1083 1.68365-1.55415 .51805-1.55415-.51805-3.1083-1.68365-1.55415-.77707-.25902-.25902 1.0361 0Z"/>
<use data-text="0" xlink:href="#font_2_121" transform="matrix(8.966579,0,0,-8.967207,93.3805,7.9815485)"/>
<use data-text="." xlink:href="#font_2_88" transform="matrix(8.966579,0,0,-8.967207,97.98932,7.9815485)"/>
<use data-text="6" xlink:href="#font_2_101" transform="matrix(8.966579,0,0,-8.967207,100.553768,7.9815485)"/>
</svg>
