<svg xmlns="http://www.w3.org/2000/svg" xmlns:xlink="http://www.w3.org/1999/xlink" xmlns:inkscape="http://www.inkscape.org/namespaces/inkscape" version="1.1" width="212" height="84" viewBox="0 0 212 84">
<defs>
<clipPath id="clip_1">
<path transform="matrix(1,0,0,-1.00005,1.2949982,74.83909)" d="M10.84828-141.73389H182.01009V204.90358H10.84828"/>
</clipPath>
<clipPath id="clip_2">
<path transform="matrix(1,0,0,-1.00005,1.2949982,74.83909)" d="M-130.88233 0V63.16968H323.7407V0"/>
</clipPath>
<clipPath id="clip_3">
<path transform="matrix(1,0,0,-1.00005,1.2949982,74.83909)" d="M10.84828-141.73389H182.01009V204.90358H10.84828"/>
</clipPath>
<clipPath id="clip_4">
<path transform="matrix(1,0,0,-1.00005,1.2949982,74.83909)" d="M-130.88233 0V63.16968H323.7407V0"/>
</clipPath>
<clipPath id="clip_5">
<path transform="matrix(1,0,0,-1.00005,1.2949982,74.83909)" d="M10.84828-141.73389H182.01009V204.90358H10.84828"/>
</clipPath>
<clipPath id="clip_6">
<path transform="matrix(1,0,0,-1.00005,1.2949982,74.83909)" d="M10.84828-141.73389H182.01009V204.90358H10.84828"/>
</clipPath>
<path id="font_7_1" d="M.6589966 .23046875C.6759949 .23046875 .69400027 .23046875 .69400027 .25045777 .69400027 .27046205 .6759949 .27046205 .6589966 .27046205H.117996219C.100997928 .27046205 .08299255 .27046205 .08299255 .25045777 .08299255 .23046875 .100997928 .23046875 .117996219 .23046875H.6589966Z"/>
<path id="font_8_1" d="M.2649994 .37265016H.37799073C.34498597 .22489929 .33599855 .18196106 .33599855 .11508179 .33599855 .100097659 .33599855 .073150638 .34399415 .03919983 .35398866-.0047454836 .36499024-.0107421879 .37998963-.0107421879 .3999939-.0107421879 .42099 .007247925 .42099 .02722168 .42099 .033218385 .42099 .035202028 .4149933 .049179079 .38598634 .12106323 .38598634 .18595886 .38598634 .21391297 .38598634 .26683045 .3929901 .32073976 .4039917 .37265016H.5179901C.5309906 .37265016 .5669861 .37265016 .5669861 .406662 .5669861 .43066407 .54599 .43066407 .5269928 .43066407H.19198609C.16999817 .43066407 .13198853 .43066407 .08799744 .38365174 .052993776 .34469605 .026992798 .29878236 .026992798 .29379273 .026992798 .29278565 .026992798 .28379823 .038986207 .28379823 .04699707 .28379823 .04899597 .28779603 .054992677 .29577638 .10398865 .37265016 .1619873 .37265016 .18199158 .37265016H.23899842C.20698548 .25186158 .15299988 .13105774 .11099243 .04020691 .102996829 .025222779 .102996829 .023223877 .102996829 .016235352 .102996829-.002746582 .11898804-.0107421879 .13198853-.0107421879 .1619873-.0107421879 .16999817 .017242432 .18199158 .05418396 .19599915 .100097659 .19599915 .10209656 .20899964 .15202332L.2649994 .37265016Z"/>
<path id="font_9_3" d="M.45999146 .31976319C.45999146 .39982606 .45498658 .47988893 .41999818 .5539398 .37399293 .65000918 .2919922 .6660156 .25 .6660156 .18998719 .6660156 .116989139 .64001467 .07598877 .54693606 .04399109 .47789 .038986207 .39982606 .038986207 .31976319 .038986207 .24472046 .042999269 .15464783 .083999637 .07859802 .1269989-.0024719239 .19999695-.022460938 .24899292-.022460938 .30299378-.022460938 .3789978-.0014648438 .4229889 .09359741 .45498658 .16265869 .45999146 .2407074 .45999146 .31976319M.24899292-.00047302247C.20999146-.00047302247 .15098572 .024551392 .1329956 .12062073 .12199402 .18066406 .12199402 .2727356 .12199402 .3317871 .12199402 .39582826 .12199402 .46188355 .12998963 .5159149 .14898682 .63500979 .22399903 .64401248 .24899292 .64401248 .28199769 .64401248 .34799195 .6259918 .36698915 .52693179 .3769989 .47088624 .3769989 .39482118 .3769989 .3317871 .3769989 .25672914 .3769989 .18867493 .3659973 .12461853 .35099793 .029556275 .2939911-.00047302247 .24899292-.00047302247Z"/>
<path id="font_9_4" d="M.1269989 .07699585 .23298645 .18003845C.3889923 .31811524 .44898988 .3721466 .44898988 .47216798 .44898988 .5860901 .35899354 .6660156 .23699951 .6660156 .12399292 .6660156 .049987794 .57411196 .049987794 .48516847 .049987794 .4291687 .099990848 .4291687 .102996829 .4291687 .11999512 .4291687 .15499878 .44117738 .15499878 .48217774 .15499878 .5081787 .13699341 .5341797 .101989749 .5341797 .09399414 .5341797 .09199524 .5341797 .08898926 .5331726 .11199951 .59806826 .1659851 .63500979 .22399903 .63500979 .31498719 .63500979 .35798646 .5541382 .35798646 .47216798 .35798646 .39215089 .30799867 .31311036 .25299073 .25108338L.06098938 .036987306C.049987794 .025985718 .049987794 .023986817 .049987794 0H.42099L.44898988 .17404175H.42399598C.4189911 .14402771 .4119873 .1000061 .4019928 .084991458 .394989 .07699585 .32899476 .07699585 .30699159 .07699585H.1269989Z"/>
<clipPath id="clip_10">
<path transform="matrix(1,0,0,-1.00005,1.2949982,74.83909)" d="M-130.88233 0V63.16968H323.7407V0"/>
</clipPath>
<clipPath id="clip_11">
<path transform="matrix(1,0,0,-1.00005,1.2949982,74.83909)" d="M-130.88233 0V63.16968H323.7407V0"/>
</clipPath>
<path id="font_12_82" d="M.4189911 0V.0309906H.3869934C.29699708 .0309906 .2939911 .041992189 .2939911 .07902527V.64012148C.2939911 .6640167 .2939911 .6660156 .2709961 .6660156 .20899964 .60227969 .12098694 .60227969 .08898926 .60227969V.57128909C.10899353 .57128909 .16799927 .57128909 .21998596 .5972748V.07902527C.21998596 .042999269 .21699524 .0309906 .1269989 .0309906H.09498596V0C.12998963 .0029907227 .21699524 .0029907227 .25698854 .0029907227 .29699708 .0029907227 .38398744 .0029907227 .4189911 0Z"/>
<path id="font_9_7" d="M.20799256 .19424439C.22999573 .19024658 .31199647 .17424011 .31199647 .102249149 .31199647 .051254274 .2769928 .011245728 .19898987 .011245728 .114990238 .011245728 .07899475 .06825256 .05999756 .15324402 .056991579 .1662445 .055999757 .17024231 .04598999 .17024231 .032989503 .17024231 .032989503 .16323853 .032989503 .14524842V.013244629C.032989503-.003753662 .032989503-.0107421879 .04399109-.0107421879 .04899597-.0107421879 .049987794-.009750366 .068984989 .009246826 .070999149 .011245728 .070999149 .013244629 .08898926 .03224182 .1329956-.009750366 .17799378-.0107421879 .19898987-.0107421879 .31399537-.0107421879 .3600006 .056243898 .3600006 .12825012 .3600006 .1812439 .32998658 .21124268 .31799317 .22323609 .2849884 .25523377 .24598694 .26324464 .20399475 .27124024 .147995 .28224183 .08099365 .2952423 .08099365 .35324098 .08099365 .38822938 .10699463 .42922975 .19299317 .42922975 .30299378 .42922975 .30799867 .3392334 .30999757 .3082428 .31098939 .2992401 .31999208 .2992401 .32199098 .2992401 .33499146 .2992401 .33499146 .304245 .33499146 .3232422V.4242401C.33499146 .4412384 .33499146 .4482422 .32398988 .4482422 .31900025 .4482422 .31698609 .4482422 .3039856 .43623353 .30099488 .43223573 .29100038 .42323304 .2869873 .42022706 .24899292 .4482422 .20799256 .4482422 .19299317 .4482422 .070999149 .4482422 .032989503 .38124085 .032989503 .3252411 .032989503 .29023744 .04899597 .26223756 .07598877 .24023438 .10798645 .21424866 .13598633 .2082367 .20799256 .19424439Z"/>
<path id="font_9_5" d="M.1769867 .4423828 .036987306 .43138124V.40037538C.101989749 .40037538 .11099243 .3943634 .11099243 .34532167V.076034549C.11099243 .0309906 .099990848 .0309906 .032989503 .0309906V0C.06498718 .0009918213 .11898804 .0029907227 .14299011 .0029907227 .17799378 .0029907227 .21299744 .0009918213 .24699402 0V.0309906C.18099976 .0309906 .1769867 .035995485 .1769867 .075042728V.4423828M.18099976 .6159363C.18099976 .64793398 .1559906 .6689453 .12799073 .6689453 .09700012 .6689453 .07499695 .64193728 .07499695 .6159363 .07499695 .5889435 .09700012 .5629425 .12799073 .5629425 .1559906 .5629425 .18099976 .5839386 .18099976 .6159363Z"/>
<path id="font_9_6" d="M.10998535 .34429933V.076034549C.10998535 .0309906 .09899902 .0309906 .03199768 .0309906V0C.066986087 .0009918213 .117996219 .0029907227 .14498902 .0029907227 .17098999 .0029907227 .22299195 .0009918213 .25698854 0V.0309906C.18998719 .0309906 .1789856 .0309906 .1789856 .076034549V.2602234C.1789856 .36431886 .25 .42037965 .31399537 .42037965 .3769989 .42037965 .3880005 .36631776 .3880005 .30926515V.076034549C.3880005 .0309906 .3769989 .0309906 .30999757 .0309906V0C.34498597 .0009918213 .3959961 .0029907227 .4229889 .0029907227 .44898988 .0029907227 .5009918 .0009918213 .5349884 0V.0309906C.48298646 .0309906 .45799256 .0309906 .45700074 .061019899V.25221253C.45700074 .3383026 .45700074 .36932374 .42599488 .405365 .4119873 .42237855 .3789978 .4423828 .32099916 .4423828 .24798584 .4423828 .20098877 .39935304 .17298889 .33729554V.4423828L.03199768 .43138124V.40037538C.101989749 .4003601 .10998535 .39335633 .10998535 .34429933Z"/>
<path id="font_9_1" d="M.33099366-.2400055C.33099366-.23701477 .33099366-.23500061 .31399537-.21800232 .18899536-.0920105 .15699768 .09700012 .15699768 .25 .15699768 .42399598 .19499207 .59799197 .31799317 .72299197 .33099366 .73498538 .33099366 .7369995 .33099366 .73999026 .33099366 .746994 .32699586 .75 .32099916 .75 .31098939 .75 .22099304 .6819916 .1619873 .5549927 .11099243 .44499208 .09899902 .33399964 .09899902 .25 .09899902 .17199707 .10998535 .050994874 .16499329-.06201172 .22499085-.18501282 .31098939-.25 .32099916-.25 .32699586-.25 .33099366-.24700928 .33099366-.2400055Z"/>
<path id="font_8_2" d="M.33399964 .30233766C.33999635 .32835389 .36299134 .42037965 .43299867 .42037965 .43798829 .42037965 .46199037 .42037965 .48298646 .40734864 .45498658 .402359 .43499757 .37734986 .43499757 .35334779 .43499757 .33735658 .44599916 .31835938 .47299195 .31835938 .49499513 .31835938 .5269928 .3363495 .5269928 .37635804 .5269928 .42837525 .46798707 .4423828 .43399049 .4423828 .37599183 .4423828 .34098817 .38935853 .32899476 .36634828 .3039856 .43237306 .25 .4423828 .22099304 .4423828 .116989139 .4423828 .05999756 .3133545 .05999756 .28834535 .05999756 .27833558 .069992069 .27833558 .07199097 .27833558 .07998657 .27833558 .08299255 .28033448 .084991458 .28933717 .11898804 .39535523 .18499756 .42037965 .21899414 .42037965 .23799134 .42037965 .272995 .4113617 .272995 .35334779 .272995 .32235719 .2559967 .25532533 .21899414 .11528015 .20298767 .053268434 .16799927 .011245728 .12399292 .011245728 .117996219 .011245728 .09498596 .011245728 .07398987 .024276734 .09899902 .029266358 .12098694 .05027771 .12098694 .07827759 .12098694 .105270389 .09899902 .11328125 .083999637 .11328125 .053985597 .11328125 .0289917 .08728027 .0289917 .055267335 .0289917 .009246826 .07899475-.0107421879 .12298584-.0107421879 .18899536-.0107421879 .22499085 .059280397 .22799683 .0652771 .23999024 .028274537 .27598573-.0107421879 .33599855-.0107421879 .43899537-.0107421879 .49598695 .118270877 .49598695 .14328003 .49598695 .1532898 .4869995 .1532898 .48399354 .1532898 .47499085 .1532898 .47299195 .14929199 .47099305 .14228821 .43798829 .03527832 .36999513 .011245728 .33799745 .011245728 .29899598 .011245728 .2829895 .043273927 .2829895 .07727051 .2829895 .09927368 .2889862 .121276859 .2999878 .16529846L.33399964 .30233766Z"/>
<path id="font_9_2" d="M.2889862 .25C.2889862 .32798768 .27799989 .44898988 .22299195 .56199648 .16299439 .68499758 .07699585 .75 .066986087 .75 .06098938 .75 .056991579 .74598696 .056991579 .73999026 .056991579 .7369995 .056991579 .73498538 .07598877 .71699526 .17399597 .6179962 .23098755 .45899964 .23098755 .25 .23098755 .07899475 .19400025-.09700012 .069992069-.2230072 .056991579-.23500061 .056991579-.23701477 .056991579-.2400055 .056991579-.2460022 .06098938-.25 .066986087-.25 .07699585-.25 .16699219-.18200684 .22599793-.055007936 .2769928 .054992677 .2889862 .16600037 .2889862 .25Z"/>
<path id="font_8_3" d="M.48599244 .38136292C.48999024 .39537049 .48999024 .39736939 .48999024 .40437318 .48999024 .42237855 .47599793 .43138124 .46099855 .43138124 .45098878 .43138124 .43499757 .42536927 .42599488 .41036988 .42399598 .405365 .41600038 .37435914 .4119873 .35635377 .40499879 .33035279 .397995 .30334474 .3919983 .27633668L.34700013 .09628296C.34298707 .08126831 .2999878 .011245728 .23399353 .011245728 .18299866 .011245728 .17199707 .055267335 .17199707 .0922699 .17199707 .1382904 .18899536 .20030213 .22299195 .28833009 .23899842 .3293457 .24299622 .3403473 .24299622 .36035157 .24299622 .405365 .21099854 .4423828 .16099549 .4423828 .06599426 .4423828 .0289917 .29733277 .0289917 .28833009 .0289917 .27833558 .038986207 .27833558 .040985109 .27833558 .050994874 .27833558 .051986696 .28033448 .056991579 .29634095 .083999637 .3903656 .12399292 .42037965 .1579895 .42037965 .1659851 .42037965 .18299866 .42037965 .18299866 .3883667 .18299866 .36335755 .17298889 .3373413 .1659851 .31834413 .12599182 .21231079 .10798645 .1552887 .10798645 .10827637 .10798645 .019256592 .17098999-.0107421879 .22999573-.0107421879 .2689972-.0107421879 .30299378 .0062561037 .33099366 .03425598 .31799317-.017745972 .30599977-.06674194 .2659912-.11973572 .23999024-.15385437 .20199585-.18309021 .1559906-.18309021 .14199829-.18309021 .09700012-.18005371 .07998657-.14074707 .09599304-.14074707 .10899353-.14074707 .12298584-.1287384 .1329956-.11973572 .14299011-.10673523 .14299011-.08773804 .14299011-.056747438 .115997318-.052734376 .10598755-.052734376 .08299255-.052734376 .049987794-.068740848 .049987794-.11773682 .049987794-.16796875 .09399414-.20507813 .1559906-.20507813 .25898744-.20507813 .3619995-.11373901 .3899994-.00074768069L.48599244 .38136292Z"/>
</defs>
<g clip-path="url(#clip_1)">
<path transform="matrix(1,0,0,-1.00005,1.2949982,74.83909)" stroke-width=".19925" stroke-linecap="butt" stroke-miterlimit="10" stroke-linejoin="miter" fill="none" stroke="#d9d9d9" d="M20.73227 0V63.16968M58.58072 0V63.16968M134.27764 0V63.16968M172.1261 0V63.16968"/>
</g>
<g clip-path="url(#clip_2)">
<path transform="matrix(1,0,0,-1.00005,1.2949982,74.83909)" stroke-width=".19925" stroke-linecap="butt" stroke-miterlimit="10" stroke-linejoin="miter" fill="none" stroke="#d9d9d9" d="M10.84828 2.87134H182.01009M10.84828 17.22809H182.01009M10.84828 45.94159H182.01009M10.84828 60.29834H182.01009"/>
</g>
<g clip-path="url(#clip_3)">
<path transform="matrix(1,0,0,-1.00005,1.2949982,74.83909)" stroke-width=".19925" stroke-linecap="butt" stroke-miterlimit="10" stroke-linejoin="miter" fill="none" stroke="#7f807f" d="M20.73227 29.45892V33.71074M58.58072 29.45892V33.71074M134.27764 29.45892V33.71074M172.1261 29.45892V33.71074"/>
</g>
<g clip-path="url(#clip_4)">
<path transform="matrix(1,0,0,-1.00005,1.2949982,74.83909)" stroke-width=".19925" stroke-linecap="butt" stroke-miterlimit="10" stroke-linejoin="miter" fill="none" stroke="#7f807f" d="M94.30331 2.87134H98.55504M94.30331 17.22809H98.55504M94.30331 45.94159H98.55504M94.30331 60.29834H98.55504"/>
</g>
<path transform="matrix(1,0,0,-1.00005,1.2949982,74.83909)" stroke-width=".3985" stroke-linecap="butt" stroke-miterlimit="10" stroke-linejoin="miter" fill="none" stroke="#000000" d="M3.3762 31.58484H187.48964"/>
<path transform="matrix(1,0,0,-1.00005,188.78464,43.25267)" d="M1.99252 0-1.19551 1.59401 0 0-1.19551-1.59401"/>
<path transform="matrix(1,0,0,-1.00005,1.2949982,74.83909)" stroke-width=".3985" stroke-linecap="butt" stroke-miterlimit="10" stroke-linejoin="miter" fill="none" stroke="#000000" d="M96.42918-7.47208V68.64923"/>
<path transform="matrix(0,-1.00005,-1,-0,97.724178,6.186432)" d="M1.99252 0-1.19551 1.59401 0 0-1.19551-1.59401"/>
<g clip-path="url(#clip_5)">
<path transform="matrix(1,0,0,-1.00005,1.2949982,74.83909)" stroke-width=".19925" stroke-linecap="butt" stroke-miterlimit="10" stroke-linejoin="miter" fill="none" stroke="#d9d9d9" d="M58.58072 0V63.16968M96.42918 0V63.16968M134.27764 0V63.16968M172.1261 0V63.16968"/>
</g>
<g clip-path="url(#clip_6)">
<path transform="matrix(1,0,0,-1.00005,1.2949982,74.83909)" stroke-width=".19925" stroke-linecap="butt" stroke-miterlimit="10" stroke-linejoin="miter" fill="none" stroke="#7f807f" d="M58.58072 29.45892V33.71074M96.42918 29.45892V33.71074M134.27764 29.45892V33.71074M172.1261 29.45892V33.71074"/>
</g>
<path transform="matrix(1,0,0,-1.00005,1.2949982,74.83909)" d="M68.2521 19.58829C68.2521 24.9297 63.92213 29.25966 58.58072 29.25966 53.23932 29.25966 48.90935 24.9297 48.90935 19.58829 48.90935 14.24687 53.23932 9.91692 58.58072 9.91692 63.92213 9.91692 68.2521 14.24687 68.2521 19.58829ZM58.58072 19.58829" fill="#ffffff"/>
<use data-text="&#x2212;" xlink:href="#font_7_1" transform="matrix(9.9626,0,0,-9.963098,52.982999,57.740236)"/>
<use data-text="&#x03c0;" xlink:href="#font_8_1" transform="matrix(9.9626,0,0,-9.963098,60.732,57.740236)"/>
<path transform="matrix(1,0,0,-1.00005,1.2949982,74.83909)" d="M102.57394 23.1149C102.57394 26.50859 99.82288 29.25966 96.42918 29.25966 93.03549 29.25966 90.28442 26.50859 90.28442 23.1149 90.28442 19.72122 93.03549 16.97014 96.42918 16.97014 99.82288 16.97014 102.57394 19.72122 102.57394 23.1149ZM96.42918 23.1149" fill="#ffffff"/>
<use data-text="0" xlink:href="#font_9_3" transform="matrix(9.9626,0,0,-9.963098,95.233,54.933095)"/>
<path transform="matrix(1,0,0,-1.00005,1.2949982,74.83909)" d="M140.05367 23.48364C140.05367 26.67369 137.46768 29.25966 134.27764 29.25966 131.0876 29.25966 128.50162 26.67369 128.50162 23.48364 128.50162 20.2936 131.0876 17.70763 134.27764 17.70763 137.46768 17.70763 140.05367 20.2936 140.05367 23.48364ZM134.27764 23.48364" fill="#ffffff"/>
<use data-text="&#x03c0;" xlink:href="#font_8_1" transform="matrix(9.9626,0,0,-9.963098,132.554,53.499025)"/>
<path transform="matrix(1,0,0,-1.00005,1.2949982,74.83909)" d="M180.54312 20.84264C180.54312 25.49127 176.77474 29.25966 172.1261 29.25966 167.47745 29.25966 163.70906 25.49127 163.70906 20.84264 163.70906 16.19398 167.47745 12.4256 172.1261 12.4256 176.77474 12.4256 180.54312 16.19398 180.54312 20.84264ZM172.1261 20.84264" fill="#ffffff"/>
<use data-text="2" xlink:href="#font_9_4" transform="matrix(9.9626,0,0,-9.963098,167.912,57.206209)"/>
<use data-text="&#x03c0;" xlink:href="#font_8_1" transform="matrix(9.9626,0,0,-9.963098,172.893,57.206209)"/>
<g clip-path="url(#clip_10)">
<path transform="matrix(1,0,0,-1.00005,1.2949982,74.83909)" stroke-width=".19925" stroke-linecap="butt" stroke-miterlimit="10" stroke-linejoin="miter" fill="none" stroke="#d9d9d9" d="M10.84828 60.29834H182.01009"/>
</g>
<g clip-path="url(#clip_11)">
<path transform="matrix(1,0,0,-1.00005,1.2949982,74.83909)" stroke-width=".19925" stroke-linecap="butt" stroke-miterlimit="10" stroke-linejoin="miter" fill="none" stroke="#7f807f" d="M94.30331 60.29834H98.55504"/>
</g>
<use data-text="1" xlink:href="#font_12_82" transform="matrix(9.9626,0,0,-9.963098,87.097,17.855244)"/>
<path transform="matrix(1,0,0,-1.00005,1.2949982,74.83909)" stroke-width=".79701" stroke-linecap="butt" stroke-miterlimit="10" stroke-linejoin="miter" fill="none" stroke="#000000" d="M0 3.17857C0 3.17857 1.31938 2.86665 1.82611 2.87306 2.33284 2.87946 3.14551 3.03685 3.65224 3.22481 4.15897 3.41277 4.97162 3.86252 5.47836 4.22775 5.9851 4.593 6.79776 5.32346 7.3045 5.85725 7.81123 6.39105 8.62389 7.38484 9.13062 8.07509 9.63734 8.76534 10.45 10.0011 10.95674 10.83215 11.46349 11.6632 12.27614 13.11208 12.78288 14.06471 13.28963 15.01735 14.10228 16.64561 14.60901 17.69812 15.11572 18.75063 15.92838 20.52223 16.43512 21.65053 16.94186 22.77882 17.75452 24.65202 18.26126 25.83006 18.768 27.00812 19.58066 28.94037 20.08739 30.14113 20.59412 31.34189 21.40678 33.28812 21.91351 34.48433 22.42024 35.68054 23.23288 37.59825 23.73962 38.76263 24.24637 39.92702 25.05902 41.77078 25.56577 42.87642 26.07251 43.98204 26.88516 45.7097 27.39189 46.7312 27.89862 47.75272 28.71127 49.32468 29.21802 50.23883 29.72476 51.153 30.53741 52.53401 31.04414 53.31981 31.55089 54.10559 32.36354 55.26303 32.87027 55.90228 33.377 56.54155 34.18965 57.44887 34.6964 57.92715 35.20314 58.40546 36.0158 59.04317 36.52254 59.34964 37.02928 59.65611 37.84193 60.00879 38.34865 60.1361 38.85538 60.26341 39.66805 60.32195 40.17477 60.26732 40.6815 60.2127 41.49416 59.97751 42.0009 59.74243 42.50764 59.50734 43.3203 58.98343 43.82704 58.57292 44.33379 58.16243 45.14644 57.36029 45.65315 56.78378 46.15988 56.20729 46.97253 55.1468 47.47928 54.4178 47.98602 53.68878 48.79868 52.3945 49.30542 51.52951 49.81216 50.66452 50.62482 49.1648 51.13155 48.18353 51.63828 47.20226 52.45093 45.53192 52.95767 44.45709 53.4644 43.38228 54.27705 41.58078 54.7838 40.43692 55.29054 39.29306 56.1032 37.39964 56.60992 36.21288 57.11665 35.0261 57.92932 33.08575 58.43605 31.88345 58.94278 30.68114 59.75543 28.73788 60.26218 27.54742 60.7689 26.35695 61.58156 24.45464 62.0883 23.30328 62.59505 22.15193 63.4077 20.33504 63.91443 19.24922 64.42116 18.1634 65.23381 16.47292 65.74055 15.47742 66.2473 14.48192 67.05995 12.95645 67.5667 12.0743 68.07344 11.19214 68.88608 9.86812 69.3928 9.11938 69.89954 8.37065 70.71219 7.27621 71.21893 6.67789 71.72568 6.07956 72.53833 5.24083 73.04507 4.8069 73.55182 4.37299 74.36447 3.81007 74.8712 3.55042 75.37793 3.29076 76.1906 3.01492 76.69731 2.93538 77.20404 2.85582 78.0167 2.87457 78.52344 2.97699 79.03018 3.0794 79.84283 3.39154 80.34958 3.6736 80.85632 3.95566 81.66898 4.5546 82.1757 5.00992 82.68243 5.46523 83.49509 6.33716 84.00182 6.95526 84.50856 7.57336 85.32121 8.6982 85.82796 9.46481 86.3347 10.23145 87.14735 11.5831 87.65408 12.48059 88.16081 13.37808 88.97346 14.92534 89.48021 15.93338 89.98695 16.94142 90.7996 18.65034 91.30634 19.74596 91.81308 20.84158 92.62573 22.67207 93.13246 23.82988 93.63919 24.9877 94.45184 26.89726 94.95859 28.09068 95.46533 29.28409 96.27798 31.22939 96.78473 32.4313 97.29147 33.63321 98.10413 35.5704 98.61086 36.75327 99.11757 37.93613 99.93022 39.82005 100.43697 40.95663 100.94371 42.0932 101.75636 43.8806 102.2631 44.94493 102.76985 46.00926 103.5825 47.66 104.08923 48.62773 104.59596 49.59546 105.40862 51.07082 105.91536 51.91974 106.42209 52.76866 107.23474 54.03564 107.74149 54.74628 108.24823 55.45692 109.06087 56.4855 109.56761 57.04164 110.07436 57.5978 110.88701 58.36578 111.39375 58.75468 111.9005 59.14359 112.71315 59.63206 113.21988 59.84465 113.72661 60.05724 114.53926 60.25522 115.04599 60.28685 115.55272 60.31847 116.36537 60.22272 116.87212 60.07265 117.37886 59.92258 118.19151 59.53375 118.69826 59.2052 119.205 58.87666 120.01765 58.20393 120.52438 57.70464 121.03111 57.20534 121.84377 56.2652 122.3505 55.60655 122.85724 54.94789 123.66989 53.76048 124.17664 52.95744 124.68338 52.15439 125.49603 50.74757 126.00276 49.81876 126.50949 48.88995 127.32214 47.29655 127.82889 46.26317 128.33563 45.22978 129.14829 43.48526 129.65502 42.37076 130.16176 41.25626 130.97441 39.4004 131.48114 38.23056 131.98787 37.06073 132.80054 35.13766 133.30727 33.93933 133.814 32.74101 134.62665 30.79335 135.13339 29.59384 135.64014 28.39432 136.45279 26.46716 136.95952 25.29399 137.46627 24.1208 138.27892 22.25844 138.78565 21.13828 139.29238 20.01813 140.10503 18.26181 140.61177 17.22061 141.11852 16.17941 141.93117 14.57239 142.43791 13.634 142.94466 12.69563 143.75731 11.27182 144.26404 10.45743 144.77075 9.64305 145.5834 8.4358 146.09015 7.7644 146.5969 7.09299 147.40955 6.13141 147.91629 5.61835 148.42304 5.1053 149.23569 4.40988 149.74242 4.06668 150.24915 3.72346 151.06182 3.31006 151.56855 3.14468 152.07526 2.97932 152.88791 2.85837 153.39466 2.87477 153.9014 2.89117 154.71405 3.06535 155.2208 3.26299 155.72754 3.46063 156.54019 3.92485 157.04692 4.29927 157.55365 4.67368 158.3663 5.41887 158.87305 5.96147 159.37979 6.50409 160.19243 7.51183 160.69918 8.21004 161.20592 8.90825 162.01857 10.15582 162.5253 10.9938 163.03203 11.83179 163.84468 13.29097 164.35143 14.24963 164.85817 15.20828 165.67082 16.84589 166.17757 17.90314 166.68431 18.96039 167.49697 20.7381 168.00368 21.86961 168.5104 23.00113 169.32308 24.87834 169.8298 26.05835 170.33654 27.23834 171.14919 29.17297 171.65593 30.37427 172.16268 31.57558 172.97533 33.52144 173.48207 34.71661 173.98882 35.91179 174.80147 37.82649 175.30818 38.98833 175.81491 40.15015 176.62757 41.98854 177.13431 43.09033 177.64105 44.19212 178.4537 45.91287 178.96045 46.92932 179.4672 47.94577 180.78658 50.41629 180.78658 50.41629"/>
<use data-text="s" xlink:href="#font_9_7" transform="matrix(9.9626,0,0,-9.963098,185.601,26.910695)"/>
<use data-text="i" xlink:href="#font_9_5" transform="matrix(9.9626,0,0,-9.963098,189.52626,26.910695)"/>
<use data-text="n" xlink:href="#font_9_6" transform="matrix(9.9626,0,0,-9.963098,192.2859,26.910695)"/>
<use data-text="(" xlink:href="#font_9_1" transform="matrix(9.9626,0,0,-9.963098,197.81516,26.910695)"/>
<use data-text="x" xlink:href="#font_8_2" transform="matrix(9.9626,0,0,-9.963098,201.707,26.910695)"/>
<use data-text=")" xlink:href="#font_9_2" transform="matrix(9.9626,0,0,-9.963098,207.401,26.910695)"/>
<use data-text="x" xlink:href="#font_8_2" transform="matrix(9.9626,0,0,-9.963098,186.825,51.0619)"/>
<use data-text="y" xlink:href="#font_8_3" transform="matrix(9.9626,0,0,-9.963098,88.962,6.208664)"/>
</svg>
