<svg xmlns="http://www.w3.org/2000/svg" xmlns:xlink="http://www.w3.org/1999/xlink" xmlns:inkscape="http://www.inkscape.org/namespaces/inkscape" version="1.1" width="130" height="131" viewBox="0 0 130 131">
<defs>
<path id="font_1_82" d="M.4189911 0V.0309906H.3869934C.29699708 .0309906 .2939911 .041992189 .2939911 .07902527V.64012148C.2939911 .6640167 .2939911 .6660156 .2709961 .6660156 .20899964 .60227969 .12098694 .60227969 .08898926 .60227969V.57128909C.10899353 .57128909 .16799927 .57128909 .21998596 .5972748V.07902527C.21998596 .042999269 .21699524 .0309906 .1269989 .0309906H.09498596V0C.12998963 .0029907227 .21699524 .0029907227 .25698854 .0029907227 .29699708 .0029907227 .38398744 .0029907227 .4189911 0Z"/>
<path id="font_2_2" d="M.5369873 .5947571C.522995 .5818329 .48999024 .55400088 .48999024 .5361023 .48999024 .5261078 .5 .516098 .5099945 .516098 .5189972 .516098 .5239868 .5231018 .5289917 .5290985 .54100039 .5440674 .56399539 .5718994 .60798647 .59376528 .61499026 .59776309 .625 .6027527 .625 .61476138 .625 .62475588 .6179962 .62976077 .61099246 .6347656 .58898928 .6497803 .5779877 .66781619 .56999209 .69184878 .56799319 .7008667 .56399539 .7138672 .5499878 .7138672 .5359955 .7138672 .5299988 .7008667 .5299988 .69285586 .5299988 .68785098 .5379944 .65579226 .55400088 .6347656H.21699524C.19999695 .6347656 .18199158 .6347656 .18199158 .61476138 .18199158 .5947571 .19999695 .5947571 .21699524 .5947571H.5369873Z"/>
<path id="font_2_1" d="M.33399964 .30233766C.33999635 .32835389 .36299134 .42037965 .43299867 .42037965 .43798829 .42037965 .46199037 .42037965 .48298646 .40734864 .45498658 .402359 .43499757 .37734986 .43499757 .35334779 .43499757 .33735658 .44599916 .31835938 .47299195 .31835938 .49499513 .31835938 .5269928 .3363495 .5269928 .37635804 .5269928 .42837525 .46798707 .4423828 .43399049 .4423828 .37599183 .4423828 .34098817 .38935853 .32899476 .36634828 .3039856 .43237306 .25 .4423828 .22099304 .4423828 .116989139 .4423828 .05999756 .3133545 .05999756 .28834535 .05999756 .27833558 .069992069 .27833558 .07199097 .27833558 .07998657 .27833558 .08299255 .28033448 .084991458 .28933717 .11898804 .39535523 .18499756 .42037965 .21899414 .42037965 .23799134 .42037965 .272995 .4113617 .272995 .35334779 .272995 .32235719 .2559967 .25532533 .21899414 .11528015 .20298767 .053268434 .16799927 .011245728 .12399292 .011245728 .117996219 .011245728 .09498596 .011245728 .07398987 .024276734 .09899902 .029266358 .12098694 .05027771 .12098694 .07827759 .12098694 .105270389 .09899902 .11328125 .083999637 .11328125 .053985597 .11328125 .0289917 .08728027 .0289917 .055267335 .0289917 .009246826 .07899475-.0107421879 .12298584-.0107421879 .18899536-.0107421879 .22499085 .059280397 .22799683 .0652771 .23999024 .028274537 .27598573-.0107421879 .33599855-.0107421879 .43899537-.0107421879 .49598695 .118270877 .49598695 .14328003 .49598695 .1532898 .4869995 .1532898 .48399354 .1532898 .47499085 .1532898 .47299195 .14929199 .47099305 .14228821 .43798829 .03527832 .36999513 .011245728 .33799745 .011245728 .29899598 .011245728 .2829895 .043273927 .2829895 .07727051 .2829895 .09927368 .2889862 .121276859 .2999878 .16529846L.33399964 .30233766Z"/>
<path id="font_3_1" d="M.5779877 .27427674C.5249939 .3363037 .5089874 .353302 .47099305 .38031007 .4099884 .4243164 .34599305 .4413147 .29100038 .4413147 .16699219 .4413147 .07699585 .33529664 .07699585 .215271 .07699585 .098236087 .16299439-.009765625 .28799439-.009765625 .4269867-.009765625 .5239868 .10424805 .55999758 .15725708 .61299136 .09524536 .6289978 .07823181 .6669922 .051239015 .7279968 .007232666 .7919922-.009765625 .8470001-.009765625 .97099307-.009765625 1.0609894 .09623718 1.0609894 .21626282 1.0609894 .33329774 .97499087 .4413147 .84999087 .4413147 .71099856 .4413147 .6139984 .32730104 .5779877 .27427674M.6100006 .23727417C.6499939 .30229188 .7369995 .4033203 .85899356 .4033203 .96199038 .4033203 1.0329895 .31228639 1.0329895 .21626282 1.0329895 .12025452 .95500186 .04522705 .86299136 .04522705 .769989 .04522705 .70599368 .12124634 .6100006 .23727417M.5279999 .19425965C.48799134 .1292572 .40098573 .02822876 .2789917 .02822876 .17599488 .02822876 .10499573 .11924744 .10499573 .215271 .10499573 .31129457 .18299866 .38630677 .2749939 .38630677 .36799623 .38630677 .43199159 .31028749 .5279999 .19425965Z"/>
<path id="font_4_1" d="M.5159912 .31925965C.5159912 .42918397 .5029907 .50813296 .45700074 .5780945 .42599488 .62405398 .3639984 .6640625 .28399659 .6640625 .051986696 .6640625 .051986696 .39120484 .051986696 .31925965 .051986696 .2472992 .051986696-.01953125 .28399659-.01953125 .5159912-.01953125 .5159912 .2472992 .5159912 .31925965M.28399659 .008468628C.23799134 .008468628 .1769867 .035446168 .15699768 .117385867 .14299011 .17634583 .14299011 .25830079 .14299011 .33224488 .14299011 .40519715 .14299011 .4811554 .1579895 .53611758 .1789856 .6150665 .24299622 .63604739 .28399659 .63604739 .33799745 .63604739 .3899994 .6030731 .4079895 .545105 .42399598 .4911499 .4249878 .41918946 .4249878 .33224488 .4249878 .25830079 .4249878 .18434143 .4119873 .12138367 .3919983 .030441285 .32398988 .008468628 .28399659 .008468628Z"/>
<path id="font_4_2" d="M.33499146 .63612368C.33499146 .6630554 .33299256 .6640625 .30499269 .6640625 .24099732 .6014404 .1499939 .6004486 .10899353 .6004486V.5644531C.1329956 .5644531 .19898987 .5644531 .2539978 .592453V.08203125C.2539978 .04899597 .2539978 .035995485 .1539917 .035995485H.115997318V0C.13398743 .0009918213 .25698854 .0039978029 .2939911 .0039978029 .32499696 .0039978029 .45098878 .0009918213 .47299195 0V.035995485H.43499757C.33499146 .035995485 .33499146 .04899597 .33499146 .08203125V.63612368Z"/>
<path id="font_4_3" d="M.5049896 .18203736H.47099305C.46798707 .16001892 .45799256 .100997928 .44499208 .09098816 .43699647 .084991458 .3600006 .084991458 .34599305 .084991458H.1619873C.2669983 .17803955 .3019867 .20603943 .3619995 .25306703 .43598939 .312088 .5049896 .374115 .5049896 .46914674 .5049896 .5900879 .39898683 .6640625 .2709961 .6640625 .14698792 .6640625 .06298828 .57710269 .06298828 .4851532 .06298828 .43414308 .10598755 .42915345 .115997318 .42915345 .13999939 .42915345 .16899109 .44615174 .16899109 .48214723 .16899109 .5001526 .1619873 .53515627 .10998535 .53515627 .14099121 .6060791 .20899964 .62805178 .2559967 .62805178 .35598756 .62805178 .4079895 .5501404 .4079895 .46914674 .4079895 .38212586 .34599305 .3130951 .31399537 .27708436L.07299805 .038986207C.06298828 .02999878 .06298828 .027999878 .06298828 0H.47499085L.5049896 .18203736Z"/>
<path id="font_4_4" d="M.272995 .33428956C.35099793 .33428956 .40699769 .2803192 .40699769 .1733551 .40699769 .04940796 .33499146 .012466431 .2769928 .012466431 .23699951 .012466431 .14898682 .0234375 .10699463 .082351688 .1539917 .084350589 .16499329 .11735535 .16499329 .13835144 .16499329 .17034912 .14099121 .19335938 .10998535 .19335938 .08198547 .19335938 .053985597 .17634583 .053985597 .13534546 .053985597 .041412355 .1579895-.01953125 .2789917-.01953125 .41799928-.01953125 .5139923 .07336426 .5139923 .1733551 .5139923 .2513275 .44999696 .32929994 .33999635 .35229493 .44499208 .39024354 .48298646 .4650879 .48298646 .5260773 .48298646 .60505679 .3919983 .6640625 .2809906 .6640625 .16999817 .6640625 .084991458 .61006167 .084991458 .5300751 .084991458 .49606324 .10699463 .47706605 .13699341 .47706605 .16799927 .47706605 .18798828 .5000763 .18798828 .5280762 .18798828 .5570679 .16799927 .57806399 .13699341 .5800781 .17199707 .62405398 .24099732 .63505557 .27799989 .63505557 .32299806 .63505557 .38598634 .6130676 .38598634 .5260773 .38598634 .48406983 .37199403 .43814088 .34599305 .4072113 .31298829 .36927796 .2849884 .3672943 .23498535 .36428834 .20999146 .3623047 .20799256 .3623047 .20298767 .3612976 .20098877 .3612976 .19299317 .3592987 .19299317 .34829713 .19299317 .33428956 .20199585 .33428956 .21899414 .33428956H.272995Z"/>
</defs>
<path transform="matrix(1,0,0,-1.0001,15.268997,115.197917)" stroke-width=".3985" stroke-linecap="butt" stroke-miterlimit="10" stroke-linejoin="miter" fill="none" stroke="#000000" d="M-14.17339 0H112.98872"/>
<path transform="matrix(1,0,0,-1.0001,128.45697,115.197917)" stroke-width=".3985" stroke-linecap="round" stroke-linejoin="round" fill="none" stroke="#000000" d="M-2.07224 2.39104C-1.69365 .95639-.84999 .27895 0 0-.84999-.27895-1.69365-.95639-2.07224-2.39104"/>
<path transform="matrix(1,0,0,-1.0001,15.268997,115.197917)" stroke-width=".3985" stroke-linecap="butt" stroke-miterlimit="10" stroke-linejoin="miter" fill="none" stroke="#000000" d="M0-14.17339V112.98872"/>
<path transform="matrix(0,-1.0001,-1,-0,15.268997,1.9986191)" stroke-width=".3985" stroke-linecap="round" stroke-linejoin="round" fill="none" stroke="#000000" d="M-2.07224 2.39104C-1.69365 .95639-.84999 .27895 0 0-.84999-.27895-1.69365-.95639-2.07224-2.39104"/>
<path transform="matrix(1,0,0,-1.0001,15.268997,115.197917)" stroke-width=".3985" stroke-linecap="butt" stroke-miterlimit="10" stroke-linejoin="miter" fill="none" stroke="#000000" d="M85.04042 0 0 85.04042"/>
<use data-text="1" xlink:href="#font_1_82" transform="matrix(9.9626,0,0,-9.963596,97.819,125.35393)"/>
<use data-text="1" xlink:href="#font_1_82" transform="matrix(9.9626,0,0,-9.963596,6.7679979,33.466745)"/>
<path transform="matrix(1,0,0,-1.0001,15.268997,115.197917)" d="M57.68996 28.3468C57.68996 28.89706 57.24388 29.34314 56.69362 29.34314 56.14334 29.34314 55.69728 28.89706 55.69728 28.3468 55.69728 27.79654 56.14334 27.35046 56.69362 27.35046 57.24388 27.35046 57.68996 27.79654 57.68996 28.3468ZM56.69362 28.3468"/>
<path transform="matrix(1,0,0,-1.0001,15.268997,115.197917)" stroke-width=".3985" stroke-linecap="butt" stroke-miterlimit="10" stroke-linejoin="miter" fill="none" stroke="#000000" d="M57.68996 28.3468C57.68996 28.89706 57.24388 29.34314 56.69362 29.34314 56.14334 29.34314 55.69728 28.89706 55.69728 28.3468 55.69728 27.79654 56.14334 27.35046 56.69362 27.35046 57.24388 27.35046 57.68996 27.79654 57.68996 28.3468ZM56.69362 28.3468"/>
<use data-text="&#x20d7;" xlink:href="#font_2_2" transform="matrix(9.9626,0,0,-9.963596,54.175004,97.487148)" fill="#0000ff"/>
<use data-text="x" xlink:href="#font_2_1" transform="matrix(9.9626,0,0,-9.963596,54.314485,97.487148)" fill="#0000ff"/>
<use data-text="&#x221e;" xlink:href="#font_3_1" transform="matrix(6.9738,0,0,-6.974498,60.002008,98.9813)" fill="#0000ff"/>
<path transform="matrix(1,0,0,-1.0001,15.268997,115.197917)" d="M86.03676 0C86.03676 .55026 85.59068 .99632 85.04042 .99632 84.49016 .99632 84.04408 .55026 84.04408 0 84.04408-.55026 84.49016-.99632 85.04042-.99632 85.59068-.99632 86.03676-.55026 86.03676 0ZM85.04042 0"/>
<path transform="matrix(1,0,0,-1.0001,15.268997,115.197917)" stroke-width=".3985" stroke-linecap="butt" stroke-miterlimit="10" stroke-linejoin="miter" fill="none" stroke="#000000" d="M86.03676 0C86.03676 .55026 85.59068 .99632 85.04042 .99632 84.49016 .99632 84.04408 .55026 84.04408 0 84.04408-.55026 84.49016-.99632 85.04042-.99632 85.59068-.99632 86.03676-.55026 86.03676 0ZM85.04042 0"/>
<use data-text="&#x20d7;" xlink:href="#font_2_2" transform="matrix(9.9626,0,0,-9.963596,95.095,110.18341)"/>
<use data-text="x" xlink:href="#font_2_1" transform="matrix(9.9626,0,0,-9.963596,95.23448,110.18341)"/>
<use data-text="0" xlink:href="#font_4_1" transform="matrix(6.9738,0,0,-6.974498,100.922008,111.67757)"/>
<path transform="matrix(1,0,0,-1.0001,15.268997,115.197917)" d="M29.34314 56.69362C29.34314 57.24388 28.89706 57.68996 28.3468 57.68996 27.79654 57.68996 27.35046 57.24388 27.35046 56.69362 27.35046 56.14334 27.79654 55.69728 28.3468 55.69728 28.89706 55.69728 29.34314 56.14334 29.34314 56.69362ZM28.3468 56.69362"/>
<path transform="matrix(1,0,0,-1.0001,15.268997,115.197917)" stroke-width=".3985" stroke-linecap="butt" stroke-miterlimit="10" stroke-linejoin="miter" fill="none" stroke="#000000" d="M29.34314 56.69362C29.34314 57.24388 28.89706 57.68996 28.3468 57.68996 27.79654 57.68996 27.35046 57.24388 27.35046 56.69362 27.35046 56.14334 27.79654 55.69728 28.3468 55.69728 28.89706 55.69728 29.34314 56.14334 29.34314 56.69362ZM28.3468 56.69362"/>
<use data-text="&#x20d7;" xlink:href="#font_2_2" transform="matrix(9.9626,0,0,-9.963596,38.401,53.48374)"/>
<use data-text="x" xlink:href="#font_2_1" transform="matrix(9.9626,0,0,-9.963596,38.54048,53.48374)"/>
<use data-text="1" xlink:href="#font_4_2" transform="matrix(6.9738,0,0,-6.974498,44.228006,54.977899)"/>
<path transform="matrix(1,0,0,-1.0001,15.268997,115.197917)" d="M71.86334 14.17339C71.86334 14.72366 71.41728 15.16972 70.867 15.16972 70.31674 15.16972 69.87067 14.72366 69.87067 14.17339 69.87067 13.62312 70.31674 13.17705 70.867 13.17705 71.41728 13.17705 71.86334 13.62312 71.86334 14.17339ZM70.867 14.17339"/>
<path transform="matrix(1,0,0,-1.0001,15.268997,115.197917)" stroke-width=".3985" stroke-linecap="butt" stroke-miterlimit="10" stroke-linejoin="miter" fill="none" stroke="#000000" d="M71.86334 14.17339C71.86334 14.72366 71.41728 15.16972 70.867 15.16972 70.31674 15.16972 69.87067 14.72366 69.87067 14.17339 69.87067 13.62312 70.31674 13.17705 70.867 13.17705 71.41728 13.17705 71.86334 13.62312 71.86334 14.17339ZM70.867 14.17339"/>
<use data-text="&#x20d7;" xlink:href="#font_2_2" transform="matrix(9.9626,0,0,-9.963596,80.921009,96.007999)"/>
<use data-text="x" xlink:href="#font_2_1" transform="matrix(9.9626,0,0,-9.963596,81.060489,96.007999)"/>
<use data-text="2" xlink:href="#font_4_3" transform="matrix(6.9738,0,0,-6.974498,86.74801,97.50215)"/>
<path transform="matrix(1,0,0,-1.0001,15.268997,115.197917)" d="M43.51654 42.5202C43.51654 43.07047 43.07047 43.51654 42.5202 43.51654 41.96994 43.51654 41.52386 43.07047 41.52386 42.5202 41.52386 41.96994 41.96994 41.52386 42.5202 41.52386 43.07047 41.52386 43.51654 41.96994 43.51654 42.5202ZM42.5202 42.5202"/>
<path transform="matrix(1,0,0,-1.0001,15.268997,115.197917)" stroke-width=".3985" stroke-linecap="butt" stroke-miterlimit="10" stroke-linejoin="miter" fill="none" stroke="#000000" d="M43.51654 42.5202C43.51654 43.07047 43.07047 43.51654 42.5202 43.51654 41.96994 43.51654 41.52386 43.07047 41.52386 42.5202 41.52386 41.96994 41.96994 41.52386 42.5202 41.52386 43.07047 41.52386 43.51654 41.96994 43.51654 42.5202ZM42.5202 42.5202"/>
<use data-text="&#x20d7;" xlink:href="#font_2_2" transform="matrix(9.9626,0,0,-9.963596,52.574,67.659168)"/>
<use data-text="x" xlink:href="#font_2_1" transform="matrix(9.9626,0,0,-9.963596,52.71348,67.659168)"/>
<use data-text="3" xlink:href="#font_4_4" transform="matrix(6.9738,0,0,-6.974498,58.401006,69.15332)"/>
</svg>
