<svg xmlns="http://www.w3.org/2000/svg" xmlns:xlink="http://www.w3.org/1999/xlink" xmlns:inkscape="http://www.inkscape.org/namespaces/inkscape" version="1.1" width="153" height="155" viewBox="0 0 153 155">
<defs>
<path id="font_1_1" d="M.33399964 .30233766C.33999635 .32835389 .36299134 .42037965 .43299867 .42037965 .43798829 .42037965 .46199037 .42037965 .48298646 .40734864 .45498658 .402359 .43499757 .37734986 .43499757 .35334779 .43499757 .33735658 .44599916 .31835938 .47299195 .31835938 .49499513 .31835938 .5269928 .3363495 .5269928 .37635804 .5269928 .42837525 .46798707 .4423828 .43399049 .4423828 .37599183 .4423828 .34098817 .38935853 .32899476 .36634828 .3039856 .43237306 .25 .4423828 .22099304 .4423828 .116989139 .4423828 .05999756 .3133545 .05999756 .28834535 .05999756 .27833558 .069992069 .27833558 .07199097 .27833558 .07998657 .27833558 .08299255 .28033448 .084991458 .28933717 .11898804 .39535523 .18499756 .42037965 .21899414 .42037965 .23799134 .42037965 .272995 .4113617 .272995 .35334779 .272995 .32235719 .2559967 .25532533 .21899414 .11528015 .20298767 .053268434 .16799927 .011245728 .12399292 .011245728 .117996219 .011245728 .09498596 .011245728 .07398987 .024276734 .09899902 .029266358 .12098694 .05027771 .12098694 .07827759 .12098694 .105270389 .09899902 .11328125 .083999637 .11328125 .053985597 .11328125 .0289917 .08728027 .0289917 .055267335 .0289917 .009246826 .07899475-.0107421879 .12298584-.0107421879 .18899536-.0107421879 .22499085 .059280397 .22799683 .0652771 .23999024 .028274537 .27598573-.0107421879 .33599855-.0107421879 .43899537-.0107421879 .49598695 .118270877 .49598695 .14328003 .49598695 .1532898 .4869995 .1532898 .48399354 .1532898 .47499085 .1532898 .47299195 .14929199 .47099305 .14228821 .43798829 .03527832 .36999513 .011245728 .33799745 .011245728 .29899598 .011245728 .2829895 .043273927 .2829895 .07727051 .2829895 .09927368 .2889862 .121276859 .2999878 .16529846L.33399964 .30233766Z"/>
<path id="font_2_1" d="M.6749878 .22944641C.69299319 .22944641 .71199038 .22944641 .71199038 .25144959 .71199038 .27246095 .69200137 .27246095 .6749878 .27246095H.12298584C.10598755 .27246095 .085998538 .27246095 .085998538 .25144959 .085998538 .22944641 .10499573 .22944641 .12298584 .22944641H.6749878Z"/>
<path id="font_3_2" d="M.46199037 .17704773H.43399049C.43199159 .16404724 .42399598 .10501099 .41099549 .08900452 .40499879 .07998657 .33599855 .07998657 .31599427 .07998657H.13798523L.23699951 .17404175C.40098573 .3161316 .46199037 .36915589 .46199037 .4711914 .46199037 .5860901 .36698915 .6660156 .24398804 .6660156 .1289978 .6660156 .050994874 .575119 .050994874 .4841919 .050994874 .43418885 .09399414 .42919923 .102996829 .42919923 .125 .42919923 .15499878 .44519044 .15499878 .48120118 .15499878 .51119998 .13398743 .5332031 .102996829 .5332031 .09799194 .5332031 .09498596 .5332031 .09098816 .53219607 .114990238 .6030731 .1789856 .63500979 .23298645 .63500979 .33499146 .63500979 .36999513 .5401764 .36999513 .4711914 .36999513 .36915589 .29299928 .28611756 .24499512 .23408509L.06199646 .035995485C.050994874 .024993897 .050994874 .022994996 .050994874 0H.43399049L.46199037 .17704773Z"/>
<path id="font_3_1" d="M.3039856 .6392822C.3039856 .6642761 .30299378 .666275 .27799989 .666275 .21598816 .60227969 .12399292 .60227969 .09298706 .60227969V.57128909C.11199951 .57128909 .17298889 .57128909 .22698975 .5972748V.08001709C.22698975 .042999269 .22399903 .0309906 .1309967 .0309906H.09899902V0C.1349945 .0029907227 .22399903 .0029907227 .2649994 .0029907227 .30599977 .0029907227 .3959961 .0029907227 .43199159 0V.0309906H.3999939C.30699159 .0309906 .3039856 .042999269 .3039856 .08001709V.6392822Z"/>
<path id="font_1_2" d="M.48599244 .38136292C.48999024 .39537049 .48999024 .39736939 .48999024 .40437318 .48999024 .42237855 .47599793 .43138124 .46099855 .43138124 .45098878 .43138124 .43499757 .42536927 .42599488 .41036988 .42399598 .405365 .41600038 .37435914 .4119873 .35635377 .40499879 .33035279 .397995 .30334474 .3919983 .27633668L.34700013 .09628296C.34298707 .08126831 .2999878 .011245728 .23399353 .011245728 .18299866 .011245728 .17199707 .055267335 .17199707 .0922699 .17199707 .1382904 .18899536 .20030213 .22299195 .28833009 .23899842 .3293457 .24299622 .3403473 .24299622 .36035157 .24299622 .405365 .21099854 .4423828 .16099549 .4423828 .06599426 .4423828 .0289917 .29733277 .0289917 .28833009 .0289917 .27833558 .038986207 .27833558 .040985109 .27833558 .050994874 .27833558 .051986696 .28033448 .056991579 .29634095 .083999637 .3903656 .12399292 .42037965 .1579895 .42037965 .1659851 .42037965 .18299866 .42037965 .18299866 .3883667 .18299866 .36335755 .17298889 .3373413 .1659851 .31834413 .12599182 .21231079 .10798645 .1552887 .10798645 .10827637 .10798645 .019256592 .17098999-.0107421879 .22999573-.0107421879 .2689972-.0107421879 .30299378 .0062561037 .33099366 .03425598 .31799317-.017745972 .30599977-.06674194 .2659912-.11973572 .23999024-.15385437 .20199585-.18309021 .1559906-.18309021 .14199829-.18309021 .09700012-.18005371 .07998657-.14074707 .09599304-.14074707 .10899353-.14074707 .12298584-.1287384 .1329956-.11973572 .14299011-.10673523 .14299011-.08773804 .14299011-.056747438 .115997318-.052734376 .10598755-.052734376 .08299255-.052734376 .049987794-.068740848 .049987794-.11773682 .049987794-.16796875 .09399414-.20507813 .1559906-.20507813 .25898744-.20507813 .3619995-.11373901 .3899994-.00074768069L.48599244 .38136292Z"/>
</defs>
<path transform="matrix(1.00005,0,0,-1.00002,72.1647,82.7344)" stroke-width=".79701" stroke-linecap="butt" stroke-miterlimit="10" stroke-linejoin="miter" fill="none" stroke="#000000" d="M-70.07 0H70.07"/>
<path transform="matrix(-1.00005,-0,0,1.00002,1.692688,82.7344)" stroke-width=".79701" stroke-linecap="round" stroke-linejoin="round" fill="none" stroke="#000000" d="M-2.55046 3.11095C-2.0845 1.24435-1.04614 .36295 0 0-1.04614-.36295-2.0845-1.24435-2.55046-3.11095"/>
<path transform="matrix(1.00005,0,0,-1.00002,142.63672,82.7344)" stroke-width=".79701" stroke-linecap="round" stroke-linejoin="round" fill="none" stroke="#000000" d="M-2.55046 3.11095C-2.0845 1.24435-1.04614 .36295 0 0-1.04614-.36295-2.0845-1.24435-2.55046-3.11095"/>
<use data-text="x" xlink:href="#font_1_1" transform="matrix(9.963098,0,0,-9.962799,146.75443,84.87944)"/>
<path transform="matrix(1.00005,0,0,-1.00002,72.1647,82.7344)" stroke-width=".3985" stroke-linecap="butt" stroke-miterlimit="10" stroke-linejoin="miter" fill="none" stroke="#000000" d="M-56.69362-2.83484V2.83484"/>
<use data-text="&#x2212;" xlink:href="#font_2_1" transform="matrix(8.966848,0,0,-8.966579,9.580582,75.549259)"/>
<use data-text="2" xlink:href="#font_3_2" transform="matrix(8.966848,0,0,-8.966579,16.748932,75.549259)"/>
<path transform="matrix(1.00005,0,0,-1.00002,72.1647,82.7344)" stroke-width=".3985" stroke-linecap="butt" stroke-miterlimit="10" stroke-linejoin="miter" fill="none" stroke="#000000" d="M-28.3468-2.83484V2.83484"/>
<use data-text="&#x2212;" xlink:href="#font_2_1" transform="matrix(8.966848,0,0,-8.966579,37.928995,75.549259)"/>
<use data-text="1" xlink:href="#font_3_1" transform="matrix(8.966848,0,0,-8.966579,45.097345,75.549259)"/>
<path transform="matrix(1.00005,0,0,-1.00002,72.1647,82.7344)" stroke-width=".3985" stroke-linecap="butt" stroke-miterlimit="10" stroke-linejoin="miter" fill="none" stroke="#000000" d="M28.3468-2.83484V2.83484"/>
<use data-text="1" xlink:href="#font_3_1" transform="matrix(8.966848,0,0,-8.966579,98.209,76.37927)"/>
<path transform="matrix(1.00005,0,0,-1.00002,72.1647,82.7344)" stroke-width=".3985" stroke-linecap="butt" stroke-miterlimit="10" stroke-linejoin="miter" fill="none" stroke="#000000" d="M56.69362-2.83484V2.83484"/>
<use data-text="2" xlink:href="#font_3_2" transform="matrix(8.966848,0,0,-8.966579,126.55742,76.37927)"/>
<path transform="matrix(1.00005,0,0,-1.00002,72.1647,82.7344)" stroke-width=".79701" stroke-linecap="butt" stroke-miterlimit="10" stroke-linejoin="miter" fill="none" stroke="#000000" d="M0-70.07V70.07"/>
<path transform="matrix(0,1.00002,1.00005,0,72.1647,153.20432)" stroke-width=".79701" stroke-linecap="round" stroke-linejoin="round" fill="none" stroke="#000000" d="M-2.55046 3.11095C-2.0845 1.24435-1.04614 .36295 0 0-1.04614-.36295-2.0845-1.24435-2.55046-3.11095"/>
<path transform="matrix(0,-1.00002,-1.00005,-0,72.1647,12.264488)" stroke-width=".79701" stroke-linecap="round" stroke-linejoin="round" fill="none" stroke="#000000" d="M-2.55046 3.11095C-2.0845 1.24435-1.04614 .36295 0 0-1.04614-.36295-2.0845-1.24435-2.55046-3.11095"/>
<use data-text="y" xlink:href="#font_1_2" transform="matrix(9.963098,0,0,-9.962799,69.54357,6.2098619)"/>
<path transform="matrix(1.00005,0,0,-1.00002,72.1647,82.7344)" stroke-width=".3985" stroke-linecap="butt" stroke-miterlimit="10" stroke-linejoin="miter" fill="none" stroke="#000000" d="M-2.83484-56.69362H2.83484"/>
<use data-text="&#x2212;" xlink:href="#font_2_1" transform="matrix(8.966848,0,0,-8.966579,78.52002,141.90358)"/>
<use data-text="2" xlink:href="#font_3_2" transform="matrix(8.966848,0,0,-8.966579,85.68837,141.90358)"/>
<path transform="matrix(1.00005,0,0,-1.00002,72.1647,82.7344)" stroke-width=".3985" stroke-linecap="butt" stroke-miterlimit="10" stroke-linejoin="miter" fill="none" stroke="#000000" d="M-2.83484-28.3468H2.83484"/>
<use data-text="&#x2212;" xlink:href="#font_2_1" transform="matrix(8.966848,0,0,-8.966579,78.52002,113.556018)"/>
<use data-text="1" xlink:href="#font_3_1" transform="matrix(8.966848,0,0,-8.966579,85.68837,113.556018)"/>
<path transform="matrix(1.00005,0,0,-1.00002,72.1647,82.7344)" stroke-width=".3985" stroke-linecap="butt" stroke-miterlimit="10" stroke-linejoin="miter" fill="none" stroke="#000000" d="M-2.83484 28.3468H2.83484"/>
<use data-text="1" xlink:href="#font_3_1" transform="matrix(8.966848,0,0,-8.966579,78.52002,57.275888)"/>
<path transform="matrix(1.00005,0,0,-1.00002,72.1647,82.7344)" stroke-width=".3985" stroke-linecap="butt" stroke-miterlimit="10" stroke-linejoin="miter" fill="none" stroke="#000000" d="M-2.83484 56.69362H2.83484"/>
<use data-text="2" xlink:href="#font_3_2" transform="matrix(8.966848,0,0,-8.966579,78.52002,28.929322)"/>
<path transform="matrix(1.00005,0,0,-1.00002,72.1647,82.7344)" stroke-width=".79701" stroke-linecap="butt" stroke-miterlimit="10" stroke-linejoin="miter" fill="none" stroke="#0000ff" d="M11.33855-34.01608 11.86926-32.92435 12.3883-31.80017 12.89523-30.64487 13.38963-29.46014 13.87105-28.24515 14.33775-27.00117 14.79019-25.73038 15.22835-24.43535 15.65137-23.1144 16.05884-21.77177 16.45027-20.40627 16.82442-19.02084 17.18256-17.61682 17.52339-16.19464 17.84737-14.75688 18.15318-13.30356 18.43994-11.83768 18.70941-10.36014 18.95943-8.87221 19.1917-7.37563 19.40407-5.87126 19.59741-4.36041 19.77043-2.84566 19.92485-1.32874 20.05893 .18944 20.17355 1.70764 20.26698 3.22499 20.34009 4.73756 20.39372 6.24713 20.42703 7.74976 20.44 9.24504 20.43265 10.73038 20.4041 12.20447 20.35565 13.66776 20.28775 15.11719 20.19908 16.55148 20.09007 17.96935 19.96075 19.36903 19.81152 20.74927 19.64284 22.10916 19.45468 23.44656 19.24792 24.76192 19.0204 26.05002 18.77472 27.31389 18.51001 28.55052 18.22757 29.75859 17.92651 30.93813 17.6073 32.08392 17.27037 33.19945 16.9174 34.28122 16.54672 35.32925 16.16003 36.34357 15.7569 37.31937 15.33778 38.25883 14.9035 39.15982 14.45412 40.0223 13.99129 40.84541 13.51378 41.62787 13.02284 42.36708 12.51892 43.06519 12.00249 43.72006 11.47435 44.3321 10.93454 44.90045 10.38393 45.42166 9.82292 45.89919 9.25198 46.33087 8.67238 46.71669 8.08325 47.05579 7.48679 47.34734 6.88254 47.5917 6.27136 47.78766 5.65413 47.93817 5.03127 48.04068 4.40366 48.09517 3.77129 48.09993 3.13503 48.05713 2.49615 47.96844 1.85384 47.83133 1.21066 47.64664 .56575 47.41264-.07913 47.13191-.72404 46.80579-1.36896 46.43251-2.01216 46.0125-2.65318 45.54623-3.2916 45.0341-3.92657 44.47786-4.55807 43.87793-5.18526 43.23518-5.80681 42.54614-6.42232 41.81602-7.03175 41.04437-7.63428 40.2325-8.22945 39.38127-8.81554 38.48851-9.39342 37.55812-9.96133 36.59053-10.51974 35.58662-11.0682 34.54808-11.60498 33.47453-12.13008 32.36638-12.64307 31.22707-13.14394 30.05661-13.63185 28.85675-14.10591 27.62749-14.5657 26.36923-15.01079 25.08633-15.44116 23.77834-15.85683 22.4461-16.25648 21.09271-16.63885 19.7168-17.00522 18.32143-17.35513 16.9079-17.68733 15.47836-18.00223 14.03368-18.29851 12.573-18.57706 11.10107-18.83658 9.6179-19.07794 8.12607-19.3007 6.62474-19.50313 5.11777-19.68652 3.60477-19.85002 2.08784-19.99406 .57007-20.11862-.9481-20.22244-2.4659-20.30591-3.98021-20.3695-5.49234-20.41318-6.99844-20.4361-8.49762-20.4387-9.98772-20.42096-11.4683-20.38248-12.9372-20.32408-14.39354-20.24536-15.83519-20.14673-17.26215-20.02779-18.67049-19.88895-20.0611-19.7302-21.43138-19.55113-22.7796-19.3539-24.10706-19.13634-25.40857-18.90018-26.68498-18.64496-27.93501-18.37117-29.15651-18.07921-30.35161-17.76952-31.51427-17.44121-32.64578-17.09604-33.74443-16.73401-34.80847-16.35555-35.83922-15.9602-36.83536-15.54929-37.79341-15.12238-38.71342-14.6812-39.59538-14.22487-40.43883-13.7547-41.24205-13.26982-42.00246-12.7724-42.72047-12.26244-43.39783-11.73993-44.03105-11.20618-44.62146-10.66075-45.16603-10.10493-45.6656-9.53917-46.11978-8.96347-46.52896-8.3791-46.89142-7.78653-47.20718-7.18575-47.47491-6.57802-47.69638-5.96425-47.86897-5.344-47.99614-4.71811-48.07443-4.08833-48.1034-3.45381-48.08481-2.81624-48.01862-2.17566-47.90573-1.5329-47.74525-.88841-47.53548-.2435-47.27812 .40138-46.97491 1.0463-46.62456 1.69035-46.22879 2.33223-45.78543 2.9724-45.29579 3.60909-44.76161 4.24274-44.18288 4.87166-43.5626 5.49625-42.89694 6.11478-42.18628 6.72725-41.43625 7.33324-40.64427 7.9323-39.81207 8.52315-38.9401 9.10533-38.02916 9.67845-37.0793 10.24162-36.09268 10.79527-35.07233 11.33768-34.0165"/>
</svg>
