<svg xmlns="http://www.w3.org/2000/svg" xmlns:xlink="http://www.w3.org/1999/xlink" xmlns:inkscape="http://www.inkscape.org/namespaces/inkscape" version="1.1" width="246" height="134" viewBox="0 0 246 134">
<defs>
<path id="font_1_1" d="M.33399964 .30233766C.33999635 .32835389 .36299134 .42037965 .43299867 .42037965 .43798829 .42037965 .46199037 .42037965 .48298646 .40734864 .45498658 .402359 .43499757 .37734986 .43499757 .35334779 .43499757 .33735658 .44599916 .31835938 .47299195 .31835938 .49499513 .31835938 .5269928 .3363495 .5269928 .37635804 .5269928 .42837525 .46798707 .4423828 .43399049 .4423828 .37599183 .4423828 .34098817 .38935853 .32899476 .36634828 .3039856 .43237306 .25 .4423828 .22099304 .4423828 .116989139 .4423828 .05999756 .3133545 .05999756 .28834535 .05999756 .27833558 .069992069 .27833558 .07199097 .27833558 .07998657 .27833558 .08299255 .28033448 .084991458 .28933717 .11898804 .39535523 .18499756 .42037965 .21899414 .42037965 .23799134 .42037965 .272995 .4113617 .272995 .35334779 .272995 .32235719 .2559967 .25532533 .21899414 .11528015 .20298767 .053268434 .16799927 .011245728 .12399292 .011245728 .117996219 .011245728 .09498596 .011245728 .07398987 .024276734 .09899902 .029266358 .12098694 .05027771 .12098694 .07827759 .12098694 .105270389 .09899902 .11328125 .083999637 .11328125 .053985597 .11328125 .0289917 .08728027 .0289917 .055267335 .0289917 .009246826 .07899475-.0107421879 .12298584-.0107421879 .18899536-.0107421879 .22499085 .059280397 .22799683 .0652771 .23999024 .028274537 .27598573-.0107421879 .33599855-.0107421879 .43899537-.0107421879 .49598695 .118270877 .49598695 .14328003 .49598695 .1532898 .4869995 .1532898 .48399354 .1532898 .47499085 .1532898 .47299195 .14929199 .47099305 .14228821 .43798829 .03527832 .36999513 .011245728 .33799745 .011245728 .29899598 .011245728 .2829895 .043273927 .2829895 .07727051 .2829895 .09927368 .2889862 .121276859 .2999878 .16529846L.33399964 .30233766Z"/>
<path id="font_1_2" d="M.48599244 .38136292C.48999024 .39537049 .48999024 .39736939 .48999024 .40437318 .48999024 .42237855 .47599793 .43138124 .46099855 .43138124 .45098878 .43138124 .43499757 .42536927 .42599488 .41036988 .42399598 .405365 .41600038 .37435914 .4119873 .35635377 .40499879 .33035279 .397995 .30334474 .3919983 .27633668L.34700013 .09628296C.34298707 .08126831 .2999878 .011245728 .23399353 .011245728 .18299866 .011245728 .17199707 .055267335 .17199707 .0922699 .17199707 .1382904 .18899536 .20030213 .22299195 .28833009 .23899842 .3293457 .24299622 .3403473 .24299622 .36035157 .24299622 .405365 .21099854 .4423828 .16099549 .4423828 .06599426 .4423828 .0289917 .29733277 .0289917 .28833009 .0289917 .27833558 .038986207 .27833558 .040985109 .27833558 .050994874 .27833558 .051986696 .28033448 .056991579 .29634095 .083999637 .3903656 .12399292 .42037965 .1579895 .42037965 .1659851 .42037965 .18299866 .42037965 .18299866 .3883667 .18299866 .36335755 .17298889 .3373413 .1659851 .31834413 .12599182 .21231079 .10798645 .1552887 .10798645 .10827637 .10798645 .019256592 .17098999-.0107421879 .22999573-.0107421879 .2689972-.0107421879 .30299378 .0062561037 .33099366 .03425598 .31799317-.017745972 .30599977-.06674194 .2659912-.11973572 .23999024-.15385437 .20199585-.18309021 .1559906-.18309021 .14199829-.18309021 .09700012-.18005371 .07998657-.14074707 .09599304-.14074707 .10899353-.14074707 .12298584-.1287384 .1329956-.11973572 .14299011-.10673523 .14299011-.08773804 .14299011-.056747438 .115997318-.052734376 .10598755-.052734376 .08299255-.052734376 .049987794-.068740848 .049987794-.11773682 .049987794-.16796875 .09399414-.20507813 .1559906-.20507813 .25898744-.20507813 .3619995-.11373901 .3899994-.00074768069L.48599244 .38136292Z"/>
</defs>
<path transform="matrix(1,0,0,-1.00003,15.468002,118.42317)" stroke-width=".3985" stroke-linecap="butt" stroke-miterlimit="10" stroke-linejoin="miter" fill="none" stroke="#7f807f" d="M0 0H226.77448M0 28.3468H226.77448M0 56.69362H226.77448M0 85.04042H226.77448M0 113.37727H226.77448M0 0V113.38724M28.3468 0V113.38724M56.69362 0V113.38724M85.04042 0V113.38724M113.38724 0V113.38724M141.73404 0V113.38724M170.08086 0V113.38724M198.42766 0V113.38724M226.76451 0V113.38724M226.77448 113.38724"/>
<path transform="matrix(1,0,0,-1.00003,15.468002,118.42317)" stroke-width=".79701" stroke-linecap="butt" stroke-miterlimit="10" stroke-linejoin="miter" fill="none" stroke="#000000" d="M-14.17339 0H225.97747"/>
<path transform="matrix(1,0,0,-1.00003,241.84397,118.42317)" stroke-width=".79701" stroke-linecap="round" stroke-linejoin="round" fill="none" stroke="#000000" d="M-2.55046 3.11095C-2.0845 1.24435-1.04614 .36295 0 0-1.04614-.36295-2.0845-1.24435-2.55046-3.11095"/>
<use data-text="x" xlink:href="#font_1_1" transform="matrix(9.9626,0,0,-9.962899,239.395,126.43241)"/>
<path transform="matrix(1,0,0,-1.00003,15.468002,118.42317)" stroke-width=".79701" stroke-linecap="butt" stroke-miterlimit="10" stroke-linejoin="miter" fill="none" stroke="#000000" d="M0-14.17339V112.59023"/>
<path transform="matrix(0,-1.00003,-1,-0,15.468002,5.431053)" stroke-width=".79701" stroke-linecap="round" stroke-linejoin="round" fill="none" stroke="#000000" d="M-2.55046 3.11095C-2.0845 1.24435-1.04614 .36295 0 0-1.04614-.36295-2.0845-1.24435-2.55046-3.11095"/>
<use data-text="y" xlink:href="#font_1_2" transform="matrix(9.9626,0,0,-9.962899,6.507004,6.2088015)"/>
<path transform="matrix(1,0,0,-1.00003,15.468002,118.42317)" stroke-width="1.19553" stroke-linecap="butt" stroke-miterlimit="10" stroke-linejoin="miter" fill="none" stroke="#0000ff" d="M0-5.66927 226.77448 96.37897"/>
<path transform="matrix(1,0,0,-1.00003,15.468002,118.42317)" d="M58.68614 28.3468C58.68614 29.44725 57.79405 30.33932 56.69362 30.33932 55.59317 30.33932 54.7011 29.44725 54.7011 28.3468 54.7011 27.24637 55.59317 26.35428 56.69362 26.35428 57.79405 26.35428 58.68614 27.24637 58.68614 28.3468ZM56.69362 28.3468"/>
<path transform="matrix(1,0,0,-1.00003,15.468002,118.42317)" stroke-width=".3985" stroke-linecap="butt" stroke-miterlimit="10" stroke-linejoin="miter" fill="none" stroke="#000000" d="M58.68614 28.3468C58.68614 29.44725 57.79405 30.33932 56.69362 30.33932 55.59317 30.33932 54.7011 29.44725 54.7011 28.3468 54.7011 27.24637 55.59317 26.35428 56.69362 26.35428 57.79405 26.35428 58.68614 27.24637 58.68614 28.3468ZM56.69362 28.3468"/>
<path transform="matrix(1,0,0,-1.00003,15.468002,118.42317)" d="M143.72657 28.3468C143.72657 29.44725 142.83449 30.33932 141.73404 30.33932 140.6336 30.33932 139.74152 29.44725 139.74152 28.3468 139.74152 27.24637 140.6336 26.35428 141.73404 26.35428 142.83449 26.35428 143.72657 27.24637 143.72657 28.3468ZM141.73404 28.3468"/>
<path transform="matrix(1,0,0,-1.00003,15.468002,118.42317)" stroke-width=".3985" stroke-linecap="butt" stroke-miterlimit="10" stroke-linejoin="miter" fill="none" stroke="#000000" d="M143.72657 28.3468C143.72657 29.44725 142.83449 30.33932 141.73404 30.33932 140.6336 30.33932 139.74152 29.44725 139.74152 28.3468 139.74152 27.24637 140.6336 26.35428 141.73404 26.35428 142.83449 26.35428 143.72657 27.24637 143.72657 28.3468ZM141.73404 28.3468"/>
<path transform="matrix(1,0,0,-1.00003,15.468002,118.42317)" d="M200.42018 113.38724C200.42018 114.48767 199.5281 115.37976 198.42766 115.37976 197.32723 115.37976 196.43514 114.48767 196.43514 113.38724 196.43514 112.28679 197.32723 111.39471 198.42766 111.39471 199.5281 111.39471 200.42018 112.28679 200.42018 113.38724ZM198.42766 113.38724"/>
<path transform="matrix(1,0,0,-1.00003,15.468002,118.42317)" stroke-width=".3985" stroke-linecap="butt" stroke-miterlimit="10" stroke-linejoin="miter" fill="none" stroke="#000000" d="M200.42018 113.38724C200.42018 114.48767 199.5281 115.37976 198.42766 115.37976 197.32723 115.37976 196.43514 114.48767 196.43514 113.38724 196.43514 112.28679 197.32723 111.39471 198.42766 111.39471 199.5281 111.39471 200.42018 112.28679 200.42018 113.38724ZM198.42766 113.38724"/>
<path transform="matrix(1,0,0,-1.00003,15.468002,118.42317)" d="M228.767 85.04042C228.767 86.14087 227.87491 87.03294 226.77448 87.03294 225.67403 87.03294 224.78195 86.14087 224.78195 85.04042 224.78195 83.93999 225.67403 83.0479 226.77448 83.0479 227.87491 83.0479 228.767 83.93999 228.767 85.04042ZM226.77448 85.04042"/>
<path transform="matrix(1,0,0,-1.00003,15.468002,118.42317)" stroke-width=".3985" stroke-linecap="butt" stroke-miterlimit="10" stroke-linejoin="miter" fill="none" stroke="#000000" d="M228.767 85.04042C228.767 86.14087 227.87491 87.03294 226.77448 87.03294 225.67403 87.03294 224.78195 86.14087 224.78195 85.04042 224.78195 83.93999 225.67403 83.0479 226.77448 83.0479 227.87491 83.0479 228.767 83.93999 228.767 85.04042ZM226.77448 85.04042"/>
<path transform="matrix(1,0,0,-1.00003,15.468002,118.42317)" stroke-width=".79701" stroke-linecap="butt" stroke-miterlimit="10" stroke-linejoin="miter" fill="none" stroke="#ff0000" d="M56.69362 28.3468V18.70897"/>
<path transform="matrix(1,0,0,-1.00003,15.468002,118.42317)" stroke-width=".79701" stroke-linecap="butt" stroke-miterlimit="10" stroke-linejoin="miter" fill="none" stroke="#ff0000" d="M141.73404 28.3468V57.26067"/>
<path transform="matrix(1,0,0,-1.00003,15.468002,118.42317)" stroke-width=".79701" stroke-linecap="butt" stroke-miterlimit="10" stroke-linejoin="miter" fill="none" stroke="#ff0000" d="M198.42766 113.38724V83.05592"/>
<path transform="matrix(1,0,0,-1.00003,15.468002,118.42317)" stroke-width=".79701" stroke-linecap="butt" stroke-miterlimit="10" stroke-linejoin="miter" fill="none" stroke="#ff0000" d="M226.77448 85.04042V96.37897"/>
</svg>
