<svg xmlns="http://www.w3.org/2000/svg" xmlns:xlink="http://www.w3.org/1999/xlink" xmlns:inkscape="http://www.inkscape.org/namespaces/inkscape" version="1.1" width="186" height="178" viewBox="0 0 186 178">
<defs>
<path id="font_1_1" d="M.6749878 .22944641C.69299319 .22944641 .71199038 .22944641 .71199038 .25144959 .71199038 .27246095 .69200137 .27246095 .6749878 .27246095H.12298584C.10598755 .27246095 .085998538 .27246095 .085998538 .25144959 .085998538 .22944641 .10499573 .22944641 .12298584 .22944641H.6749878Z"/>
<path id="font_2_7" d="M.13398743 .33073426C.13398743 .43276979 .14498902 .4897766 .17199707 .54177859 .19198609 .58277896 .24099732 .64100649 .31498719 .64100649 .33499146 .64100649 .3809967 .63697817 .4039917 .6007843 .36698915 .6007843 .35099793 .5817871 .35099793 .55477908 .35099793 .5287781 .36898805 .50878909 .39698792 .50878909 .4249878 .50878909 .44400025 .5267792 .44400025 .55677798 .44400025 .612854 .4039917 .6660156 .31298829 .6660156 .18399048 .6660156 .042999269 .53878787 .042999269 .3157196 .042999269 .044555665 .16499329-.022460938 .25898744-.022460938 .36999513-.022460938 .46998597 .0705719 .46998597 .20265198 .46998597 .32972718 .37799073 .42578126 .2649994 .42578126 .20498657 .42578126 .1619873 .39076234 .13398743 .33073426M.2579956 .0055389406C.20098877 .0055389406 .16799927 .05256653 .1559906 .08157349 .13699341 .12660218 .13598633 .20965576 .13598633 .22566223 .13598633 .29270936 .16699219 .4007721 .2630005 .4007721 .2789917 .4007721 .32798768 .4007721 .3600006 .33872987 .3789978 .30070497 .3789978 .25167848 .3789978 .20365906 .3789978 .15562439 .3789978 .1065979 .3600006 .06956482 .32899476 .012542725 .2849884 .0055389406 .2579956 .0055389406Z"/>
<path id="font_2_6" d="M.10398865 .3444519C.10398865 .32641603 .10398865 .31539918 .117996219 .31539918 .12599182 .31539918 .1289978 .31941224 .1349945 .32843019 .16499329 .3704834 .21299744 .39453126 .2649994 .39453126 .37199403 .39453126 .37199403 .24029541 .37199403 .20425415 .37199403 .17324829 .37199403 .11125183 .34399415 .06637573 .31698609 .024475098 .2749939 .0055389406 .23599243 .0055389406 .1769867 .0055389406 .10998535 .042434694 .085998538 .116256717 .08699036 .116256717 .09298706 .11425781 .099990848 .11425781 .11999512 .11425781 .14898682 .12724304 .14898682 .16325379 .14898682 .19424439 .1269989 .21224976 .099990848 .21224976 .07899475 .21224976 .050994874 .20025635 .050994874 .1602478 .050994874 .069366458 .1269989-.022460938 .23799134-.022460938 .35899354-.022460938 .46199037 .0753479 .46199037 .19924927 .46199037 .3204193 .37599183 .41952516 .2669983 .41952516 .21899414 .41952516 .16999817 .40351869 .1349945 .36747743V.56477358C.16499329 .5557709 .19599915 .55078127 .22698975 .55078127 .34999085 .55078127 .42199708 .6397705 .42199708 .652771 .42199708 .6617737 .41600038 .6657715 .41099549 .6657715 .40899659 .6657715 .40699769 .6657715 .397995 .6607666 .35099793 .6417694 .30499269 .6337738 .2630005 .6337738 .21998596 .6337738 .1749878 .6417694 .1289978 .6607666 .11898804 .6657715 .116989139 .6657715 .115997318 .6657715 .10398865 .6657715 .10398865 .655777 .10398865 .6387787V.3444519Z"/>
<path id="font_2_5" d="M.0289917 .19602967V.16503906H.3019867V.07901001C.3019867 .041992189 .29899598 .0309906 .22399903 .0309906H.20199585V0C.2649994 .0029907227 .33499146 .0029907227 .34199525 .0029907227 .34700013 .0029907227 .4189911 .0029907227 .48199464 0V.0309906H.45999146C.3849945 .0309906 .38198854 .041992189 .38198854 .07901001V.16503906H.48399354V.19602967H.38198854V.64974978C.38198854 .669754 .38198854 .6767578 .36299134 .6767578 .35099793 .6767578 .34999085 .67575076 .34098817 .66174319L.0289917 .19602967M.06098938 .19602967 .30799867 .56581118V.19602967H.06098938Z"/>
<path id="font_2_4" d="M.30499269 .35195924C.397995 .38697816 .44198609 .46006776 .44198609 .5290985 .44198609 .60606387 .35699464 .6660156 .25299073 .6660156 .14898682 .6660156 .070999149 .60705569 .070999149 .5310974 .070999149 .49809266 .09298706 .47909547 .12199402 .47909547 .15098572 .47909547 .17199707 .50009158 .17199707 .5290985 .17199707 .5640869 .147995 .57910159 .11399841 .57910159 .13999939 .6210327 .20098877 .64100649 .25 .64100649 .33299256 .64100649 .34899903 .5750885 .34899903 .52809146 .34899903 .49809266 .34298707 .45005799 .31799317 .41201783 .2869873 .36695863 .2519989 .36495973 .22299195 .36296083 .19799805 .36094667 .19599915 .36094667 .18798828 .36094667 .1789856 .35995484 .17098999 .35894776 .17098999 .34794618 .17098999 .33496095 .1789856 .33496095 .19599915 .33496095H.24299622C.32998658 .33496095 .36799623 .2646637 .36799623 .16937256 .36799623 .04145813 .2999878 .0055389406 .24899292 .0055389406 .22999573 .0055389406 .1329956 .010528564 .08799744 .0843811 .12399292 .07939148 .1519928 .10437012 .1519928 .13838196 .1519928 .17137146 .1269989 .19238281 .09799194 .19238281 .07299805 .19238281 .042999269 .17736817 .042999269 .13537598 .042999269 .046447755 .13598633-.022460938 .2519989-.022460938 .3769989-.022460938 .46998597 .06741333 .46998597 .16937256 .46998597 .25663758 .40098573 .33093263 .30499269 .35195924Z"/>
<path id="font_2_3" d="M.46199037 .17704773H.43399049C.43199159 .16404724 .42399598 .10501099 .41099549 .08900452 .40499879 .07998657 .33599855 .07998657 .31599427 .07998657H.13798523L.23699951 .17404175C.40098573 .3161316 .46199037 .36915589 .46199037 .4711914 .46199037 .5860901 .36698915 .6660156 .24398804 .6660156 .1289978 .6660156 .050994874 .575119 .050994874 .4841919 .050994874 .43418885 .09399414 .42919923 .102996829 .42919923 .125 .42919923 .15499878 .44519044 .15499878 .48120118 .15499878 .51119998 .13398743 .5332031 .102996829 .5332031 .09799194 .5332031 .09498596 .5332031 .09098816 .53219607 .114990238 .6030731 .1789856 .63500979 .23298645 .63500979 .33499146 .63500979 .36999513 .5401764 .36999513 .4711914 .36999513 .36915589 .29299928 .28611756 .24499512 .23408509L.06199646 .035995485C.050994874 .024993897 .050994874 .022994996 .050994874 0H.43399049L.46199037 .17704773Z"/>
<path id="font_2_2" d="M.3039856 .6392822C.3039856 .6642761 .30299378 .666275 .27799989 .666275 .21598816 .60227969 .12399292 .60227969 .09298706 .60227969V.57128909C.11199951 .57128909 .17298889 .57128909 .22698975 .5972748V.08001709C.22698975 .042999269 .22399903 .0309906 .1309967 .0309906H.09899902V0C.1349945 .0029907227 .22399903 .0029907227 .2649994 .0029907227 .30599977 .0029907227 .3959961 .0029907227 .43199159 0V.0309906H.3999939C.30699159 .0309906 .3039856 .042999269 .3039856 .08001709V.6392822Z"/>
<path id="font_2_1" d="M.47299195 .31976319C.47299195 .38682557 .46998597 .47288514 .43499757 .5479431 .3909912 .64201357 .31498719 .6660156 .25698854 .6660156 .19699097 .6660156 .12098694 .64201357 .07699585 .5459442 .04499817 .47688294 .039993287 .39582826 .039993287 .31976319 .039993287 .25471498 .041992189 .15765381 .084991458 .07858276 .13198853-.0064697267 .20999146-.022460938 .2559967-.022460938 .32099916-.022460938 .394989 .0055389406 .43699647 .097595218 .46699525 .1646576 .47299195 .23971558 .47299195 .31976319M.25698854 .002532959C.22698975 .002532959 .15499878 .016540528 .13598633 .12962342 .12599182 .18867493 .12599182 .2747345 .12599182 .33177186 .12599182 .39982606 .12599182 .47888185 .13798523 .53393557 .1579895 .6230011 .22200012 .64100649 .2559967 .64100649 .2939911 .64100649 .35699464 .62098696 .37599183 .5279236 .3869934 .47288514 .3869934 .39482118 .3869934 .33177186 .3869934 .2697296 .3869934 .18566895 .3769989 .12661743 .35598756 .012542725 .28199769 .002532959 .25698854 .002532959Z"/>
</defs>
<path transform="matrix(1.00002,0,0,-1.00005,93.14555,88.85284)" stroke-width=".79701" stroke-linecap="butt" stroke-miterlimit="10" stroke-linejoin="miter" fill="none" stroke="#000000" d="M-91.33011 0H91.33011"/>
<path transform="matrix(-1.00002,-0,0,1.00005,1.4151154,88.85284)" stroke-width=".79701" stroke-linecap="round" stroke-linejoin="round" fill="none" stroke="#000000" d="M-2.55046 3.11095C-2.0845 1.24435-1.04614 .36295 0 0-1.04614-.36295-2.0845-1.24435-2.55046-3.11095"/>
<path transform="matrix(1.00002,0,0,-1.00005,184.87599,88.85284)" stroke-width=".79701" stroke-linecap="round" stroke-linejoin="round" fill="none" stroke="#000000" d="M-2.55046 3.11095C-2.0845 1.24435-1.04614 .36295 0 0-1.04614-.36295-2.0845-1.24435-2.55046-3.11095"/>
<path transform="matrix(1.00002,0,0,-1.00005,93.14555,88.85284)" stroke-width=".3985" stroke-linecap="butt" stroke-miterlimit="10" stroke-linejoin="miter" fill="none" stroke="#000000" d="M-85.04042-1.4174V1.4174"/>
<use data-text="&#x2212;" xlink:href="#font_1_1" transform="matrix(8.966579,0,0,-8.966848,2.2157288,83.08555)"/>
<use data-text="6" xlink:href="#font_2_7" transform="matrix(8.966579,0,0,-8.966848,9.383865,83.08555)"/>
<path transform="matrix(1.00002,0,0,-1.00005,93.14555,88.85284)" stroke-width=".3985" stroke-linecap="butt" stroke-miterlimit="10" stroke-linejoin="miter" fill="none" stroke="#000000" d="M-70.867-1.4174V1.4174"/>
<use data-text="&#x2212;" xlink:href="#font_1_1" transform="matrix(8.966579,0,0,-8.966848,16.389023,83.08555)"/>
<use data-text="5" xlink:href="#font_2_6" transform="matrix(8.966579,0,0,-8.966848,23.55716,83.08555)"/>
<path transform="matrix(1.00002,0,0,-1.00005,93.14555,88.85284)" stroke-width=".3985" stroke-linecap="butt" stroke-miterlimit="10" stroke-linejoin="miter" fill="none" stroke="#000000" d="M-56.69362-1.4174V1.4174"/>
<use data-text="&#x2212;" xlink:href="#font_1_1" transform="matrix(8.966579,0,0,-8.966848,30.563294,83.08555)"/>
<use data-text="4" xlink:href="#font_2_5" transform="matrix(8.966579,0,0,-8.966848,37.73143,83.08555)"/>
<path transform="matrix(1.00002,0,0,-1.00005,93.14555,88.85284)" stroke-width=".3985" stroke-linecap="butt" stroke-miterlimit="10" stroke-linejoin="miter" fill="none" stroke="#000000" d="M-42.5202-1.4174V1.4174"/>
<use data-text="&#x2212;" xlink:href="#font_1_1" transform="matrix(8.966579,0,0,-8.966848,44.736589,83.08555)"/>
<use data-text="3" xlink:href="#font_2_4" transform="matrix(8.966579,0,0,-8.966848,51.904726,83.08555)"/>
<path transform="matrix(1.00002,0,0,-1.00005,93.14555,88.85284)" stroke-width=".3985" stroke-linecap="butt" stroke-miterlimit="10" stroke-linejoin="miter" fill="none" stroke="#000000" d="M-28.3468-1.4174V1.4174"/>
<use data-text="&#x2212;" xlink:href="#font_1_1" transform="matrix(8.966579,0,0,-8.966848,58.910867,83.08555)"/>
<use data-text="2" xlink:href="#font_2_3" transform="matrix(8.966579,0,0,-8.966848,66.079,83.08555)"/>
<path transform="matrix(1.00002,0,0,-1.00005,93.14555,88.85284)" stroke-width=".3985" stroke-linecap="butt" stroke-miterlimit="10" stroke-linejoin="miter" fill="none" stroke="#000000" d="M-14.17339-1.4174V1.4174"/>
<use data-text="&#x2212;" xlink:href="#font_1_1" transform="matrix(8.966579,0,0,-8.966848,73.08415,83.08555)"/>
<use data-text="1" xlink:href="#font_2_2" transform="matrix(8.966579,0,0,-8.966848,80.25229,83.08555)"/>
<path transform="matrix(1.00002,0,0,-1.00005,93.14555,88.85284)" stroke-width=".3985" stroke-linecap="butt" stroke-miterlimit="10" stroke-linejoin="miter" fill="none" stroke="#000000" d="M0-1.4174V1.4174"/>
<use data-text="0" xlink:href="#font_2_1" transform="matrix(8.966579,0,0,-8.966848,90.84151,83.91559)"/>
<path transform="matrix(1.00002,0,0,-1.00005,93.14555,88.85284)" stroke-width=".3985" stroke-linecap="butt" stroke-miterlimit="10" stroke-linejoin="miter" fill="none" stroke="#000000" d="M14.17339-1.4174V1.4174"/>
<use data-text="1" xlink:href="#font_2_2" transform="matrix(8.966579,0,0,-8.966848,105.01579,83.91559)"/>
<path transform="matrix(1.00002,0,0,-1.00005,93.14555,88.85284)" stroke-width=".3985" stroke-linecap="butt" stroke-miterlimit="10" stroke-linejoin="miter" fill="none" stroke="#000000" d="M28.3468-1.4174V1.4174"/>
<use data-text="2" xlink:href="#font_2_3" transform="matrix(8.966579,0,0,-8.966848,119.18907,83.91559)"/>
<path transform="matrix(1.00002,0,0,-1.00005,93.14555,88.85284)" stroke-width=".3985" stroke-linecap="butt" stroke-miterlimit="10" stroke-linejoin="miter" fill="none" stroke="#000000" d="M42.5202-1.4174V1.4174"/>
<use data-text="3" xlink:href="#font_2_4" transform="matrix(8.966579,0,0,-8.966848,133.36237,83.91559)"/>
<path transform="matrix(1.00002,0,0,-1.00005,93.14555,88.85284)" stroke-width=".3985" stroke-linecap="butt" stroke-miterlimit="10" stroke-linejoin="miter" fill="none" stroke="#000000" d="M56.69362-1.4174V1.4174"/>
<use data-text="4" xlink:href="#font_2_5" transform="matrix(8.966579,0,0,-8.966848,147.53665,83.91559)"/>
<path transform="matrix(1.00002,0,0,-1.00005,93.14555,88.85284)" stroke-width=".3985" stroke-linecap="butt" stroke-miterlimit="10" stroke-linejoin="miter" fill="none" stroke="#000000" d="M70.867-1.4174V1.4174"/>
<use data-text="5" xlink:href="#font_2_6" transform="matrix(8.966579,0,0,-8.966848,161.70993,83.91559)"/>
<path transform="matrix(1.00002,0,0,-1.00005,93.14555,88.85284)" stroke-width=".3985" stroke-linecap="butt" stroke-miterlimit="10" stroke-linejoin="miter" fill="none" stroke="#000000" d="M85.04042-1.4174V1.4174"/>
<use data-text="6" xlink:href="#font_2_7" transform="matrix(8.966579,0,0,-8.966848,175.88422,83.91559)"/>
<path transform="matrix(1.00002,0,0,-1.00005,93.14555,88.85284)" stroke-width=".3985" stroke-linecap="butt" stroke-miterlimit="10" stroke-linejoin="miter" fill="none" stroke="#000000" d="M-1.4174-85.04042H1.4174"/>
<use data-text="&#x2212;" xlink:href="#font_1_1" transform="matrix(8.966579,0,0,-8.966848,98.08265,176.37221)"/>
<use data-text="6" xlink:href="#font_2_7" transform="matrix(8.966579,0,0,-8.966848,105.250789,176.37221)"/>
<path transform="matrix(1.00002,0,0,-1.00005,93.14555,88.85284)" stroke-width=".3985" stroke-linecap="butt" stroke-miterlimit="10" stroke-linejoin="miter" fill="none" stroke="#000000" d="M-1.4174-70.867H1.4174"/>
<use data-text="&#x2212;" xlink:href="#font_1_1" transform="matrix(8.966579,0,0,-8.966848,98.08265,162.19751)"/>
<use data-text="5" xlink:href="#font_2_6" transform="matrix(8.966579,0,0,-8.966848,105.250789,162.19751)"/>
<path transform="matrix(1.00002,0,0,-1.00005,93.14555,88.85284)" stroke-width=".3985" stroke-linecap="butt" stroke-miterlimit="10" stroke-linejoin="miter" fill="none" stroke="#000000" d="M-1.4174-56.69362H1.4174"/>
<use data-text="&#x2212;" xlink:href="#font_1_1" transform="matrix(8.966579,0,0,-8.966848,98.08265,148.0238)"/>
<use data-text="4" xlink:href="#font_2_5" transform="matrix(8.966579,0,0,-8.966848,105.250789,148.0238)"/>
<path transform="matrix(1.00002,0,0,-1.00005,93.14555,88.85284)" stroke-width=".3985" stroke-linecap="butt" stroke-miterlimit="10" stroke-linejoin="miter" fill="none" stroke="#000000" d="M-1.4174-42.5202H1.4174"/>
<use data-text="&#x2212;" xlink:href="#font_1_1" transform="matrix(8.966579,0,0,-8.966848,98.08265,133.84909)"/>
<use data-text="3" xlink:href="#font_2_4" transform="matrix(8.966579,0,0,-8.966848,105.250789,133.84909)"/>
<path transform="matrix(1.00002,0,0,-1.00005,93.14555,88.85284)" stroke-width=".3985" stroke-linecap="butt" stroke-miterlimit="10" stroke-linejoin="miter" fill="none" stroke="#000000" d="M-1.4174-28.3468H1.4174"/>
<use data-text="&#x2212;" xlink:href="#font_1_1" transform="matrix(8.966579,0,0,-8.966848,98.08265,119.67538)"/>
<use data-text="2" xlink:href="#font_2_3" transform="matrix(8.966579,0,0,-8.966848,105.250789,119.67538)"/>
<path transform="matrix(1.00002,0,0,-1.00005,93.14555,88.85284)" stroke-width=".3985" stroke-linecap="butt" stroke-miterlimit="10" stroke-linejoin="miter" fill="none" stroke="#000000" d="M-1.4174-14.17339H1.4174"/>
<use data-text="&#x2212;" xlink:href="#font_1_1" transform="matrix(8.966579,0,0,-8.966848,98.08265,105.50067)"/>
<use data-text="1" xlink:href="#font_2_2" transform="matrix(8.966579,0,0,-8.966848,105.250789,105.50067)"/>
<path transform="matrix(1.00002,0,0,-1.00005,93.14555,88.85284)" stroke-width=".3985" stroke-linecap="butt" stroke-miterlimit="10" stroke-linejoin="miter" fill="none" stroke="#000000" d="M-1.4174 0H1.4174"/>
<use data-text="0" xlink:href="#font_2_1" transform="matrix(8.966579,0,0,-8.966848,98.08265,91.74198)"/>
<path transform="matrix(1.00002,0,0,-1.00005,93.14555,88.85284)" stroke-width=".3985" stroke-linecap="butt" stroke-miterlimit="10" stroke-linejoin="miter" fill="none" stroke="#000000" d="M-1.4174 14.17339H1.4174"/>
<use data-text="1" xlink:href="#font_2_2" transform="matrix(8.966579,0,0,-8.966848,98.08265,77.568279)"/>
<path transform="matrix(1.00002,0,0,-1.00005,93.14555,88.85284)" stroke-width=".3985" stroke-linecap="butt" stroke-miterlimit="10" stroke-linejoin="miter" fill="none" stroke="#000000" d="M-1.4174 28.3468H1.4174"/>
<use data-text="2" xlink:href="#font_2_3" transform="matrix(8.966579,0,0,-8.966848,98.08265,63.393564)"/>
<path transform="matrix(1.00002,0,0,-1.00005,93.14555,88.85284)" stroke-width=".3985" stroke-linecap="butt" stroke-miterlimit="10" stroke-linejoin="miter" fill="none" stroke="#000000" d="M-1.4174 42.5202H1.4174"/>
<use data-text="3" xlink:href="#font_2_4" transform="matrix(8.966579,0,0,-8.966848,98.08265,49.219858)"/>
<path transform="matrix(1.00002,0,0,-1.00005,93.14555,88.85284)" stroke-width=".3985" stroke-linecap="butt" stroke-miterlimit="10" stroke-linejoin="miter" fill="none" stroke="#000000" d="M-1.4174 56.69362H1.4174"/>
<use data-text="4" xlink:href="#font_2_5" transform="matrix(8.966579,0,0,-8.966848,98.08265,35.04615)"/>
<path transform="matrix(1.00002,0,0,-1.00005,93.14555,88.85284)" stroke-width=".3985" stroke-linecap="butt" stroke-miterlimit="10" stroke-linejoin="miter" fill="none" stroke="#000000" d="M-1.4174 70.867H1.4174"/>
<use data-text="5" xlink:href="#font_2_6" transform="matrix(8.966579,0,0,-8.966848,98.08265,20.871445)"/>
<path transform="matrix(1.00002,0,0,-1.00005,93.14555,88.85284)" stroke-width=".3985" stroke-linecap="butt" stroke-miterlimit="10" stroke-linejoin="miter" fill="none" stroke="#000000" d="M-1.4174 85.04042H1.4174"/>
<use data-text="6" xlink:href="#font_2_7" transform="matrix(8.966579,0,0,-8.966848,98.08265,6.697731)"/>
<path transform="matrix(1.00002,0,0,-1.00005,93.14555,88.85284)" stroke-width=".3985" stroke-linecap="butt" stroke-miterlimit="10" stroke-linejoin="miter" fill="none" stroke="#000000" d="M-85.04042 0H82.5145"/>
<path transform="matrix(1.00002,0,0,-1.00005,174.20249,88.85284)" d="M3.41763 0 .64348 1.04684 1.55879 0 .64348-1.04684Z"/>
<path transform="matrix(1.00002,0,0,-1.00005,174.20249,88.85284)" stroke-width=".3985" stroke-linecap="butt" stroke-miterlimit="10" stroke-linejoin="miter" fill="none" stroke="#000000" d="M3.41763 0 .64348 1.04684 1.55879 0 .64348-1.04684Z"/>
<path transform="matrix(1.00002,0,0,-1.00005,93.14555,88.85284)" stroke-width=".3985" stroke-linecap="butt" stroke-miterlimit="10" stroke-linejoin="miter" fill="none" stroke="#000000" d="M0-85.04042V82.5145"/>
<path transform="matrix(0,-1.00005,-1.00002,-0,93.14555,7.7934725)" d="M3.41763 0 .64348 1.04684 1.55879 0 .64348-1.04684Z"/>
<path transform="matrix(0,-1.00005,-1.00002,-0,93.14555,7.7934725)" stroke-width=".3985" stroke-linecap="butt" stroke-miterlimit="10" stroke-linejoin="miter" fill="none" stroke="#000000" d="M3.41763 0 .64348 1.04684 1.55879 0 .64348-1.04684Z"/>
<path transform="matrix(1.00002,0,0,-1.00005,93.14555,88.85284)" stroke-width="1.19553" stroke-linecap="butt" stroke-miterlimit="10" stroke-linejoin="miter" fill="none" stroke="#ff0000" d="M-85.04042-35.43349 85.04042 49.6069"/>
<path transform="matrix(1.00002,0,0,-1.00005,93.14555,88.85284)" stroke-width="1.19553" stroke-linecap="butt" stroke-miterlimit="10" stroke-linejoin="miter" fill="none" stroke="#0000ff" d="M-85.04042-21.2601 85.04042 63.7803"/>
</svg>
